<svg width="41" height="41" viewBox="0 0 41 41" fill="none" xmlns="http://www.w3.org/2000/svg">
<path d="M24.0068 16.9106C23.0768 17.8407 21.8153 18.3632 20.5 18.3632C19.1847 18.3632 17.9232 17.8407 16.9932 16.9106C16.0631 15.9806 15.5406 14.7191 15.5406 13.4038C15.5406 12.0885 16.0631 10.827 16.9932 9.89695C17.9232 8.96688 19.1847 8.44437 20.5 8.44437C21.8153 8.44437 23.0768 8.96688 24.0068 9.89695C24.9369 10.827 25.4594 12.0885 25.4594 13.4038C25.4594 14.7191 24.9369 15.9806 24.0068 16.9106ZM7.90625 29.7481C7.90625 29.7481 7.90978 29.6457 8.01321 29.429C8.11328 29.2195 8.28379 28.9521 8.5459 28.6422C9.07081 28.0217 9.89269 27.314 11.0056 26.6448C13.2239 25.3107 16.4805 24.2012 20.5 24.2012C24.7072 24.2012 27.963 25.21 30.1196 26.4726C31.2008 27.1056 31.976 27.7846 32.4651 28.4015C32.9678 29.0357 33.0938 29.5045 33.0938 29.7481V32.5569H7.90625V29.7481Z" stroke="white" stroke-width="3"/>
</svg>
