<svg width="18" height="18" viewBox="0 0 18 18" fill="none" xmlns="http://www.w3.org/2000/svg">
<g clip-path="url(#clip0_12_119)">
<path d="M9 0C9.49707 0 9.9 0.402948 9.9 0.9V0.949437C13.6544 1.36447 16.6355 4.34554 17.0506 8.1H17.1C17.5971 8.1 18 8.50293 18 9C18 9.49707 17.5971 9.9 17.1 9.9H17.0506C16.6355 13.6544 13.6544 16.6355 9.9 17.0506V17.1C9.9 17.5971 9.49707 18 9 18C8.50293 18 8.1 17.5971 8.1 17.1V17.0506C4.34554 16.6355 1.36447 13.6544 0.949437 9.9H0.9C0.402948 9.9 0 9.49707 0 9C0 8.50293 0.402948 8.1 0.9 8.1H0.949437C1.36447 4.34554 4.34554 1.36447 8.1 0.949437V0.9C8.1 0.402948 8.50293 0 9 0ZM9.9 2.7638V3.6C9.9 4.09705 9.49707 4.5 9 4.5C8.53843 4.5 8.15804 4.15256 8.10605 3.70496L8.1 3.6V2.7638C5.41752 3.1475 3.28015 5.22101 2.8008 7.87143L2.7638 8.1H3.6C4.09705 8.1 4.5 8.50293 4.5 9C4.5 9.46157 4.15256 9.84196 3.70496 9.89395L3.6 9.9H2.7638C3.1475 12.5825 5.22101 14.7198 7.87143 15.1992L8.1 15.2362V14.4C8.1 13.9029 8.50293 13.5 9 13.5C9.46157 13.5 9.84196 13.8474 9.89395 14.295L9.9 14.4V15.2362C12.5825 14.8525 14.7198 12.779 15.1992 10.1286L15.2362 9.9H14.4C13.9029 9.9 13.5 9.49707 13.5 9C13.5 8.53843 13.8474 8.15804 14.295 8.10605L14.4 8.1H15.2362C14.8525 5.41752 12.779 3.28015 10.1286 2.8008L9.9 2.7638ZM9 7.65C9.74556 7.65 10.35 8.25444 10.35 9C10.35 9.74556 9.74556 10.35 9 10.35C8.25444 10.35 7.65 9.74556 7.65 9C7.65 8.25444 8.25444 7.65 9 7.65Z" fill="white"/>
</g>
<defs>
<clipPath id="clip0_12_119">
<rect width="18" height="18" fill="white"/>
</clipPath>
</defs>
</svg>
