<svg width="25" height="25" viewBox="0 0 25 25" fill="none" xmlns="http://www.w3.org/2000/svg">
<path fill-rule="evenodd" clip-rule="evenodd" d="M20.9992 6.95846C21.0087 7.565 20.9333 8.32649 20.8658 8.8807C20.8395 9.09686 20.8037 9.27676 20.7653 9.42453C21.6227 11.01 22 12.9174 22 15C22 17.4684 20.8127 19.501 18.9638 20.8871C17.1319 22.2605 14.6606 23 12 23C9.33939 23 6.86809 22.2605 5.0362 20.8871C3.18727 19.501 2 17.4684 2 15C2 12.9174 2.37732 11.01 3.23472 9.42452C3.19631 9.27676 3.16055 9.09685 3.13422 8.8807C3.06673 8.32649 2.99133 7.565 3.00081 6.95846C3.01149 6.27506 3.10082 5.5917 3.19988 4.91379C3.24569 4.60028 3.31843 4.30547 3.65883 4.11917C4.00655 3.92886 4.37274 3.99981 4.73398 4.1021C5.95247 4.44713 7.09487 4.93108 8.16803 5.51287C9.2995 5.17287 10.5783 5 12 5C13.4217 5 14.7005 5.17287 15.832 5.51287C16.9051 4.93108 18.0475 4.44713 19.266 4.1021C19.6273 3.99981 19.9935 3.92886 20.3412 4.11917C20.6816 4.30547 20.7543 4.60028 20.8001 4.91379C20.8992 5.5917 20.9885 6.27506 20.9992 6.95846ZM20 15C20 13.3128 19.6122 11 17.5 11C16.5478 11 15.6474 11.2502 14.7474 11.5004C13.8482 11.7502 12.9495 12 12 12C11.0505 12 10.1518 11.7502 9.25263 11.5004C8.35261 11.2502 7.45216 11 6.5 11C4.39379 11 4 13.3197 4 15C4 16.7636 4.82745 18.231 6.23588 19.2869C7.66135 20.3556 9.69005 21 12 21C14.3099 21 16.3386 20.3555 17.7641 19.2869C19.1726 18.231 20 16.7636 20 15ZM10 15.5C10 16.8807 9.32843 18 8.5 18C7.67157 18 7 16.8807 7 15.5C7 14.1193 7.67157 13 8.5 13C9.32843 13 10 14.1193 10 15.5ZM15.5 18C16.3284 18 17 16.8807 17 15.5C17 14.1193 16.3284 13 15.5 13C14.6716 13 14 14.1193 14 15.5C14 16.8807 14.6716 18 15.5 18Z" fill="white"/>
</svg>
