<svg width="21" height="21" viewBox="0 0 21 21" fill="none" xmlns="http://www.w3.org/2000/svg">
<path d="M3.5 17.5H9.57539M9.57539 17.5H9.67461M9.57539 17.5C9.59193 17.5002 9.60846 17.5002 9.625 17.5002C9.64154 17.5002 9.65807 17.5002 9.67461 17.5M9.57539 17.5C6.21548 17.4733 3.5 14.7409 3.5 11.3748V7.80749C3.5 7.36142 3.86142 7 4.30749 7H14.9421C15.3882 7 15.75 7.36142 15.75 7.80749V7.875M9.67461 17.5H15.75M9.67461 17.5C13.0345 17.4733 15.75 14.7409 15.75 11.3748M15.75 7.875H17.0625C18.2706 7.875 19.25 8.85439 19.25 10.0625C19.25 11.2706 18.2706 12.25 17.0625 12.25H15.75V11.3748M15.75 7.875V11.3748M13.125 2.625L12.25 4.375M10.5 2.625L9.625 4.375M7.875 2.625L7 4.375" stroke="white" stroke-width="2" stroke-linecap="round" stroke-linejoin="round"/>
</svg>
