<svg width="18" height="17" viewBox="0 0 18 17" fill="none" xmlns="http://www.w3.org/2000/svg">
<g clip-path="url(#clip0_12_49)">
<path d="M13.3483 2.32055H4.49874C3.67216 2.32055 3.00208 2.99063 3.00208 3.81721V12.6668C3.00208 13.4934 3.67216 14.1634 4.49874 14.1634H13.3483C14.1749 14.1634 14.845 13.4934 14.845 12.6668V3.81721C14.845 2.99063 14.1749 2.32055 13.3483 2.32055Z" stroke="white" stroke-width="2" stroke-miterlimit="10"/>
<path d="M10.8905 4.95001H6.94976C6.22175 4.95001 5.63159 5.54017 5.63159 6.26818V10.2089C5.63159 10.9369 6.22175 11.5271 6.94976 11.5271H10.8905C11.6185 11.5271 12.2087 10.9369 12.2087 10.2089V6.26818C12.2087 5.54017 11.6185 4.95001 10.8905 4.95001Z" stroke="white" stroke-width="2" stroke-miterlimit="10"/>
<path d="M5.63159 0.3433V1.66146" stroke="white" stroke-width="2" stroke-miterlimit="10"/>
<path d="M8.9201 0.3433V1.66146" stroke="white" stroke-width="2" stroke-miterlimit="10"/>
<path d="M12.2087 0.3433V1.66146" stroke="white" stroke-width="2" stroke-miterlimit="10"/>
<path d="M5.63159 14.8157V16.1338" stroke="white" stroke-width="2" stroke-miterlimit="10"/>
<path d="M8.9201 14.8157V16.1338" stroke="white" stroke-width="2" stroke-miterlimit="10"/>
<path d="M12.2087 14.8157V16.1338" stroke="white" stroke-width="2" stroke-miterlimit="10"/>
<path d="M1.02484 11.5271H2.34301" stroke="white" stroke-width="2" stroke-miterlimit="10"/>
<path d="M1.02484 8.23856H2.34301" stroke="white" stroke-width="2" stroke-miterlimit="10"/>
<path d="M1.02484 4.95001H2.34301" stroke="white" stroke-width="2" stroke-miterlimit="10"/>
<path d="M15.4972 11.5271H16.8154" stroke="white" stroke-width="2" stroke-miterlimit="10"/>
<path d="M15.4972 8.23856H16.8154" stroke="white" stroke-width="2" stroke-miterlimit="10"/>
<path d="M15.4972 4.95001H16.8154" stroke="white" stroke-width="2" stroke-miterlimit="10"/>
</g>
<defs>
<clipPath id="clip0_12_49">
<rect width="16.4771" height="16.4771" fill="white" transform="translate(0.68158 3.05176e-05)"/>
</clipPath>
</defs>
</svg>
