<svg width="17" height="17" viewBox="0 0 17 17" fill="none" xmlns="http://www.w3.org/2000/svg">
<path fill-rule="evenodd" clip-rule="evenodd" d="M3.5974 3.59048C6.28576 0.905909 10.656 0.934455 13.3607 3.63926C16.0667 6.34523 16.0941 10.718 13.4061 13.4061C10.7179 16.0941 6.3452 16.0667 3.63923 13.3607C2.03567 11.7572 1.37349 9.56951 1.65783 7.49502C1.69768 7.20432 1.96562 7.001 2.2563 7.04085C2.54699 7.08069 2.75033 7.3486 2.71049 7.6393C2.46967 9.39618 3.03012 11.249 4.39053 12.6095C6.68871 14.9077 10.3887 14.9208 12.6547 12.6547C14.9208 10.3887 14.9076 6.68874 12.6094 4.39056C10.3124 2.09356 6.61505 2.07923 4.34871 4.34178L4.87833 4.34444C5.17173 4.34592 5.40837 4.58496 5.4069 4.87836C5.40543 5.17175 5.16638 5.4084 4.87299 5.40693L3.06989 5.39787C2.77857 5.3964 2.54278 5.16061 2.54132 4.8693L2.53226 3.06619C2.53078 2.7728 2.76743 2.53376 3.06083 2.53228C3.35423 2.5308 3.59327 2.76746 3.59474 3.06086L3.5974 3.59048Z" fill="white"/>
<path d="M8.5 5.13541C8.79339 5.13541 9.03125 5.37327 9.03125 5.66666V8.27992L10.6465 9.8952C10.8539 10.1027 10.8539 10.439 10.6465 10.6465C10.439 10.8539 10.1027 10.8539 9.8952 10.6465L8.17622 8.92755C8.04341 8.79466 7.96875 8.61454 7.96875 8.42661V5.66666C7.96875 5.37327 8.20661 5.13541 8.5 5.13541Z" fill="white"/>
</svg>
