<svg width="14" height="14" viewBox="0 0 14 14" fill="none" xmlns="http://www.w3.org/2000/svg">
<g clip-path="url(#clip0_12_94)">
<path d="M7 14C3.15 14 0 10.85 0 7C0 3.15 3.15 0 7 0C10.85 0 14 3.15 14 7C14 10.85 10.85 14 7 14ZM7 1.16667C3.79167 1.16667 1.16667 3.79167 1.16667 7C1.16667 10.2083 3.79167 12.8333 7 12.8333C10.2083 12.8333 12.8333 10.2083 12.8333 7C12.8333 3.79167 10.2083 1.16667 7 1.16667Z" fill="white"/>
<path d="M12.8334 9.33334H1.16669V10.5H12.8334V9.33334Z" fill="white"/>
<path d="M6.99998 10.5C6.88331 10.5 6.82498 10.5 6.70831 10.4417C6.41664 10.2667 6.35831 9.91667 6.47498 9.625L9.39164 4.55C9.56664 4.25833 9.91664 4.2 10.2083 4.31667C10.5 4.49167 10.5583 4.84167 10.4416 5.13333L7.52497 10.2083C7.40831 10.3833 7.17497 10.5 6.99998 10.5Z" fill="white"/>
</g>
<defs>
<clipPath id="clip0_12_94">
<rect width="14" height="14" fill="white"/>
</clipPath>
</defs>
</svg>
