<svg width="18" height="18" viewBox="0 0 18 18" fill="none" xmlns="http://www.w3.org/2000/svg">
<g clip-path="url(#clip0_12_130)">
<path d="M17.4 9C17.4 13.6392 13.7063 17.4 9.15002 17.4C4.59368 17.4 0.900024 13.6392 0.900024 9C0.900024 4.36081 4.59368 0.599998 9.15002 0.599998C13.7063 0.599998 17.4 4.36081 17.4 9ZM2.40515 9C2.40515 12.7928 5.42493 15.8675 9.15002 15.8675C12.8751 15.8675 15.8949 12.7928 15.8949 9C15.8949 5.20718 12.8751 2.13249 9.15002 2.13249C5.42493 2.13249 2.40515 5.20718 2.40515 9Z" fill="white"/>
<path d="M9 3.75C8.58578 3.75 8.25 4.08578 8.25 4.5V9.35002C8.25 9.35002 8.25 9.54555 8.34503 9.69263C8.40863 9.81735 8.50777 9.92573 8.63805 10.001L12.1029 12.0014C12.4616 12.2085 12.9203 12.0856 13.1274 11.7269C13.3345 11.3681 13.2116 10.9094 12.8529 10.7024L9.75 8.9109V4.5C9.75 4.08579 9.41422 3.75 9 3.75Z" fill="white"/>
</g>
<defs>
<clipPath id="clip0_12_130">
<rect width="18" height="18" fill="white"/>
</clipPath>
</defs>
</svg>
