<svg width="21" height="21" viewBox="0 0 21 21" fill="none" xmlns="http://www.w3.org/2000/svg">
<path fill-rule="evenodd" clip-rule="evenodd" d="M17.31 3.4285C17.6149 3.35622 17.8275 3.28516 18.0017 3.21053C18.2459 3.10594 18.4482 2.98064 18.7681 2.76961C19.0368 2.59226 19.3812 2.57682 19.6647 2.7294C19.9482 2.88198 20.125 3.17794 20.125 3.49991C20.125 4.44572 20.0071 5.22092 19.7343 5.90313C19.5047 6.47696 19.1822 6.94304 18.7964 7.36725C18.6335 10.31 17.7817 12.6209 16.4794 14.3717C15.1296 16.1864 13.3338 17.3485 11.4407 17.9993C9.55317 18.6481 7.55881 18.7931 5.77212 18.5734C3.99715 18.3552 2.35642 17.7675 1.2128 16.8781C0.89962 16.6345 0.78953 16.2106 0.944577 15.8454C1.09963 15.4802 1.481 15.265 1.87377 15.3212C2.99899 15.4819 4.08214 15.2261 4.97281 14.8603C4.79747 14.765 4.63216 14.6617 4.4785 14.5553C3.66691 13.9935 3.01211 13.2307 2.71738 12.6412C2.59541 12.3974 2.59415 12.1105 2.71398 11.8656C2.77579 11.7391 2.86617 11.6314 2.97592 11.5492C1.79093 10.5713 1.3125 9.21859 1.3125 8.31241C1.3125 8.04296 1.43664 7.78853 1.64902 7.62272C1.73832 7.553 1.83904 7.50221 1.9452 7.47162C1.85653 7.21197 1.78772 6.94964 1.73527 6.69567C1.50272 5.56967 1.52336 4.29876 1.77612 3.28769C1.86262 2.9417 2.15044 2.68283 2.50363 2.63336C2.85682 2.58389 3.20469 2.75373 3.38291 3.06265C4.32573 4.69687 6.06477 5.69578 7.68326 6.2875C8.44419 6.5657 9.14892 6.74297 9.67716 6.85196C9.79117 5.78394 10.0894 4.90318 10.5471 4.20362C11.1509 3.28068 11.9931 2.73462 12.8975 2.49114C14.4574 2.07122 16.1882 2.54962 17.31 3.4285ZM9.40486 8.58242C8.80539 8.46204 7.9815 8.25982 7.08236 7.9311C5.89479 7.49693 4.51578 6.81994 3.36064 5.77127C3.38131 5.96425 3.41066 6.15558 3.44911 6.34173C3.6427 7.27914 4.00243 7.80414 4.32881 7.96733C4.728 8.16693 4.91299 8.63497 4.75814 9.05357C4.54849 9.6203 3.99708 9.66677 3.49608 9.54155C3.89903 10.1457 4.6233 10.748 5.83135 10.9493C6.248 11.0188 6.55558 11.376 6.56238 11.7984C6.5692 12.2207 6.27331 12.5876 5.8591 12.6705L5.09745 12.8228C5.21396 12.924 5.34013 13.0234 5.47462 13.1165C6.08442 13.5386 6.6967 13.7207 7.22528 13.5886C7.62118 13.4896 8.03292 13.6774 8.21768 14.0413C8.40244 14.4052 8.31116 14.8484 7.99766 15.1096C7.43423 15.5786 6.77622 15.955 6.11675 16.2672C5.80716 16.4139 5.46118 16.5586 5.08542 16.686C5.37441 16.7477 5.67513 16.7983 5.98569 16.8365C7.53495 17.027 9.25934 16.8986 10.8718 16.3443C12.4787 15.7919 13.964 14.8212 15.0753 13.3273C16.1849 11.8355 16.9593 9.77089 17.0631 6.96757C17.0713 6.74686 17.1626 6.53741 17.3188 6.38124C17.7122 5.98779 18.0373 5.53683 18.1973 5.00004C17.9174 5.0873 17.6022 5.16283 17.2268 5.2346C16.942 5.28904 16.6488 5.19889 16.4438 4.99389C15.7749 4.32493 14.4519 3.88501 13.3524 4.18097C12.835 4.32026 12.3647 4.6218 12.0115 5.16171C11.6509 5.71294 11.375 6.57167 11.375 7.87494C11.375 8.12255 11.2701 8.35855 11.0863 8.52446C10.6506 8.91777 9.91726 8.6853 9.40486 8.58242Z" fill="white"/>
</svg>
