<svg width="17" height="18" viewBox="0 0 17 18" fill="none" xmlns="http://www.w3.org/2000/svg">
<g clip-path="url(#clip0_12_114)">
<path d="M8.49998 0.600001C6.93092 0.600001 5.39709 1.10145 4.09246 2.04094C2.78783 2.98042 1.771 4.31575 1.17054 5.87806C0.570088 7.44036 0.412981 9.15948 0.719091 10.818C1.0252 12.4766 1.78078 14 2.89027 15.1958C3.99977 16.3915 5.41335 17.2058 6.95227 17.5357C8.49118 17.8656 10.0863 17.6963 11.5359 17.0492C12.9856 16.402 14.2246 15.3062 15.0963 13.9001C15.968 12.4941 16.4333 10.841 16.4333 9.15C16.4342 8.02694 16.2296 6.91471 15.8312 5.87696C15.4328 4.83921 14.8485 3.8963 14.1116 3.10217C13.3748 2.30805 12.4999 1.67829 11.537 1.24895C10.5741 0.819596 9.54205 0.599075 8.49998 0.600001ZM8.49998 15.6882C7.30011 15.6882 6.12718 15.3048 5.12953 14.5863C4.13187 13.8679 3.35429 12.8468 2.89512 11.6521C2.43595 10.4574 2.31581 9.14275 2.54989 7.87445C2.78397 6.60616 3.36177 5.44116 4.2102 4.52677C5.05864 3.61238 6.13962 2.98968 7.31644 2.7374C8.49325 2.48512 9.71306 2.6146 10.8216 3.10946C11.9301 3.60432 12.8776 4.44234 13.5442 5.51755C14.2108 6.59276 14.5666 7.85686 14.5666 9.15C14.5682 10.0091 14.4124 10.8601 14.1081 11.6541C13.8038 12.4481 13.357 13.1696 12.7933 13.7771C12.2297 14.3845 11.5602 14.8661 10.8235 15.194C10.0867 15.522 9.29712 15.69 8.49998 15.6882Z" fill="white"/>
<path d="M10.9225 6.66C10.8457 6.57472 10.7534 6.50683 10.6512 6.46044C10.5489 6.41406 10.4388 6.39014 10.3275 6.39014C10.2162 6.39014 10.1061 6.41406 10.0039 6.46044C9.90159 6.50683 9.80927 6.57472 9.73251 6.66L8.50001 7.965L7.31001 6.705C7.15166 6.54069 6.93847 6.44919 6.71677 6.45038C6.49506 6.45156 6.28276 6.54534 6.12599 6.71133C5.96922 6.87733 5.88065 7.10212 5.87953 7.33687C5.87841 7.57161 5.96483 7.79734 6.12001 7.965L7.31001 9.225L6.12001 10.485C5.96483 10.6527 5.87841 10.8784 5.87953 11.1131C5.88065 11.3479 5.96922 11.5727 6.12599 11.7387C6.28276 11.9047 6.49506 11.9984 6.71677 11.9996C6.93847 12.0008 7.15166 11.9093 7.31001 11.745L8.50001 10.485L9.69001 11.745C9.84835 11.9093 10.0615 12.0008 10.2832 11.9996C10.505 11.9984 10.7173 11.9047 10.874 11.7387C11.0308 11.5727 11.1194 11.3479 11.1205 11.1131C11.1216 10.8784 11.0352 10.6527 10.88 10.485L9.69001 9.225L10.88 7.965C11.0394 7.79219 11.1321 7.56261 11.1399 7.32122C11.1478 7.07983 11.0703 6.84403 10.9225 6.66Z" fill="white"/>
</g>
<defs>
<clipPath id="clip0_12_114">
<rect width="17" height="18" fill="white"/>
</clipPath>
</defs>
</svg>
