<svg width="84" height="15" viewBox="0 0 84 15" fill="none" xmlns="http://www.w3.org/2000/svg">
<path d="M6.67871 5.69531C6.67871 5.80013 6.6696 5.90267 6.65137 6.00293C6.63314 6.10319 6.62402 6.20573 6.62402 6.31055C6.53743 6.34701 6.47135 6.40397 6.42578 6.48145C6.38477 6.55892 6.3278 6.62272 6.25488 6.67285H6.13184C5.986 6.67285 5.84017 6.66602 5.69434 6.65234C5.5485 6.63867 5.40495 6.61361 5.26367 6.57715C5.19076 6.5179 5.13835 6.42676 5.10645 6.30371C5.07454 6.17611 5.05176 6.03483 5.03809 5.87988C5.02441 5.72038 5.01302 5.55404 5.00391 5.38086C4.99935 5.20768 4.98112 5.04362 4.94922 4.88867C4.92188 4.73372 4.8763 4.59701 4.8125 4.47852C4.75326 4.36003 4.66211 4.27572 4.53906 4.22559C4.46159 4.25293 4.38184 4.2666 4.2998 4.2666C4.18587 4.2666 4.07194 4.25065 3.95801 4.21875C3.84863 4.18685 3.73698 4.1709 3.62305 4.1709C3.49544 4.1709 3.35872 4.2347 3.21289 4.3623C3.06706 4.48991 2.92806 4.64258 2.7959 4.82031C2.66829 4.99349 2.55664 5.1735 2.46094 5.36035C2.36523 5.54264 2.30599 5.69076 2.2832 5.80469C2.26953 5.86393 2.26497 5.9209 2.26953 5.97559C2.27865 6.03027 2.2832 6.08496 2.2832 6.13965C2.2832 6.19434 2.27409 6.24902 2.25586 6.30371C2.24219 6.35384 2.22624 6.40397 2.20801 6.4541C2.19434 6.49967 2.17839 6.54753 2.16016 6.59766C2.14648 6.64323 2.13965 6.69108 2.13965 6.74121C2.13965 6.8278 2.14876 6.91439 2.16699 7.00098C2.18978 7.08301 2.20117 7.1696 2.20117 7.26074C2.20117 7.33822 2.18978 7.41341 2.16699 7.48633C2.14876 7.55924 2.13965 7.639 2.13965 7.72559C2.13965 7.80306 2.15332 7.88281 2.18066 7.96484C2.20801 8.04232 2.22852 8.11979 2.24219 8.19727C2.25586 8.27474 2.26725 8.35449 2.27637 8.43652C2.29004 8.51855 2.31055 8.59831 2.33789 8.67578C2.36523 8.7487 2.40169 8.81478 2.44727 8.87402C2.4974 8.93327 2.56348 8.97884 2.64551 9.01074L2.63184 9.05176C2.63184 9.12012 2.68424 9.19531 2.78906 9.27734C2.89844 9.35938 3.02376 9.43685 3.16504 9.50977C3.31087 9.57812 3.45215 9.63737 3.58887 9.6875C3.73014 9.73307 3.83496 9.75586 3.90332 9.75586C3.98079 9.75586 4.05143 9.74902 4.11523 9.73535C4.18359 9.71712 4.24967 9.68522 4.31348 9.63965L4.35449 9.55762H4.49121C4.53678 9.5166 4.57096 9.46875 4.59375 9.41406C4.61654 9.35938 4.64388 9.30241 4.67578 9.24316C4.70768 9.17936 4.7487 9.11328 4.79883 9.04492C4.85352 8.97656 4.93327 8.90592 5.03809 8.83301C5.0472 8.76465 5.06543 8.70085 5.09277 8.6416C5.12467 8.58236 5.15658 8.52539 5.18848 8.4707C5.22038 8.41146 5.25 8.35449 5.27734 8.2998C5.30924 8.24056 5.33203 8.17904 5.3457 8.11523C5.44596 8.08789 5.54167 8.05827 5.63281 8.02637C5.72852 7.99447 5.8151 7.94889 5.89258 7.88965C5.9974 7.92155 6.10221 7.95801 6.20703 7.99902C6.31185 8.04004 6.41667 8.07878 6.52148 8.11523C6.63542 8.28385 6.69238 8.47982 6.69238 8.70312C6.69238 8.78971 6.68555 8.87402 6.67188 8.95605C6.66276 9.03809 6.64681 9.11784 6.62402 9.19531C6.59668 9.27279 6.55794 9.34342 6.50781 9.40723C6.46224 9.46647 6.42122 9.53027 6.38477 9.59863C6.34375 9.71257 6.30729 9.82422 6.27539 9.93359C6.24805 10.0384 6.19564 10.1364 6.11816 10.2275C6.04525 10.3187 5.96322 10.4007 5.87207 10.4736C5.78092 10.542 5.71257 10.6286 5.66699 10.7334C5.58496 10.7425 5.50977 10.763 5.44141 10.7949C5.37305 10.8268 5.30469 10.8633 5.23633 10.9043C5.17253 10.9408 5.10645 10.9772 5.03809 11.0137C4.96973 11.0501 4.89681 11.0775 4.81934 11.0957C4.75553 11.1094 4.69173 11.1162 4.62793 11.1162C4.56868 11.1162 4.50944 11.123 4.4502 11.1367C4.35905 11.1595 4.2793 11.1914 4.21094 11.2324C4.14258 11.2734 4.06055 11.2939 3.96484 11.2939C3.91016 11.2939 3.86686 11.2871 3.83496 11.2734C3.80762 11.2643 3.78255 11.2529 3.75977 11.2393C3.73698 11.2256 3.71647 11.2119 3.69824 11.1982C3.68457 11.1891 3.66406 11.1846 3.63672 11.1846C3.56836 11.1846 3.50228 11.1982 3.43848 11.2256C3.37467 11.2529 3.30632 11.2712 3.2334 11.2803C3.10579 11.2256 2.98958 11.1732 2.88477 11.123C2.77995 11.0775 2.65462 11.0501 2.50879 11.041C2.44954 10.9635 2.37207 10.9111 2.27637 10.8838C2.18522 10.8519 2.09863 10.8291 2.0166 10.8154C1.99382 10.7835 1.96419 10.7539 1.92773 10.7266C1.89583 10.6992 1.86165 10.6742 1.8252 10.6514C1.79329 10.624 1.76139 10.5944 1.72949 10.5625C1.69759 10.5306 1.67253 10.4941 1.6543 10.4531C1.63151 10.4167 1.61556 10.3802 1.60645 10.3438C1.60189 10.3027 1.58366 10.264 1.55176 10.2275C1.5153 10.1729 1.47428 10.1296 1.42871 10.0977C1.3877 10.0612 1.34896 10.0247 1.3125 9.98828C1.2806 9.95182 1.25326 9.90853 1.23047 9.8584C1.20768 9.80371 1.19857 9.73079 1.20312 9.63965C1.16667 9.60775 1.11882 9.54167 1.05957 9.44141C1.00488 9.34115 0.950195 9.23633 0.895508 9.12695C0.84082 9.01302 0.79069 8.90365 0.745117 8.79883C0.699544 8.69401 0.669922 8.61654 0.65625 8.56641C0.633464 8.5026 0.624349 8.43652 0.628906 8.36816C0.633464 8.2998 0.628906 8.22917 0.615234 8.15625C0.597005 8.09701 0.578776 8.05143 0.560547 8.01953C0.542318 7.98307 0.526367 7.94889 0.512695 7.91699C0.499023 7.88509 0.48763 7.84863 0.478516 7.80762C0.469401 7.7666 0.464844 7.70964 0.464844 7.63672C0.464844 7.51823 0.476237 7.39974 0.499023 7.28125C0.526367 7.1582 0.55599 7.03743 0.587891 6.91895C0.619792 6.80046 0.647135 6.6888 0.669922 6.58398C0.697266 6.47461 0.710938 6.37435 0.710938 6.2832C0.710938 6.22396 0.701823 6.17155 0.683594 6.12598C0.665365 6.07585 0.642578 6.03027 0.615234 5.98926C0.651693 5.92546 0.674479 5.86165 0.683594 5.79785C0.692708 5.73405 0.697266 5.67025 0.697266 5.60645C0.701823 5.53809 0.704102 5.47201 0.704102 5.4082C0.708659 5.3444 0.722331 5.2806 0.745117 5.2168C0.781576 5.13477 0.831706 5.06185 0.895508 4.99805C0.963867 4.92969 1.02083 4.85449 1.06641 4.77246C1.10286 4.69954 1.11882 4.62435 1.11426 4.54688C1.1097 4.4694 1.12109 4.39421 1.14844 4.32129C1.17578 4.25293 1.20996 4.19141 1.25098 4.13672C1.29655 4.08203 1.33984 4.02734 1.38086 3.97266C1.42643 3.91341 1.46517 3.85417 1.49707 3.79492C1.52897 3.73568 1.5472 3.6696 1.55176 3.59668C1.66113 3.56934 1.76139 3.5306 1.85254 3.48047C1.94368 3.43034 2.03027 3.37565 2.1123 3.31641C2.19434 3.2526 2.27409 3.18652 2.35156 3.11816C2.43359 3.0498 2.5179 2.98372 2.60449 2.91992H2.65918C2.70931 2.91992 2.76172 2.91081 2.81641 2.89258C2.87109 2.87435 2.92578 2.85384 2.98047 2.83105C3.03516 2.80827 3.08984 2.78776 3.14453 2.76953C3.19922 2.7513 3.25163 2.74219 3.30176 2.74219C3.38835 2.74219 3.47266 2.75358 3.55469 2.77637C3.64128 2.79915 3.73014 2.8151 3.82129 2.82422C3.92611 2.83789 4.03092 2.84245 4.13574 2.83789C4.24512 2.82878 4.35449 2.82422 4.46387 2.82422C4.57324 2.82422 4.67122 2.84017 4.75781 2.87207C4.84896 2.90397 4.93327 2.93815 5.01074 2.97461C5.09277 3.01107 5.17253 3.04525 5.25 3.07715C5.32747 3.10449 5.40723 3.11361 5.48926 3.10449C5.52116 3.15918 5.56217 3.20703 5.6123 3.24805C5.66243 3.28906 5.71484 3.33008 5.76953 3.37109C5.82422 3.40755 5.87891 3.44857 5.93359 3.49414C5.98828 3.53971 6.03613 3.59212 6.07715 3.65137C6.11816 3.71517 6.14779 3.79264 6.16602 3.88379C6.18424 3.97493 6.21387 4.05924 6.25488 4.13672C6.31868 4.18685 6.37565 4.28255 6.42578 4.42383C6.48047 4.56055 6.52604 4.71094 6.5625 4.875C6.59896 5.03906 6.6263 5.19857 6.64453 5.35352C6.66732 5.50391 6.67871 5.61784 6.67871 5.69531ZM14.499 6.87109C14.499 7.03971 14.4854 7.19466 14.458 7.33594C14.4352 7.47266 14.4124 7.62077 14.3896 7.78027C14.376 7.88053 14.3691 7.97852 14.3691 8.07422C14.3737 8.16992 14.3646 8.2679 14.3418 8.36816C14.319 8.44564 14.2871 8.52083 14.2461 8.59375C14.2051 8.66211 14.1618 8.73047 14.1162 8.79883C14.0706 8.86719 14.0251 8.93783 13.9795 9.01074C13.9385 9.0791 13.9066 9.14974 13.8838 9.22266C13.8656 9.2819 13.8519 9.34342 13.8428 9.40723C13.8382 9.47103 13.8291 9.53483 13.8154 9.59863C13.8018 9.66243 13.7835 9.72396 13.7607 9.7832C13.738 9.84245 13.7038 9.89714 13.6582 9.94727C13.6309 9.98372 13.5944 10.0133 13.5488 10.0361C13.5078 10.0544 13.4691 10.0817 13.4326 10.1182C13.3962 10.1592 13.3734 10.207 13.3643 10.2617C13.3551 10.3118 13.3369 10.3574 13.3096 10.3984H13.2139C13.1911 10.4212 13.1774 10.4486 13.1729 10.4805C13.1683 10.5124 13.1523 10.5465 13.125 10.583C13.0703 10.6377 12.9883 10.6992 12.8789 10.7676C12.7695 10.8359 12.6465 10.9043 12.5098 10.9727C12.373 11.041 12.2272 11.1071 12.0723 11.1709C11.9173 11.2347 11.7669 11.2917 11.6211 11.3418C11.4798 11.3919 11.3454 11.4307 11.2178 11.458C11.0947 11.4899 10.9945 11.5059 10.917 11.5059C10.8577 11.5059 10.8145 11.499 10.7871 11.4854C10.7643 11.4762 10.7461 11.4626 10.7324 11.4443C10.7188 11.4307 10.7051 11.417 10.6914 11.4033C10.6777 11.3942 10.6504 11.3896 10.6094 11.3896C10.5501 11.3896 10.4932 11.3965 10.4385 11.4102C10.3838 11.4238 10.3291 11.4307 10.2744 11.4307C10.2015 11.4307 10.1331 11.4079 10.0693 11.3623C10.0101 11.3213 9.94629 11.2757 9.87793 11.2256C9.80957 11.1755 9.7321 11.1276 9.64551 11.082C9.55892 11.041 9.4541 11.0228 9.33105 11.0273C9.31283 11.0046 9.28776 10.9727 9.25586 10.9316C9.22852 10.8861 9.19889 10.8405 9.16699 10.7949C9.13965 10.7493 9.11003 10.7083 9.07812 10.6719C9.05078 10.6309 9.02799 10.6012 9.00977 10.583C8.97331 10.5465 8.93001 10.5238 8.87988 10.5146C8.83431 10.501 8.78874 10.4759 8.74316 10.4395C8.72038 10.4258 8.70443 10.4053 8.69531 10.3779C8.69076 10.3506 8.6748 10.3255 8.64746 10.3027C8.62467 10.2891 8.60189 10.2845 8.5791 10.2891C8.55632 10.2891 8.53809 10.2777 8.52441 10.2549C8.50618 10.2412 8.49023 10.2184 8.47656 10.1865C8.46745 10.1546 8.45605 10.1227 8.44238 10.0908C8.42871 10.0544 8.41048 10.0225 8.3877 9.99512C8.36947 9.96777 8.33984 9.95182 8.29883 9.94727C8.29883 9.87891 8.2806 9.81738 8.24414 9.7627C8.20768 9.70345 8.17806 9.64421 8.15527 9.58496C8.13249 9.52116 8.11654 9.45964 8.10742 9.40039C8.10286 9.33659 8.08691 9.27734 8.05957 9.22266C8.03678 9.16797 8.00944 9.12012 7.97754 9.0791C7.94564 9.03809 7.91374 8.99935 7.88184 8.96289C7.85449 8.92643 7.82943 8.88542 7.80664 8.83984C7.78841 8.78971 7.7793 8.73047 7.7793 8.66211C7.7793 8.56185 7.78841 8.46387 7.80664 8.36816C7.82487 8.27246 7.83398 8.17448 7.83398 8.07422C7.83398 7.9694 7.81803 7.86458 7.78613 7.75977C7.75423 7.65495 7.73828 7.54557 7.73828 7.43164C7.73828 7.21745 7.76335 7.00781 7.81348 6.80273C7.86361 6.5931 7.88867 6.38118 7.88867 6.16699C7.88867 6.07585 7.87728 5.98926 7.85449 5.90723C7.83171 5.82064 7.82031 5.73177 7.82031 5.64062C7.82031 5.57682 7.83171 5.51302 7.85449 5.44922C7.87728 5.38542 7.91829 5.33073 7.97754 5.28516C7.98665 5.27148 7.98893 5.25553 7.98438 5.2373C7.97982 5.21908 7.97754 5.20312 7.97754 5.18945C7.97754 5.17578 7.98438 5.14844 7.99805 5.10742C8.01172 5.06641 8.02539 5.02311 8.03906 4.97754C8.05729 4.92741 8.07324 4.87728 8.08691 4.82715C8.10059 4.77702 8.1097 4.73828 8.11426 4.71094C8.11882 4.66536 8.12793 4.62891 8.1416 4.60156C8.15983 4.57422 8.18034 4.55143 8.20312 4.5332C8.23047 4.51042 8.25553 4.48991 8.27832 4.47168C8.30111 4.44889 8.32161 4.42155 8.33984 4.38965C8.3763 4.32585 8.38997 4.25977 8.38086 4.19141C8.37174 4.11849 8.38542 4.05013 8.42188 3.98633L8.52441 3.94531C8.55632 3.8724 8.58138 3.82227 8.59961 3.79492C8.61784 3.76758 8.63379 3.74935 8.64746 3.74023C8.66113 3.72656 8.6748 3.71745 8.68848 3.71289C8.70215 3.70833 8.72038 3.69238 8.74316 3.66504C8.75684 3.65137 8.76367 3.63314 8.76367 3.61035C8.76367 3.58301 8.77051 3.55794 8.78418 3.53516C8.80697 3.4987 8.84342 3.46908 8.89355 3.44629C8.94368 3.4235 8.98242 3.39388 9.00977 3.35742C9.03711 3.32096 9.05762 3.28223 9.07129 3.24121C9.08952 3.19564 9.11686 3.15918 9.15332 3.13184C9.19434 3.09082 9.2513 3.05892 9.32422 3.03613C9.39714 3.01335 9.46094 2.98372 9.51562 2.94727C9.56576 2.91081 9.60677 2.87207 9.63867 2.83105C9.67513 2.78548 9.72298 2.7513 9.78223 2.72852C9.81413 2.71484 9.8597 2.69889 9.91895 2.68066C9.97819 2.66243 10.0397 2.64648 10.1035 2.63281C10.1719 2.61914 10.2357 2.60775 10.2949 2.59863C10.3542 2.58952 10.402 2.58496 10.4385 2.58496C10.5433 2.58496 10.6436 2.59863 10.7393 2.62598C10.8395 2.65332 10.9398 2.66699 11.04 2.66699C11.1266 2.66699 11.2087 2.66016 11.2861 2.64648C11.3636 2.63281 11.4411 2.62598 11.5186 2.62598C11.7145 2.62598 11.8831 2.64648 12.0244 2.6875C12.1702 2.72396 12.2956 2.77409 12.4004 2.83789C12.5098 2.89714 12.6055 2.96322 12.6875 3.03613C12.7741 3.10905 12.8538 3.17969 12.9268 3.24805C12.9997 3.31185 13.0726 3.37109 13.1455 3.42578C13.2184 3.48047 13.3005 3.51693 13.3916 3.53516C13.4189 3.62174 13.4691 3.68783 13.542 3.7334C13.6195 3.77897 13.6901 3.83138 13.7539 3.89062C13.763 3.96354 13.7812 4.0319 13.8086 4.0957C13.8359 4.15951 13.8656 4.22331 13.8975 4.28711C13.9294 4.34635 13.9613 4.4056 13.9932 4.46484C14.0251 4.52409 14.0501 4.58789 14.0684 4.65625C14.0911 4.72917 14.1003 4.7998 14.0957 4.86816C14.0911 4.93652 14.1003 5.0026 14.123 5.06641C14.1504 5.17578 14.1868 5.28288 14.2324 5.3877C14.278 5.48796 14.3145 5.59049 14.3418 5.69531C14.36 5.76367 14.3691 5.83203 14.3691 5.90039C14.3691 5.96875 14.376 6.03483 14.3896 6.09863C14.417 6.23991 14.4421 6.36751 14.4648 6.48145C14.4876 6.59538 14.499 6.72526 14.499 6.87109ZM13.0703 6.78906C13.0703 6.72526 13.0544 6.67057 13.0225 6.625C12.9951 6.57487 12.9701 6.52018 12.9473 6.46094C12.8971 6.32878 12.8698 6.18978 12.8652 6.04395C12.8652 5.89355 12.8447 5.75 12.8037 5.61328C12.7764 5.51758 12.7217 5.4082 12.6396 5.28516C12.5576 5.16211 12.4642 5.04134 12.3594 4.92285C12.2546 4.80436 12.1452 4.69727 12.0312 4.60156C11.9219 4.5013 11.8216 4.43066 11.7305 4.38965L11.6689 4.29395C11.6416 4.28027 11.6074 4.27344 11.5664 4.27344C11.5254 4.27344 11.4867 4.2666 11.4502 4.25293C11.3454 4.21647 11.2451 4.18001 11.1494 4.14355C11.0537 4.10254 10.9466 4.08203 10.8281 4.08203C10.6732 4.08203 10.5524 4.1071 10.4658 4.15723C10.3792 4.2028 10.304 4.25521 10.2402 4.31445C10.1764 4.36914 10.1149 4.42155 10.0557 4.47168C9.99642 4.51725 9.91895 4.53776 9.82324 4.5332C9.82324 4.60612 9.80729 4.66992 9.77539 4.72461C9.74805 4.77474 9.71387 4.82259 9.67285 4.86816C9.63184 4.91374 9.59082 4.95931 9.5498 5.00488C9.50879 5.05046 9.47917 5.10286 9.46094 5.16211C9.45182 5.19857 9.44043 5.26693 9.42676 5.36719C9.41764 5.46745 9.40853 5.5791 9.39941 5.70215C9.3903 5.82064 9.38346 5.93457 9.37891 6.04395C9.37435 6.15332 9.37207 6.23307 9.37207 6.2832C9.37207 6.30599 9.36751 6.32878 9.3584 6.35156C9.34928 6.37435 9.34017 6.39714 9.33105 6.41992C9.32194 6.55208 9.3151 6.68652 9.31055 6.82324C9.30599 6.9554 9.30371 7.08757 9.30371 7.21973C9.30371 7.26986 9.31055 7.34733 9.32422 7.45215C9.33789 7.55241 9.35612 7.66862 9.37891 7.80078C9.40169 7.92839 9.42676 8.0651 9.4541 8.21094C9.48145 8.35221 9.50879 8.48665 9.53613 8.61426C9.56803 8.74186 9.59766 8.85807 9.625 8.96289C9.65234 9.06315 9.67741 9.13607 9.7002 9.18164C9.72298 9.23177 9.75033 9.27051 9.78223 9.29785C9.81413 9.3252 9.84147 9.36165 9.86426 9.40723C9.87793 9.43001 9.88477 9.4528 9.88477 9.47559C9.88477 9.49837 9.89616 9.52116 9.91895 9.54395C9.96452 9.59408 10.0192 9.63281 10.083 9.66016C10.1514 9.6875 10.2152 9.72396 10.2744 9.76953C10.3473 9.78776 10.3997 9.81283 10.4316 9.84473C10.4635 9.87207 10.4977 9.90169 10.5342 9.93359C10.5752 9.96094 10.6276 9.986 10.6914 10.0088C10.7598 10.027 10.8669 10.0361 11.0127 10.0361C11.0856 10.0361 11.1312 10.027 11.1494 10.0088C11.1722 9.99056 11.2109 9.97005 11.2656 9.94727C11.3158 9.92448 11.3659 9.91309 11.416 9.91309C11.4661 9.91309 11.5094 9.90625 11.5459 9.89258C11.6234 9.81055 11.7145 9.73307 11.8193 9.66016C11.9287 9.58724 12.0153 9.50293 12.0791 9.40723C12.1019 9.37533 12.111 9.34342 12.1064 9.31152C12.1019 9.27962 12.111 9.25 12.1338 9.22266C12.1475 9.19987 12.168 9.1862 12.1953 9.18164C12.2227 9.17708 12.2432 9.16341 12.2568 9.14062C12.3206 9.04948 12.3662 8.94466 12.3936 8.82617C12.4255 8.70312 12.4733 8.59147 12.5371 8.49121C12.5645 8.44108 12.6032 8.40007 12.6533 8.36816C12.7035 8.33171 12.7399 8.28385 12.7627 8.22461C12.7809 8.17448 12.7946 8.11751 12.8037 8.05371C12.8128 7.98991 12.8174 7.92383 12.8174 7.85547C12.8219 7.78711 12.8242 7.71875 12.8242 7.65039C12.8288 7.58203 12.8356 7.51823 12.8447 7.45898C12.8538 7.40885 12.8698 7.35417 12.8926 7.29492C12.9199 7.23112 12.945 7.1696 12.9678 7.11035C12.9951 7.04655 13.0179 6.9873 13.0361 6.93262C13.0589 6.87337 13.0703 6.82552 13.0703 6.78906ZM22.2783 7.08301C22.2555 7.18327 22.2214 7.28125 22.1758 7.37695C22.1348 7.47266 22.0915 7.56836 22.0459 7.66406C22.0049 7.75977 21.9661 7.85775 21.9297 7.95801C21.8978 8.05371 21.8796 8.15397 21.875 8.25879C21.8659 8.31803 21.8522 8.35677 21.834 8.375C21.8158 8.38867 21.7952 8.40462 21.7725 8.42285C21.7497 8.44108 21.7292 8.46842 21.7109 8.50488C21.6973 8.54134 21.6904 8.60742 21.6904 8.70312C21.6904 8.76237 21.6836 8.84668 21.6699 8.95605C21.6562 9.06543 21.6357 9.18848 21.6084 9.3252C21.5811 9.45736 21.5492 9.59635 21.5127 9.74219C21.4808 9.88346 21.4443 10.0179 21.4033 10.1455C21.3623 10.2686 21.319 10.3757 21.2734 10.4668C21.2324 10.5579 21.1891 10.6195 21.1436 10.6514C21.1299 10.6878 21.1208 10.7266 21.1162 10.7676C21.1162 10.804 21.1117 10.8405 21.1025 10.877C21.0934 10.9134 21.0775 10.9453 21.0547 10.9727C21.0365 11 21.0205 11.0273 21.0068 11.0547C20.9658 11.1732 20.9385 11.2575 20.9248 11.3076C20.9157 11.3623 20.902 11.4033 20.8838 11.4307C20.8701 11.4626 20.8405 11.4945 20.7949 11.5264C20.7493 11.5583 20.6696 11.6107 20.5557 11.6836C20.5146 11.7201 20.46 11.7588 20.3916 11.7998C20.3232 11.8454 20.2617 11.8682 20.207 11.8682C20.125 11.8682 20.0475 11.8522 19.9746 11.8203C19.9017 11.793 19.8311 11.7565 19.7627 11.7109C19.6943 11.6699 19.6237 11.6266 19.5508 11.5811C19.4824 11.5355 19.4118 11.4967 19.3389 11.4648V11.4307C19.3389 11.3942 19.3252 11.3555 19.2979 11.3145C19.2705 11.2734 19.2568 11.2347 19.2568 11.1982L19.2979 11.1572C19.2887 11.098 19.2773 11.041 19.2637 10.9863C19.25 10.9316 19.2432 10.8747 19.2432 10.8154C19.2432 10.7744 19.2682 10.6924 19.3184 10.5693C19.3685 10.4417 19.4277 10.3073 19.4961 10.166C19.5645 10.0247 19.6305 9.89258 19.6943 9.76953C19.7627 9.64193 19.8128 9.55762 19.8447 9.5166C19.8857 9.46191 19.9336 9.41406 19.9883 9.37305C20.043 9.32747 20.084 9.27279 20.1113 9.20898C20.1478 9.11784 20.1637 9.01986 20.1592 8.91504C20.1592 8.81022 20.1706 8.71224 20.1934 8.62109C20.207 8.57096 20.2298 8.52767 20.2617 8.49121C20.2936 8.4502 20.3187 8.40462 20.3369 8.35449C20.3643 8.25423 20.3711 8.15397 20.3574 8.05371C20.3483 7.95345 20.3551 7.85775 20.3779 7.7666C20.3916 7.69368 20.4167 7.61849 20.4531 7.54102C20.4941 7.46354 20.5146 7.38835 20.5146 7.31543C20.5146 7.25163 20.5078 7.19238 20.4941 7.1377C20.4805 7.07845 20.4736 7.01693 20.4736 6.95312C20.4736 6.83919 20.4759 6.72982 20.4805 6.625C20.485 6.52018 20.4873 6.41536 20.4873 6.31055C20.4873 6.10547 20.46 5.91862 20.4053 5.75C20.3551 5.57682 20.2435 5.43783 20.0703 5.33301L20.0088 5.23047C19.9951 5.22135 19.9814 5.22135 19.9678 5.23047C19.9541 5.23958 19.9359 5.24414 19.9131 5.24414C19.8857 5.24414 19.8607 5.23047 19.8379 5.20312C19.8197 5.17122 19.79 5.13932 19.749 5.10742C19.7126 5.07096 19.6602 5.03906 19.5918 5.01172C19.528 4.97982 19.4391 4.96387 19.3252 4.96387C19.1748 4.96387 19.0449 4.99577 18.9355 5.05957C18.8307 5.11882 18.7327 5.19401 18.6416 5.28516C18.5505 5.37174 18.4616 5.46517 18.375 5.56543C18.2884 5.66113 18.1904 5.74544 18.0811 5.81836C18.0856 5.88672 18.0765 5.94368 18.0537 5.98926C18.0309 6.03483 18.0013 6.07812 17.9648 6.11914C17.9329 6.1556 17.8965 6.19434 17.8555 6.23535C17.819 6.27181 17.7871 6.3151 17.7598 6.36523C17.7461 6.39258 17.7393 6.42448 17.7393 6.46094C17.7393 6.49284 17.7324 6.52246 17.7188 6.5498C17.6823 6.60449 17.6344 6.65234 17.5752 6.69336C17.5205 6.72982 17.4795 6.78451 17.4521 6.85742C17.4202 6.92578 17.4043 7.00098 17.4043 7.08301C17.4043 7.16048 17.3997 7.2334 17.3906 7.30176C17.3906 7.33822 17.3838 7.36784 17.3701 7.39062C17.361 7.41341 17.3496 7.4362 17.3359 7.45898C17.3223 7.47721 17.3086 7.49544 17.2949 7.51367C17.2812 7.5319 17.2721 7.55469 17.2676 7.58203C17.2539 7.68685 17.2471 7.79167 17.2471 7.89648C17.2471 8.0013 17.222 8.10612 17.1719 8.21094C17.2083 8.31576 17.2471 8.42057 17.2881 8.52539C17.3291 8.62565 17.3496 8.73275 17.3496 8.84668C17.3496 8.97884 17.3291 9.10872 17.2881 9.23633C17.2471 9.36393 17.2266 9.49382 17.2266 9.62598C17.2266 9.73991 17.2539 9.83789 17.3086 9.91992C17.2448 10.0977 17.1969 10.2799 17.165 10.4668C17.1331 10.6491 17.0921 10.8314 17.042 11.0137C16.9873 11.0638 16.9235 11.1003 16.8506 11.123C16.7777 11.1458 16.707 11.1572 16.6387 11.1572C16.5065 11.1572 16.3766 11.1413 16.249 11.1094C16.1214 11.082 15.9938 11.0638 15.8662 11.0547C15.8525 11 15.8252 10.9544 15.7842 10.918C15.7477 10.877 15.7067 10.8382 15.6611 10.8018C15.6201 10.7653 15.5837 10.7243 15.5518 10.6787C15.5199 10.6286 15.5039 10.5671 15.5039 10.4941C15.5039 10.4303 15.5221 10.3597 15.5586 10.2822C15.5996 10.2048 15.627 10.1318 15.6406 10.0635C15.6497 9.99967 15.6497 9.93359 15.6406 9.86523C15.6315 9.79688 15.627 9.72624 15.627 9.65332C15.627 9.53027 15.6475 9.40495 15.6885 9.27734C15.734 9.14974 15.7614 9.01986 15.7705 8.8877C15.7751 8.81934 15.7773 8.7487 15.7773 8.67578C15.7773 8.59831 15.7796 8.52311 15.7842 8.4502C15.7887 8.37272 15.7979 8.29753 15.8115 8.22461C15.8298 8.15169 15.8617 8.08789 15.9072 8.0332C15.8936 7.98307 15.8799 7.93294 15.8662 7.88281C15.8571 7.82812 15.8525 7.77572 15.8525 7.72559C15.8525 7.67546 15.8617 7.62988 15.8799 7.58887C15.8981 7.54329 15.9072 7.5 15.9072 7.45898C15.9072 7.41797 15.8936 7.38607 15.8662 7.36328C15.8389 7.33594 15.8252 7.30176 15.8252 7.26074L15.8662 7.21973C15.8571 7.16504 15.848 7.11263 15.8389 7.0625C15.8298 7.00781 15.8252 6.95312 15.8252 6.89844C15.8252 6.77083 15.8457 6.65007 15.8867 6.53613C15.9323 6.41764 15.9551 6.2946 15.9551 6.16699C15.9551 6.06217 15.946 5.96191 15.9277 5.86621C15.9141 5.76595 15.9072 5.66569 15.9072 5.56543C15.9072 5.49707 15.9141 5.43099 15.9277 5.36719C15.946 5.29883 15.9619 5.23275 15.9756 5.16895C15.9938 5.10514 16.0098 5.04134 16.0234 4.97754C16.0417 4.90918 16.0508 4.84082 16.0508 4.77246C16.0508 4.71777 16.0417 4.66536 16.0234 4.61523C16.0098 4.5651 15.9915 4.51497 15.9688 4.46484C15.9505 4.41471 15.9323 4.36458 15.9141 4.31445C15.9004 4.26432 15.8936 4.21191 15.8936 4.15723C15.8936 3.93848 15.9482 3.73112 16.0576 3.53516C16.167 3.33919 16.2992 3.16829 16.4541 3.02246C16.4632 3.02246 16.4723 3.02474 16.4814 3.0293C16.4906 3.03385 16.4997 3.03613 16.5088 3.03613C16.5589 3.03613 16.6022 3.02702 16.6387 3.00879C16.6797 2.986 16.7207 2.97461 16.7617 2.97461C16.8802 2.97461 16.9827 3.00423 17.0693 3.06348C17.1605 3.11816 17.2539 3.16374 17.3496 3.2002C17.4134 3.37337 17.4658 3.54883 17.5068 3.72656C17.5524 3.9043 17.5752 4.08887 17.5752 4.28027C17.6253 4.2666 17.6709 4.24837 17.7119 4.22559C17.7575 4.19824 17.8008 4.1709 17.8418 4.14355C17.8874 4.11621 17.9307 4.09115 17.9717 4.06836C18.0173 4.04102 18.0674 4.02279 18.1221 4.01367C18.1676 3.98177 18.2064 3.94531 18.2383 3.9043C18.2702 3.85872 18.2998 3.81315 18.3271 3.76758C18.359 3.72201 18.3887 3.67871 18.416 3.6377C18.4479 3.59212 18.4844 3.55339 18.5254 3.52148C18.5801 3.48047 18.6667 3.43717 18.7852 3.3916C18.9082 3.34603 19.0358 3.30501 19.168 3.26855C19.3047 3.22754 19.4368 3.19564 19.5645 3.17285C19.6921 3.14551 19.79 3.13184 19.8584 3.13184C19.9404 3.13184 20.0133 3.14095 20.0771 3.15918C20.1455 3.17285 20.2093 3.19336 20.2686 3.2207C20.3324 3.24349 20.3939 3.27083 20.4531 3.30273C20.5169 3.33008 20.5853 3.35742 20.6582 3.38477C20.6855 3.39388 20.7129 3.40072 20.7402 3.40527C20.7676 3.40527 20.7995 3.41211 20.8359 3.42578C20.8906 3.44857 20.9385 3.48047 20.9795 3.52148C21.0251 3.55794 21.0706 3.59668 21.1162 3.6377C21.1618 3.67871 21.2074 3.71745 21.2529 3.75391C21.3031 3.78581 21.3555 3.81087 21.4102 3.8291C21.4375 3.90658 21.474 3.97493 21.5195 4.03418C21.5697 4.09342 21.6266 4.14811 21.6904 4.19824C21.7041 4.29395 21.7292 4.38509 21.7656 4.47168C21.8066 4.55371 21.8454 4.63802 21.8818 4.72461C21.9229 4.80664 21.9593 4.89095 21.9912 4.97754C22.0231 5.05957 22.0391 5.14844 22.0391 5.24414C22.0391 5.30339 22.0322 5.35579 22.0186 5.40137C22.0049 5.44238 21.998 5.48796 21.998 5.53809C21.998 5.5791 22.0049 5.611 22.0186 5.63379C22.0368 5.65658 22.0527 5.67936 22.0664 5.70215C22.0846 5.72038 22.1006 5.74316 22.1143 5.77051C22.1325 5.79329 22.1416 5.82292 22.1416 5.85938C22.1416 5.96419 22.137 6.06673 22.1279 6.16699C22.1188 6.26725 22.1143 6.36979 22.1143 6.47461C22.1143 6.57943 22.1257 6.68424 22.1484 6.78906C22.1712 6.89388 22.2145 6.99186 22.2783 7.08301ZM29.6406 5.8457C29.6406 5.95964 29.6247 6.08724 29.5928 6.22852C29.5609 6.36979 29.5107 6.50423 29.4424 6.63184C29.3786 6.75488 29.2965 6.8597 29.1963 6.94629C29.096 7.02832 28.9775 7.06934 28.8408 7.06934C28.7223 7.06934 28.6084 7.03971 28.499 6.98047C28.3896 6.91667 28.2939 6.84147 28.2119 6.75488C28.1663 6.65918 28.139 6.5612 28.1299 6.46094C28.1208 6.35612 28.0866 6.25814 28.0273 6.16699C28.0182 6.15788 28.0137 6.13509 28.0137 6.09863C28.0137 6.0485 28.0228 6.00065 28.041 5.95508C28.0592 5.90951 28.0684 5.85482 28.0684 5.79102C28.0684 5.72266 28.0775 5.65658 28.0957 5.59277C28.1139 5.52441 28.123 5.4515 28.123 5.37402C28.123 5.33757 28.0957 5.27148 28.041 5.17578C27.9909 5.08008 27.9316 4.9821 27.8633 4.88184C27.7949 4.77702 27.7266 4.68359 27.6582 4.60156C27.5944 4.51497 27.5488 4.46484 27.5215 4.45117C27.5078 4.44206 27.4919 4.44206 27.4736 4.45117C27.4554 4.46029 27.4349 4.46484 27.4121 4.46484L27.3984 4.45117L27.3574 4.3623C27.2435 4.31673 27.1387 4.28483 27.043 4.2666C26.9518 4.24382 26.8607 4.22786 26.7695 4.21875C26.6784 4.20964 26.585 4.20508 26.4893 4.20508C26.3936 4.20052 26.291 4.19368 26.1816 4.18457C26.1178 4.17546 26.054 4.16634 25.9902 4.15723C25.9264 4.14355 25.8581 4.13672 25.7852 4.13672C25.7396 4.13672 25.6758 4.15267 25.5938 4.18457C25.5117 4.21647 25.4274 4.25749 25.3408 4.30762C25.2588 4.35319 25.1813 4.40104 25.1084 4.45117C25.0355 4.5013 24.9876 4.54688 24.9648 4.58789C24.9375 4.61979 24.9079 4.68587 24.876 4.78613C24.8486 4.88639 24.8213 4.99577 24.7939 5.11426C24.7666 5.22819 24.7415 5.33984 24.7188 5.44922C24.7005 5.55859 24.6891 5.63607 24.6846 5.68164C24.7074 5.73633 24.7393 5.78646 24.7803 5.83203C24.8213 5.87305 24.8623 5.91406 24.9033 5.95508C24.9489 5.99609 24.9876 6.03939 25.0195 6.08496C25.056 6.13053 25.0788 6.1875 25.0879 6.25586C25.179 6.27865 25.2542 6.31055 25.3135 6.35156C25.3773 6.38802 25.4388 6.42448 25.498 6.46094C25.5618 6.49284 25.6302 6.52018 25.7031 6.54297C25.7806 6.5612 25.8786 6.55892 25.9971 6.53613C26.0563 6.58626 26.1178 6.63411 26.1816 6.67969C26.25 6.72526 26.3092 6.77995 26.3594 6.84375C26.3822 6.82096 26.4095 6.80957 26.4414 6.80957C26.4733 6.80501 26.5075 6.80273 26.5439 6.80273H26.7148C26.7741 6.83919 26.8379 6.86882 26.9062 6.8916C26.9792 6.90983 27.0498 6.92806 27.1182 6.94629C27.1911 6.95996 27.2617 6.97591 27.3301 6.99414C27.3984 7.01237 27.4622 7.04199 27.5215 7.08301C27.6126 7.13314 27.6855 7.20378 27.7402 7.29492C27.7949 7.38151 27.8587 7.45898 27.9316 7.52734C27.959 7.51823 27.9818 7.51139 28 7.50684C28.0228 7.50228 28.0456 7.5 28.0684 7.5C28.1367 7.5 28.196 7.51823 28.2461 7.55469C28.2962 7.59115 28.3441 7.63216 28.3896 7.67773C28.4352 7.71875 28.4808 7.76204 28.5264 7.80762C28.5765 7.84863 28.6335 7.87598 28.6973 7.88965C28.7155 7.95345 28.7383 8.01725 28.7656 8.08105C28.793 8.14486 28.8317 8.19954 28.8818 8.24512C28.8727 8.34082 28.8727 8.4388 28.8818 8.53906C28.891 8.63477 28.8955 8.72819 28.8955 8.81934C28.8955 8.8877 28.8864 8.95378 28.8682 9.01758C28.8499 9.07682 28.8408 9.13607 28.8408 9.19531C28.8408 9.24544 28.8499 9.29557 28.8682 9.3457C28.8864 9.39583 28.9069 9.44824 28.9297 9.50293C28.9525 9.55762 28.973 9.6123 28.9912 9.66699C29.0094 9.71712 29.0208 9.76953 29.0254 9.82422C29.0072 9.88802 28.9867 9.94271 28.9639 9.98828C28.9456 10.0339 28.9274 10.0794 28.9092 10.125C28.8955 10.1706 28.8841 10.2184 28.875 10.2686C28.8704 10.3187 28.8727 10.3802 28.8818 10.4531C28.7952 10.5579 28.7269 10.6719 28.6768 10.7949C28.6266 10.918 28.5605 11.0319 28.4785 11.1367L28.3896 11.1846V11.2666L28.2939 11.3213C28.2712 11.376 28.2552 11.4124 28.2461 11.4307C28.237 11.4489 28.2256 11.4603 28.2119 11.4648C28.2028 11.474 28.1868 11.4831 28.1641 11.4922C28.1413 11.5013 28.1094 11.5195 28.0684 11.5469C28.0273 11.5742 27.9932 11.6107 27.9658 11.6562C27.9385 11.7018 27.8997 11.7406 27.8496 11.7725C27.7767 11.8135 27.6947 11.8363 27.6035 11.8408C27.5169 11.8499 27.4349 11.8727 27.3574 11.9092C27.2845 11.9365 27.2161 11.9775 27.1523 12.0322C27.0885 12.0869 27.0202 12.1211 26.9473 12.1348C26.8652 12.1484 26.7764 12.1507 26.6807 12.1416C26.5895 12.137 26.5029 12.1348 26.4209 12.1348C26.3434 12.1348 26.2682 12.1416 26.1953 12.1553C26.1224 12.1689 26.0472 12.1758 25.9697 12.1758C25.874 12.1758 25.776 12.1667 25.6758 12.1484C25.5755 12.1302 25.4753 12.1097 25.375 12.0869C25.2793 12.0641 25.1813 12.0436 25.0811 12.0254C24.9808 12.0072 24.8805 11.9958 24.7803 11.9912C24.7484 11.9456 24.7119 11.9115 24.6709 11.8887C24.6299 11.8704 24.5866 11.8568 24.541 11.8477C24.4954 11.8431 24.4499 11.8363 24.4043 11.8271C24.3587 11.818 24.3154 11.7998 24.2744 11.7725C24.2197 11.7314 24.1673 11.6859 24.1172 11.6357C24.0716 11.5856 24.0238 11.5355 23.9736 11.4854C23.9235 11.4352 23.8711 11.3874 23.8164 11.3418C23.7663 11.2962 23.7093 11.2575 23.6455 11.2256C23.641 11.1846 23.6204 11.1139 23.584 11.0137C23.5521 10.918 23.5156 10.8177 23.4746 10.7129C23.4382 10.6081 23.404 10.5078 23.3721 10.4121C23.3402 10.3118 23.3242 10.2412 23.3242 10.2002C23.3242 10.1045 23.3311 10.0065 23.3447 9.90625C23.3584 9.80599 23.3652 9.70345 23.3652 9.59863C23.3652 9.53027 23.3903 9.46191 23.4404 9.39355C23.4906 9.32064 23.5521 9.25684 23.625 9.20215C23.6979 9.1429 23.7754 9.09733 23.8574 9.06543C23.9395 9.02897 24.0101 9.01074 24.0693 9.01074C24.1924 9.01074 24.3086 9.04036 24.418 9.09961C24.5319 9.15885 24.639 9.22266 24.7393 9.29102C24.7438 9.36849 24.7529 9.46191 24.7666 9.57129C24.7803 9.68066 24.8031 9.79004 24.835 9.89941C24.8669 10.0088 24.9079 10.1113 24.958 10.207C25.0081 10.2982 25.0697 10.3665 25.1426 10.4121C25.1654 10.4258 25.1859 10.4326 25.2041 10.4326C25.2269 10.4326 25.2497 10.4395 25.2725 10.4531L25.3135 10.5488C25.3408 10.5579 25.3773 10.5579 25.4229 10.5488C25.4684 10.5397 25.5026 10.5352 25.5254 10.5352C25.5573 10.5352 25.5801 10.5397 25.5938 10.5488C25.612 10.5579 25.6257 10.5693 25.6348 10.583C25.6484 10.5921 25.6598 10.6035 25.6689 10.6172C25.6781 10.6263 25.694 10.6331 25.7168 10.6377C25.776 10.6514 25.8376 10.6582 25.9014 10.6582C25.9652 10.6536 26.0244 10.6514 26.0791 10.6514C26.1429 10.6514 26.2044 10.6559 26.2637 10.665C26.3275 10.6742 26.389 10.6969 26.4482 10.7334C26.4847 10.7061 26.5326 10.6855 26.5918 10.6719C26.6556 10.6536 26.7194 10.6377 26.7832 10.624C26.847 10.6104 26.9062 10.5944 26.9609 10.5762C27.0156 10.5579 27.0544 10.5352 27.0771 10.5078C27.1546 10.4121 27.2321 10.3073 27.3096 10.1934C27.387 10.0794 27.4577 9.97005 27.5215 9.86523C27.5124 9.76497 27.5124 9.66699 27.5215 9.57129C27.5306 9.47103 27.5352 9.36849 27.5352 9.26367C27.5352 9.15885 27.5215 9.07454 27.4941 9.01074C27.4668 8.94238 27.4349 8.88086 27.3984 8.82617C27.3665 8.77148 27.3324 8.7168 27.2959 8.66211C27.2594 8.60742 27.2321 8.54134 27.2139 8.46387C27.1729 8.44564 27.1273 8.42969 27.0771 8.41602C27.027 8.40234 26.9746 8.38639 26.9199 8.36816C26.8698 8.34993 26.8219 8.32943 26.7764 8.30664C26.7308 8.2793 26.6943 8.24284 26.667 8.19727C26.5576 8.19727 26.4574 8.18132 26.3662 8.14941C26.2751 8.11296 26.1794 8.06966 26.0791 8.01953C26.0244 8.0332 25.972 8.04232 25.9219 8.04688C25.8717 8.04688 25.8171 8.04688 25.7578 8.04688C25.6348 8.04688 25.5163 8.03092 25.4023 7.99902C25.293 7.96257 25.1859 7.92611 25.0811 7.88965C24.9762 7.85319 24.8714 7.82129 24.7666 7.79395C24.6663 7.76204 24.5638 7.74837 24.459 7.75293C24.4089 7.68913 24.3382 7.61393 24.2471 7.52734C24.1559 7.44076 24.0625 7.35417 23.9668 7.26758C23.8757 7.18099 23.7913 7.10124 23.7139 7.02832C23.6364 6.95085 23.5863 6.88932 23.5635 6.84375C23.527 6.78906 23.4974 6.72982 23.4746 6.66602C23.4564 6.59766 23.4359 6.53158 23.4131 6.46777C23.3949 6.40397 23.3721 6.34245 23.3447 6.2832C23.3219 6.22396 23.2878 6.17155 23.2422 6.12598C23.2786 6.05306 23.2969 5.96875 23.2969 5.87305C23.2969 5.79102 23.2878 5.71126 23.2695 5.63379C23.2513 5.55176 23.2422 5.46973 23.2422 5.3877C23.2422 5.31934 23.2513 5.25781 23.2695 5.20312C23.2878 5.14388 23.306 5.08464 23.3242 5.02539C23.347 4.96615 23.3652 4.90462 23.3789 4.84082C23.3926 4.77702 23.3926 4.70638 23.3789 4.62891C23.6432 4.30078 23.8825 3.94076 24.0967 3.54883C24.1605 3.4987 24.2288 3.4554 24.3018 3.41895C24.3792 3.38249 24.4453 3.33919 24.5 3.28906C24.6595 3.1569 24.8167 3.05664 24.9717 2.98828C25.1266 2.91536 25.3112 2.87891 25.5254 2.87891C25.5938 2.87891 25.6576 2.86296 25.7168 2.83105C25.776 2.7946 25.8376 2.76497 25.9014 2.74219C25.9469 2.72852 26.0016 2.71712 26.0654 2.70801C26.1338 2.69889 26.2044 2.69206 26.2773 2.6875C26.3503 2.68294 26.4186 2.68066 26.4824 2.68066C26.5508 2.68066 26.6077 2.68066 26.6533 2.68066C26.7855 2.68066 26.904 2.69889 27.0088 2.73535C27.1136 2.76725 27.2253 2.7832 27.3438 2.7832C27.3984 2.7832 27.4531 2.80599 27.5078 2.85156C27.5625 2.89714 27.6149 2.93359 27.665 2.96094C27.8109 3.03841 27.959 3.11133 28.1094 3.17969C28.2643 3.24805 28.4193 3.31185 28.5742 3.37109C28.6152 3.4349 28.6608 3.49186 28.7109 3.54199C28.7656 3.58757 28.8203 3.63314 28.875 3.67871C28.9342 3.71973 28.9912 3.76302 29.0459 3.80859C29.1006 3.85417 29.153 3.9043 29.2031 3.95898C29.2441 4.10938 29.2897 4.26432 29.3398 4.42383C29.39 4.57878 29.4355 4.736 29.4766 4.89551C29.5221 5.05046 29.5609 5.20996 29.5928 5.37402C29.6247 5.53353 29.6406 5.69076 29.6406 5.8457ZM36.2715 3.77441C36.2715 3.87467 36.2419 3.96354 36.1826 4.04102C36.1279 4.11393 36.0824 4.19368 36.0459 4.28027C35.9639 4.29395 35.891 4.31901 35.8271 4.35547C35.7679 4.38737 35.7064 4.42383 35.6426 4.46484C35.5833 4.5013 35.5173 4.5332 35.4443 4.56055C35.3714 4.58789 35.2871 4.60156 35.1914 4.60156C35.1003 4.60156 35.0114 4.59245 34.9248 4.57422C34.8428 4.55599 34.7585 4.54688 34.6719 4.54688C34.5579 4.54688 34.4486 4.56966 34.3438 4.61523C34.2435 4.66081 34.1341 4.68359 34.0156 4.68359C33.9017 4.68359 33.7855 4.6722 33.667 4.64941C33.5531 4.62663 33.4414 4.61523 33.332 4.61523C33.2956 4.61523 33.2614 4.61751 33.2295 4.62207C33.2021 4.62663 33.1748 4.62891 33.1475 4.62891C33.1064 4.71549 33.0882 4.80436 33.0928 4.89551C33.1019 4.98665 33.1064 5.07552 33.1064 5.16211C33.1064 5.31706 33.0905 5.47201 33.0586 5.62695C33.0312 5.7819 33.0176 5.93913 33.0176 6.09863C33.0176 6.22624 33.0312 6.35156 33.0586 6.47461C33.0905 6.5931 33.1064 6.71615 33.1064 6.84375C33.1064 6.91211 33.0973 6.97591 33.0791 7.03516C33.0609 7.08984 33.0381 7.14453 33.0107 7.19922C32.988 7.25391 32.9674 7.30859 32.9492 7.36328C32.931 7.41797 32.9219 7.47721 32.9219 7.54102C32.9219 7.58203 32.9287 7.62533 32.9424 7.6709C32.9561 7.71191 32.9629 7.75293 32.9629 7.79395L32.9219 7.83496C32.9219 7.85319 32.9264 7.86914 32.9355 7.88281C32.9447 7.89193 32.9561 7.9056 32.9697 7.92383C32.9834 7.9375 32.9948 7.95573 33.0039 7.97852C33.013 8.0013 33.0176 8.0332 33.0176 8.07422C33.0176 8.19271 33.0085 8.3112 32.9902 8.42969C32.972 8.54818 32.9629 8.66667 32.9629 8.78516C32.9629 8.80794 32.9674 8.85807 32.9766 8.93555C32.9857 9.00846 32.9971 9.09505 33.0107 9.19531C33.029 9.29557 33.0449 9.40039 33.0586 9.50977C33.0768 9.61914 33.0951 9.72168 33.1133 9.81738C33.1315 9.91309 33.1475 9.99512 33.1611 10.0635C33.1794 10.1318 33.193 10.1729 33.2021 10.1865C33.2386 10.2367 33.2819 10.2777 33.332 10.3096C33.3822 10.3369 33.4277 10.3711 33.4688 10.4121C33.487 10.4212 33.5143 10.4258 33.5508 10.4258C33.6009 10.4258 33.6465 10.4189 33.6875 10.4053C33.7331 10.3916 33.7809 10.3802 33.8311 10.3711C33.8812 10.3574 33.9313 10.3506 33.9814 10.3506C34.0361 10.3506 34.0885 10.3438 34.1387 10.3301C34.1934 10.3073 34.2412 10.2777 34.2822 10.2412C34.3232 10.2048 34.362 10.1706 34.3984 10.1387C34.4395 10.1022 34.4827 10.0726 34.5283 10.0498C34.5739 10.0225 34.6263 10.0088 34.6855 10.0088C34.763 9.86751 34.8473 9.73307 34.9385 9.60547C35.0342 9.47786 35.1139 9.34115 35.1777 9.19531C35.196 9.20443 35.2142 9.20898 35.2324 9.20898C35.2689 9.20898 35.2985 9.19987 35.3213 9.18164C35.3486 9.16341 35.3805 9.1543 35.417 9.1543C35.4215 9.1543 35.4443 9.16113 35.4854 9.1748C35.5264 9.18392 35.5697 9.19759 35.6152 9.21582C35.6608 9.22949 35.7041 9.24544 35.7451 9.26367C35.7861 9.27734 35.8112 9.28646 35.8203 9.29102C35.8477 9.3138 35.8682 9.35482 35.8818 9.41406C35.9001 9.47331 35.9206 9.52116 35.9434 9.55762C35.9661 9.59408 35.9867 9.62142 36.0049 9.63965C36.0231 9.65788 36.0368 9.67839 36.0459 9.70117C36.0596 9.7194 36.0687 9.74219 36.0732 9.76953C36.0824 9.79688 36.0869 9.83789 36.0869 9.89258C36.0869 10.0339 36.0573 10.1683 35.998 10.2959C35.9434 10.4189 35.8978 10.5465 35.8613 10.6787C35.8021 10.7015 35.7542 10.7357 35.7178 10.7812C35.6813 10.8223 35.6449 10.8656 35.6084 10.9111C35.5765 10.9567 35.5378 10.9977 35.4922 11.0342C35.4512 11.0706 35.3919 11.0911 35.3145 11.0957C35.278 11.2005 35.2188 11.2894 35.1367 11.3623C35.0547 11.4352 34.9658 11.4967 34.8701 11.5469C34.8428 11.5742 34.804 11.5879 34.7539 11.5879C34.7266 11.5879 34.6947 11.5811 34.6582 11.5674C34.6263 11.5537 34.6035 11.5332 34.5898 11.5059C34.5306 11.5286 34.4873 11.5514 34.46 11.5742C34.4372 11.6016 34.4167 11.6289 34.3984 11.6562C34.3802 11.6882 34.3597 11.7178 34.3369 11.7451C34.3187 11.7725 34.2868 11.7975 34.2412 11.8203C34.2002 11.8431 34.1387 11.8613 34.0566 11.875C33.9792 11.8887 33.8721 11.8955 33.7354 11.8955C33.6715 11.8955 33.6077 11.8978 33.5439 11.9023C33.4847 11.9115 33.4277 11.9274 33.373 11.9502C33.2682 11.8773 33.1383 11.8317 32.9834 11.8135C32.8285 11.7998 32.6872 11.7861 32.5596 11.7725C32.5687 11.7269 32.555 11.7041 32.5186 11.7041C32.4821 11.7041 32.4525 11.6927 32.4297 11.6699C32.3796 11.6426 32.3385 11.6016 32.3066 11.5469C32.2747 11.4967 32.2223 11.4648 32.1494 11.4512C32.1449 11.3965 32.1266 11.3441 32.0947 11.2939C32.0628 11.2484 32.0264 11.2028 31.9854 11.1572C31.9489 11.1117 31.9124 11.0638 31.876 11.0137C31.8395 10.9681 31.8145 10.918 31.8008 10.8633C31.7598 10.7311 31.7096 10.599 31.6504 10.4668C31.5957 10.3301 31.5524 10.1911 31.5205 10.0498C31.5068 9.986 31.4932 9.90397 31.4795 9.80371C31.4704 9.69889 31.4613 9.58952 31.4521 9.47559C31.4476 9.36165 31.443 9.25228 31.4385 9.14746C31.4385 9.04264 31.4385 8.95605 31.4385 8.8877C31.4385 8.77376 31.4521 8.66667 31.4795 8.56641C31.5068 8.46159 31.5205 8.35449 31.5205 8.24512C31.5205 8.09928 31.5091 7.95573 31.4863 7.81445C31.4635 7.67318 31.4476 7.5319 31.4385 7.39062C31.4294 7.31315 31.4294 7.23568 31.4385 7.1582C31.4476 7.08073 31.4521 7.00326 31.4521 6.92578C31.4521 6.80729 31.4339 6.70475 31.3975 6.61816C31.4248 6.59993 31.4476 6.57259 31.4658 6.53613C31.4886 6.49967 31.5068 6.46094 31.5205 6.41992C31.5342 6.37435 31.5433 6.32878 31.5479 6.2832C31.557 6.23763 31.5615 6.19889 31.5615 6.16699L31.5205 6.12598C31.5296 6.05762 31.5365 5.98926 31.541 5.9209C31.5456 5.84798 31.5479 5.77734 31.5479 5.70898C31.5479 5.63607 31.5387 5.56771 31.5205 5.50391C31.5068 5.43555 31.4795 5.37402 31.4385 5.31934C31.4294 5.24642 31.4362 5.17806 31.459 5.11426C31.4818 5.05046 31.4932 4.98665 31.4932 4.92285L31.4795 4.81348C31.3747 4.7998 31.2653 4.79753 31.1514 4.80664C31.0374 4.8112 30.9281 4.81348 30.8232 4.81348C30.7503 4.81348 30.6774 4.81348 30.6045 4.81348C30.5316 4.80892 30.4632 4.79525 30.3994 4.77246C30.3311 4.6722 30.2604 4.57422 30.1875 4.47852C30.1146 4.37826 30.0781 4.26432 30.0781 4.13672C30.0781 3.99089 30.1146 3.86328 30.1875 3.75391C30.2604 3.64453 30.3311 3.5306 30.3994 3.41211C30.4541 3.40755 30.5088 3.39388 30.5635 3.37109C30.6182 3.34831 30.6706 3.32324 30.7207 3.2959C30.7754 3.26855 30.8278 3.24349 30.8779 3.2207C30.9281 3.19792 30.9805 3.18652 31.0352 3.18652C31.1309 3.18652 31.222 3.21159 31.3086 3.26172C31.3952 3.30729 31.4909 3.33008 31.5957 3.33008H31.6641C31.6868 3.27995 31.7074 3.22754 31.7256 3.17285C31.7484 3.11816 31.7552 3.06348 31.7461 3.00879C31.7233 2.99056 31.7028 2.97233 31.6846 2.9541C31.6709 2.93132 31.6641 2.90625 31.6641 2.87891C31.6641 2.85612 31.6709 2.83789 31.6846 2.82422C31.6982 2.80599 31.7051 2.77865 31.7051 2.74219C31.7051 2.63737 31.6914 2.53255 31.6641 2.42773C31.6367 2.31836 31.623 2.20671 31.623 2.09277C31.623 2.00163 31.6367 1.88997 31.6641 1.75781C31.696 1.62565 31.7347 1.49349 31.7803 1.36133C31.8304 1.22461 31.8874 1.09701 31.9512 0.978516C32.015 0.860026 32.0811 0.771159 32.1494 0.711914C32.2087 0.702799 32.2656 0.698242 32.3203 0.698242C32.375 0.698242 32.432 0.698242 32.4912 0.698242C32.6279 0.698242 32.7441 0.727865 32.8398 0.787109C32.9355 0.846354 33.013 0.923828 33.0723 1.01953C33.1315 1.11523 33.1748 1.22461 33.2021 1.34766C33.2295 1.46615 33.2432 1.58464 33.2432 1.70312C33.2432 1.7806 33.2227 1.8763 33.1816 1.99023C33.1406 2.10417 33.1201 2.22721 33.1201 2.35938C33.1201 2.46419 33.1247 2.57357 33.1338 2.6875C33.1429 2.79688 33.1475 2.90397 33.1475 3.00879C33.1702 3.00879 33.193 3.00651 33.2158 3.00195C33.2386 2.9974 33.2614 2.99512 33.2842 2.99512C33.3753 2.99512 33.4619 3.01107 33.5439 3.04297C33.626 3.07487 33.7126 3.09082 33.8037 3.09082C33.8675 3.09082 33.9199 3.07715 33.9609 3.0498C33.9974 3.0498 34.027 3.05892 34.0498 3.07715C34.0726 3.09082 34.0908 3.10905 34.1045 3.13184C34.1227 3.15007 34.141 3.17057 34.1592 3.19336C34.182 3.21159 34.2093 3.22298 34.2412 3.22754C34.3096 3.2002 34.3734 3.16374 34.4326 3.11816C34.4964 3.07259 34.5671 3.03613 34.6445 3.00879H35.8203C35.8568 3.03613 35.8887 3.06576 35.916 3.09766C35.9434 3.12956 35.9867 3.14551 36.0459 3.14551C36.0505 3.2002 36.0641 3.2526 36.0869 3.30273C36.1143 3.35286 36.1416 3.40299 36.1689 3.45312C36.1963 3.50326 36.2191 3.55566 36.2373 3.61035C36.2601 3.66048 36.2715 3.71517 36.2715 3.77441ZM43.1279 10.0225C43.1143 10.0908 43.096 10.1501 43.0732 10.2002C43.055 10.2458 43.0368 10.2936 43.0186 10.3438C43.0049 10.3893 42.9935 10.4395 42.9844 10.4941C42.9798 10.5488 42.9821 10.6149 42.9912 10.6924C42.9502 10.7152 42.9206 10.7471 42.9023 10.7881C42.8841 10.8245 42.8682 10.8656 42.8545 10.9111C42.8454 10.9521 42.834 10.9954 42.8203 11.041C42.8112 11.0866 42.793 11.1253 42.7656 11.1572C42.6654 11.1253 42.5651 11.1117 42.4648 11.1162C42.3646 11.1208 42.2643 11.123 42.1641 11.123C42.0592 11.123 41.9795 11.1139 41.9248 11.0957C41.8701 11.082 41.804 11.041 41.7266 10.9727C41.6719 10.918 41.6172 10.8952 41.5625 10.9043C41.5124 10.9134 41.4645 10.9157 41.4189 10.9111C41.3779 10.9066 41.3438 10.877 41.3164 10.8223C41.2936 10.763 41.2822 10.6445 41.2822 10.4668C41.2822 10.4395 41.2799 10.4098 41.2754 10.3779C41.2708 10.346 41.2549 10.3164 41.2275 10.2891C41.109 10.3164 40.9997 10.3665 40.8994 10.4395C40.7992 10.5078 40.7035 10.5807 40.6123 10.6582C40.5212 10.7311 40.43 10.7949 40.3389 10.8496C40.2477 10.9043 40.152 10.9271 40.0518 10.918C40.0016 10.9681 39.9538 11.0182 39.9082 11.0684C39.8626 11.1185 39.8079 11.1618 39.7441 11.1982C39.7122 11.2119 39.6576 11.2279 39.5801 11.2461C39.5072 11.2643 39.4297 11.2803 39.3477 11.2939C39.2656 11.3076 39.1859 11.319 39.1084 11.3281C39.0309 11.3418 38.9762 11.3486 38.9443 11.3486C38.8486 11.3486 38.737 11.3167 38.6094 11.2529C38.4818 11.1937 38.3542 11.1299 38.2266 11.0615C38.1035 10.9932 37.9873 10.9339 37.8779 10.8838C37.7686 10.8291 37.6797 10.8109 37.6113 10.8291C37.5612 10.7881 37.5247 10.738 37.502 10.6787C37.4792 10.6149 37.4427 10.5579 37.3926 10.5078C37.3333 10.4577 37.2695 10.4167 37.2012 10.3848C37.1328 10.3529 37.0736 10.305 37.0234 10.2412C36.9915 10.1956 36.9665 10.1478 36.9482 10.0977C36.9346 10.043 36.9186 9.98828 36.9004 9.93359C36.8867 9.87435 36.8685 9.81738 36.8457 9.7627C36.8275 9.70801 36.7979 9.65788 36.7568 9.6123C36.7751 9.53483 36.7865 9.43913 36.791 9.3252C36.7956 9.21126 36.8024 9.09733 36.8115 8.9834C36.8252 8.86491 36.8457 8.75553 36.873 8.65527C36.9049 8.55501 36.9551 8.4821 37.0234 8.43652V8.38184C37.0234 8.24056 37.0462 8.12663 37.0918 8.04004C37.1374 7.94889 37.1943 7.86914 37.2627 7.80078C37.3311 7.72786 37.4062 7.65951 37.4883 7.5957C37.5703 7.5319 37.6455 7.45443 37.7139 7.36328C37.7549 7.33138 37.7982 7.31999 37.8438 7.3291C37.8893 7.33366 37.9349 7.32454 37.9805 7.30176L38.0215 7.21973C38.0443 7.21061 38.0648 7.20833 38.083 7.21289C38.1012 7.21745 38.1172 7.21973 38.1309 7.21973C38.1536 7.21973 38.1764 7.21061 38.1992 7.19238C38.222 7.17415 38.2448 7.15592 38.2676 7.1377C38.2904 7.11491 38.3132 7.0944 38.3359 7.07617C38.3633 7.05794 38.3929 7.04883 38.4248 7.04883C38.4385 7.04883 38.4544 7.05339 38.4727 7.0625C38.4909 7.06706 38.5068 7.07389 38.5205 7.08301C38.5524 7.03288 38.5889 6.98958 38.6299 6.95312C38.6755 6.91211 38.721 6.87337 38.7666 6.83691C38.8122 6.80046 38.8555 6.764 38.8965 6.72754C38.9421 6.68652 38.9808 6.64095 39.0127 6.59082C39.0309 6.59993 39.0583 6.60449 39.0947 6.60449C39.1357 6.60449 39.1676 6.59538 39.1904 6.57715C39.2132 6.55436 39.236 6.53158 39.2588 6.50879C39.2861 6.48145 39.3158 6.45866 39.3477 6.44043C39.3796 6.41764 39.4274 6.40625 39.4912 6.40625C39.5049 6.40625 39.5322 6.39714 39.5732 6.37891C39.6143 6.36068 39.6576 6.34017 39.7031 6.31738C39.7487 6.29004 39.792 6.26497 39.833 6.24219C39.874 6.21484 39.9036 6.19434 39.9219 6.18066L39.9971 6.16699C40.0381 6.16699 40.0768 6.17611 40.1133 6.19434C40.1497 6.20801 40.1885 6.2194 40.2295 6.22852C40.2887 6.16927 40.348 6.1123 40.4072 6.05762C40.4665 6.00293 40.5143 5.93685 40.5508 5.85938C40.61 5.84115 40.6784 5.80697 40.7559 5.75684C40.8333 5.70671 40.9062 5.64974 40.9746 5.58594C41.0475 5.52214 41.1068 5.45378 41.1523 5.38086C41.2025 5.30339 41.2275 5.23047 41.2275 5.16211C41.2275 5.08919 41.207 5.01855 41.166 4.9502C41.1296 4.88184 41.0863 4.81576 41.0361 4.75195C40.986 4.68359 40.9359 4.61523 40.8857 4.54688C40.8356 4.47852 40.7992 4.40788 40.7764 4.33496H40.749C40.6943 4.33496 40.6442 4.3099 40.5986 4.25977C40.5576 4.20508 40.5098 4.1709 40.4551 4.15723C40.4095 4.139 40.3617 4.12988 40.3115 4.12988C40.2614 4.12988 40.2113 4.12988 40.1611 4.12988C40.111 4.12988 40.0609 4.12533 40.0107 4.11621C39.9652 4.1071 39.9219 4.08659 39.8809 4.05469C39.7897 4.07292 39.7168 4.1071 39.6621 4.15723C39.6074 4.2028 39.5527 4.25065 39.498 4.30078C39.4434 4.35091 39.3796 4.39421 39.3066 4.43066C39.2337 4.46257 39.1357 4.47396 39.0127 4.46484C38.9307 4.63346 38.8555 4.80892 38.7871 4.99121C38.7233 5.1735 38.6344 5.34212 38.5205 5.49707C38.4932 5.59733 38.4658 5.69759 38.4385 5.79785C38.4157 5.89355 38.3701 5.97559 38.3018 6.04395C38.2106 6.07129 38.1172 6.08496 38.0215 6.08496C37.9212 6.08496 37.8096 6.06673 37.6865 6.03027C37.568 5.98926 37.4564 5.93457 37.3516 5.86621C37.2467 5.79785 37.1579 5.7181 37.085 5.62695C37.0166 5.53125 36.9824 5.42871 36.9824 5.31934C36.9824 5.20085 37.0052 5.08464 37.0508 4.9707C37.1009 4.85221 37.126 4.72917 37.126 4.60156C37.1898 4.57878 37.2399 4.54232 37.2764 4.49219C37.3128 4.44206 37.3447 4.38965 37.3721 4.33496C37.404 4.27572 37.4359 4.22103 37.4678 4.1709C37.5042 4.12077 37.5521 4.08203 37.6113 4.05469V4C37.6113 3.95898 37.6227 3.92936 37.6455 3.91113C37.6683 3.88835 37.6729 3.84733 37.6592 3.78809C37.8688 3.66504 38.0352 3.4987 38.1582 3.28906C38.2357 3.2526 38.3177 3.22298 38.4043 3.2002C38.4909 3.17741 38.5729 3.14551 38.6504 3.10449C38.7188 3.07715 38.7826 3.03841 38.8418 2.98828C38.9056 2.93815 38.9762 2.90169 39.0537 2.87891C39.1676 2.85612 39.2793 2.85384 39.3887 2.87207C39.5026 2.88574 39.612 2.89258 39.7168 2.89258C39.8079 2.89258 39.8854 2.87435 39.9492 2.83789C40.0176 2.80143 40.0973 2.7832 40.1885 2.7832C40.2796 2.7832 40.3708 2.79004 40.4619 2.80371C40.5531 2.81283 40.6442 2.82422 40.7354 2.83789C40.7764 2.84701 40.8128 2.86296 40.8447 2.88574C40.8812 2.90397 40.9199 2.91992 40.9609 2.93359C41.1022 2.96094 41.2048 2.97689 41.2686 2.98145C41.3324 2.98145 41.387 2.99056 41.4326 3.00879C41.4782 3.02702 41.526 3.06348 41.5762 3.11816C41.6263 3.16829 41.7061 3.25716 41.8154 3.38477H41.8428C41.902 3.38477 41.9635 3.40755 42.0273 3.45312C42.0911 3.49414 42.1504 3.54655 42.2051 3.61035C42.2643 3.6696 42.3145 3.7334 42.3555 3.80176C42.3965 3.86556 42.4261 3.92253 42.4443 3.97266C42.4717 4.04102 42.4876 4.11621 42.4922 4.19824C42.4967 4.27572 42.5127 4.34863 42.54 4.41699C42.5674 4.48079 42.6016 4.54004 42.6426 4.59473C42.6836 4.64941 42.7223 4.7041 42.7588 4.75879C42.7998 4.81348 42.834 4.87044 42.8613 4.92969C42.8932 4.98893 42.9092 5.05273 42.9092 5.12109C42.9092 5.21224 42.8978 5.30111 42.875 5.3877C42.8568 5.46973 42.8477 5.55404 42.8477 5.64062C42.8477 5.7181 42.8636 5.79329 42.8955 5.86621C42.932 5.93457 42.9502 6.00749 42.9502 6.08496C42.9502 6.18522 42.932 6.28092 42.8955 6.37207C42.8636 6.46322 42.8477 6.55892 42.8477 6.65918C42.8477 6.79134 42.8636 6.9235 42.8955 7.05566C42.932 7.18783 42.9775 7.31771 43.0322 7.44531C43.0049 7.52734 42.9912 7.61621 42.9912 7.71191C42.9912 7.84408 43.0049 7.97396 43.0322 8.10156C43.0596 8.22461 43.0732 8.34993 43.0732 8.47754C43.0732 8.54134 43.0664 8.60059 43.0527 8.65527C43.0391 8.70996 43.0231 8.76465 43.0049 8.81934C42.9867 8.87402 42.9707 8.92871 42.957 8.9834C42.9434 9.03809 42.9365 9.09961 42.9365 9.16797C42.9365 9.3138 42.9548 9.45736 42.9912 9.59863C43.0277 9.73991 43.0732 9.88118 43.1279 10.0225ZM41.5078 7.79395C41.5078 7.70736 41.501 7.62533 41.4873 7.54785C41.4736 7.47038 41.4668 7.38835 41.4668 7.30176C41.4668 7.20605 41.4508 7.13542 41.4189 7.08984C41.387 7.04427 41.3232 7.02604 41.2275 7.03516H41.1387C41.0749 7.0944 41.0156 7.1582 40.9609 7.22656C40.9108 7.29492 40.8493 7.35417 40.7764 7.4043C40.7126 7.44531 40.6419 7.47493 40.5645 7.49316C40.487 7.51139 40.4232 7.55469 40.373 7.62305H40.3457C40.2819 7.62305 40.2272 7.63444 40.1816 7.65723C40.1361 7.67546 40.0905 7.69596 40.0449 7.71875C39.9993 7.73698 39.9492 7.75293 39.8945 7.7666C39.8444 7.78027 39.7806 7.78027 39.7031 7.7666C39.6302 7.88053 39.5596 7.99902 39.4912 8.12207C39.4229 8.24056 39.3249 8.33171 39.1973 8.39551L39.0811 8.38184C38.999 8.37728 38.9147 8.38639 38.8281 8.40918C38.7461 8.43197 38.6709 8.46615 38.6025 8.51172C38.5387 8.55729 38.4863 8.61426 38.4453 8.68262C38.4043 8.75098 38.3838 8.83301 38.3838 8.92871C38.3838 9.05176 38.402 9.14518 38.4385 9.20898C38.4749 9.26823 38.5205 9.31836 38.5752 9.35938C38.6299 9.39583 38.6891 9.43001 38.7529 9.46191C38.8167 9.49382 38.876 9.54395 38.9307 9.6123C38.9808 9.62142 39.0332 9.6237 39.0879 9.61914C39.1426 9.61458 39.1973 9.6123 39.252 9.6123C39.2884 9.6123 39.3249 9.61458 39.3613 9.61914C39.4023 9.61914 39.4365 9.63053 39.4639 9.65332C39.5186 9.60319 39.5641 9.56673 39.6006 9.54395C39.637 9.5166 39.6986 9.50749 39.7852 9.5166C39.89 9.38444 40.0199 9.2819 40.1748 9.20898C40.3298 9.13607 40.4847 9.07454 40.6396 9.02441C40.6488 8.97428 40.6693 8.93099 40.7012 8.89453C40.7376 8.85807 40.7764 8.82617 40.8174 8.79883C40.8584 8.76693 40.8994 8.73958 40.9404 8.7168C40.9814 8.68945 41.0156 8.65755 41.043 8.62109C41.0703 8.59375 41.109 8.54134 41.1592 8.46387C41.2139 8.38639 41.2663 8.30436 41.3164 8.21777C41.3711 8.12663 41.4167 8.04232 41.4531 7.96484C41.4896 7.88737 41.5078 7.8304 41.5078 7.79395ZM51.1123 7.08301C51.0895 7.18327 51.0553 7.28125 51.0098 7.37695C50.9688 7.47266 50.9255 7.56836 50.8799 7.66406C50.8389 7.75977 50.8001 7.85775 50.7637 7.95801C50.7318 8.05371 50.7135 8.15397 50.709 8.25879C50.6999 8.31803 50.6862 8.35677 50.668 8.375C50.6497 8.38867 50.6292 8.40462 50.6064 8.42285C50.5837 8.44108 50.5632 8.46842 50.5449 8.50488C50.5312 8.54134 50.5244 8.60742 50.5244 8.70312C50.5244 8.76237 50.5176 8.84668 50.5039 8.95605C50.4902 9.06543 50.4697 9.18848 50.4424 9.3252C50.415 9.45736 50.3831 9.59635 50.3467 9.74219C50.3148 9.88346 50.2783 10.0179 50.2373 10.1455C50.1963 10.2686 50.153 10.3757 50.1074 10.4668C50.0664 10.5579 50.0231 10.6195 49.9775 10.6514C49.9639 10.6878 49.9548 10.7266 49.9502 10.7676C49.9502 10.804 49.9456 10.8405 49.9365 10.877C49.9274 10.9134 49.9115 10.9453 49.8887 10.9727C49.8704 11 49.8545 11.0273 49.8408 11.0547C49.7998 11.1732 49.7725 11.2575 49.7588 11.3076C49.7497 11.3623 49.736 11.4033 49.7178 11.4307C49.7041 11.4626 49.6745 11.4945 49.6289 11.5264C49.5833 11.5583 49.5036 11.6107 49.3896 11.6836C49.3486 11.7201 49.2939 11.7588 49.2256 11.7998C49.1572 11.8454 49.0957 11.8682 49.041 11.8682C48.959 11.8682 48.8815 11.8522 48.8086 11.8203C48.7357 11.793 48.665 11.7565 48.5967 11.7109C48.5283 11.6699 48.4577 11.6266 48.3848 11.5811C48.3164 11.5355 48.2458 11.4967 48.1729 11.4648V11.4307C48.1729 11.3942 48.1592 11.3555 48.1318 11.3145C48.1045 11.2734 48.0908 11.2347 48.0908 11.1982L48.1318 11.1572C48.1227 11.098 48.1113 11.041 48.0977 10.9863C48.084 10.9316 48.0771 10.8747 48.0771 10.8154C48.0771 10.7744 48.1022 10.6924 48.1523 10.5693C48.2025 10.4417 48.2617 10.3073 48.3301 10.166C48.3984 10.0247 48.4645 9.89258 48.5283 9.76953C48.5967 9.64193 48.6468 9.55762 48.6787 9.5166C48.7197 9.46191 48.7676 9.41406 48.8223 9.37305C48.877 9.32747 48.918 9.27279 48.9453 9.20898C48.9818 9.11784 48.9977 9.01986 48.9932 8.91504C48.9932 8.81022 49.0046 8.71224 49.0273 8.62109C49.041 8.57096 49.0638 8.52767 49.0957 8.49121C49.1276 8.4502 49.1527 8.40462 49.1709 8.35449C49.1982 8.25423 49.2051 8.15397 49.1914 8.05371C49.1823 7.95345 49.1891 7.85775 49.2119 7.7666C49.2256 7.69368 49.2507 7.61849 49.2871 7.54102C49.3281 7.46354 49.3486 7.38835 49.3486 7.31543C49.3486 7.25163 49.3418 7.19238 49.3281 7.1377C49.3145 7.07845 49.3076 7.01693 49.3076 6.95312C49.3076 6.83919 49.3099 6.72982 49.3145 6.625C49.319 6.52018 49.3213 6.41536 49.3213 6.31055C49.3213 6.10547 49.2939 5.91862 49.2393 5.75C49.1891 5.57682 49.0775 5.43783 48.9043 5.33301L48.8428 5.23047C48.8291 5.22135 48.8154 5.22135 48.8018 5.23047C48.7881 5.23958 48.7699 5.24414 48.7471 5.24414C48.7197 5.24414 48.6947 5.23047 48.6719 5.20312C48.6536 5.17122 48.624 5.13932 48.583 5.10742C48.5465 5.07096 48.4941 5.03906 48.4258 5.01172C48.362 4.97982 48.2731 4.96387 48.1592 4.96387C48.0088 4.96387 47.8789 4.99577 47.7695 5.05957C47.6647 5.11882 47.5667 5.19401 47.4756 5.28516C47.3844 5.37174 47.2956 5.46517 47.209 5.56543C47.1224 5.66113 47.0244 5.74544 46.915 5.81836C46.9196 5.88672 46.9105 5.94368 46.8877 5.98926C46.8649 6.03483 46.8353 6.07812 46.7988 6.11914C46.7669 6.1556 46.7305 6.19434 46.6895 6.23535C46.653 6.27181 46.6211 6.3151 46.5938 6.36523C46.5801 6.39258 46.5732 6.42448 46.5732 6.46094C46.5732 6.49284 46.5664 6.52246 46.5527 6.5498C46.5163 6.60449 46.4684 6.65234 46.4092 6.69336C46.3545 6.72982 46.3135 6.78451 46.2861 6.85742C46.2542 6.92578 46.2383 7.00098 46.2383 7.08301C46.2383 7.16048 46.2337 7.2334 46.2246 7.30176C46.2246 7.33822 46.2178 7.36784 46.2041 7.39062C46.195 7.41341 46.1836 7.4362 46.1699 7.45898C46.1562 7.47721 46.1426 7.49544 46.1289 7.51367C46.1152 7.5319 46.1061 7.55469 46.1016 7.58203C46.0879 7.68685 46.0811 7.79167 46.0811 7.89648C46.0811 8.0013 46.056 8.10612 46.0059 8.21094C46.0423 8.31576 46.0811 8.42057 46.1221 8.52539C46.1631 8.62565 46.1836 8.73275 46.1836 8.84668C46.1836 8.97884 46.1631 9.10872 46.1221 9.23633C46.0811 9.36393 46.0605 9.49382 46.0605 9.62598C46.0605 9.73991 46.0879 9.83789 46.1426 9.91992C46.0788 10.0977 46.0309 10.2799 45.999 10.4668C45.9671 10.6491 45.9261 10.8314 45.876 11.0137C45.8213 11.0638 45.7575 11.1003 45.6846 11.123C45.6117 11.1458 45.541 11.1572 45.4727 11.1572C45.3405 11.1572 45.2106 11.1413 45.083 11.1094C44.9554 11.082 44.8278 11.0638 44.7002 11.0547C44.6865 11 44.6592 10.9544 44.6182 10.918C44.5817 10.877 44.5407 10.8382 44.4951 10.8018C44.4541 10.7653 44.4176 10.7243 44.3857 10.6787C44.3538 10.6286 44.3379 10.5671 44.3379 10.4941C44.3379 10.4303 44.3561 10.3597 44.3926 10.2822C44.4336 10.2048 44.4609 10.1318 44.4746 10.0635C44.4837 9.99967 44.4837 9.93359 44.4746 9.86523C44.4655 9.79688 44.4609 9.72624 44.4609 9.65332C44.4609 9.53027 44.4814 9.40495 44.5225 9.27734C44.568 9.14974 44.5954 9.01986 44.6045 8.8877C44.609 8.81934 44.6113 8.7487 44.6113 8.67578C44.6113 8.59831 44.6136 8.52311 44.6182 8.4502C44.6227 8.37272 44.6318 8.29753 44.6455 8.22461C44.6637 8.15169 44.6956 8.08789 44.7412 8.0332C44.7275 7.98307 44.7139 7.93294 44.7002 7.88281C44.6911 7.82812 44.6865 7.77572 44.6865 7.72559C44.6865 7.67546 44.6956 7.62988 44.7139 7.58887C44.7321 7.54329 44.7412 7.5 44.7412 7.45898C44.7412 7.41797 44.7275 7.38607 44.7002 7.36328C44.6729 7.33594 44.6592 7.30176 44.6592 7.26074L44.7002 7.21973C44.6911 7.16504 44.682 7.11263 44.6729 7.0625C44.6637 7.00781 44.6592 6.95312 44.6592 6.89844C44.6592 6.77083 44.6797 6.65007 44.7207 6.53613C44.7663 6.41764 44.7891 6.2946 44.7891 6.16699C44.7891 6.06217 44.7799 5.96191 44.7617 5.86621C44.748 5.76595 44.7412 5.66569 44.7412 5.56543C44.7412 5.49707 44.748 5.43099 44.7617 5.36719C44.7799 5.29883 44.7959 5.23275 44.8096 5.16895C44.8278 5.10514 44.8438 5.04134 44.8574 4.97754C44.8757 4.90918 44.8848 4.84082 44.8848 4.77246C44.8848 4.71777 44.8757 4.66536 44.8574 4.61523C44.8438 4.5651 44.8255 4.51497 44.8027 4.46484C44.7845 4.41471 44.7663 4.36458 44.748 4.31445C44.7344 4.26432 44.7275 4.21191 44.7275 4.15723C44.7275 3.93848 44.7822 3.73112 44.8916 3.53516C45.001 3.33919 45.1331 3.16829 45.2881 3.02246C45.2972 3.02246 45.3063 3.02474 45.3154 3.0293C45.3245 3.03385 45.3337 3.03613 45.3428 3.03613C45.3929 3.03613 45.4362 3.02702 45.4727 3.00879C45.5137 2.986 45.5547 2.97461 45.5957 2.97461C45.7142 2.97461 45.8167 3.00423 45.9033 3.06348C45.9945 3.11816 46.0879 3.16374 46.1836 3.2002C46.2474 3.37337 46.2998 3.54883 46.3408 3.72656C46.3864 3.9043 46.4092 4.08887 46.4092 4.28027C46.4593 4.2666 46.5049 4.24837 46.5459 4.22559C46.5915 4.19824 46.6348 4.1709 46.6758 4.14355C46.7214 4.11621 46.7646 4.09115 46.8057 4.06836C46.8512 4.04102 46.9014 4.02279 46.9561 4.01367C47.0016 3.98177 47.0404 3.94531 47.0723 3.9043C47.1042 3.85872 47.1338 3.81315 47.1611 3.76758C47.193 3.72201 47.2227 3.67871 47.25 3.6377C47.2819 3.59212 47.3184 3.55339 47.3594 3.52148C47.4141 3.48047 47.5007 3.43717 47.6191 3.3916C47.7422 3.34603 47.8698 3.30501 48.002 3.26855C48.1387 3.22754 48.2708 3.19564 48.3984 3.17285C48.526 3.14551 48.624 3.13184 48.6924 3.13184C48.7744 3.13184 48.8473 3.14095 48.9111 3.15918C48.9795 3.17285 49.0433 3.19336 49.1025 3.2207C49.1663 3.24349 49.2279 3.27083 49.2871 3.30273C49.3509 3.33008 49.4193 3.35742 49.4922 3.38477C49.5195 3.39388 49.5469 3.40072 49.5742 3.40527C49.6016 3.40527 49.6335 3.41211 49.6699 3.42578C49.7246 3.44857 49.7725 3.48047 49.8135 3.52148C49.859 3.55794 49.9046 3.59668 49.9502 3.6377C49.9958 3.67871 50.0413 3.71745 50.0869 3.75391C50.137 3.78581 50.1895 3.81087 50.2441 3.8291C50.2715 3.90658 50.3079 3.97493 50.3535 4.03418C50.4036 4.09342 50.4606 4.14811 50.5244 4.19824C50.5381 4.29395 50.5632 4.38509 50.5996 4.47168C50.6406 4.55371 50.6794 4.63802 50.7158 4.72461C50.7568 4.80664 50.7933 4.89095 50.8252 4.97754C50.8571 5.05957 50.873 5.14844 50.873 5.24414C50.873 5.30339 50.8662 5.35579 50.8525 5.40137C50.8389 5.44238 50.832 5.48796 50.832 5.53809C50.832 5.5791 50.8389 5.611 50.8525 5.63379C50.8708 5.65658 50.8867 5.67936 50.9004 5.70215C50.9186 5.72038 50.9346 5.74316 50.9482 5.77051C50.9665 5.79329 50.9756 5.82292 50.9756 5.85938C50.9756 5.96419 50.971 6.06673 50.9619 6.16699C50.9528 6.26725 50.9482 6.36979 50.9482 6.47461C50.9482 6.57943 50.9596 6.68424 50.9824 6.78906C51.0052 6.89388 51.0485 6.99186 51.1123 7.08301ZM57.873 3.77441C57.873 3.87467 57.8434 3.96354 57.7842 4.04102C57.7295 4.11393 57.6839 4.19368 57.6475 4.28027C57.5654 4.29395 57.4925 4.31901 57.4287 4.35547C57.3695 4.38737 57.3079 4.42383 57.2441 4.46484C57.1849 4.5013 57.1188 4.5332 57.0459 4.56055C56.973 4.58789 56.8887 4.60156 56.793 4.60156C56.7018 4.60156 56.613 4.59245 56.5264 4.57422C56.4443 4.55599 56.36 4.54688 56.2734 4.54688C56.1595 4.54688 56.0501 4.56966 55.9453 4.61523C55.8451 4.66081 55.7357 4.68359 55.6172 4.68359C55.5033 4.68359 55.387 4.6722 55.2686 4.64941C55.1546 4.62663 55.043 4.61523 54.9336 4.61523C54.8971 4.61523 54.863 4.61751 54.8311 4.62207C54.8037 4.62663 54.7764 4.62891 54.749 4.62891C54.708 4.71549 54.6898 4.80436 54.6943 4.89551C54.7035 4.98665 54.708 5.07552 54.708 5.16211C54.708 5.31706 54.6921 5.47201 54.6602 5.62695C54.6328 5.7819 54.6191 5.93913 54.6191 6.09863C54.6191 6.22624 54.6328 6.35156 54.6602 6.47461C54.6921 6.5931 54.708 6.71615 54.708 6.84375C54.708 6.91211 54.6989 6.97591 54.6807 7.03516C54.6624 7.08984 54.6396 7.14453 54.6123 7.19922C54.5895 7.25391 54.569 7.30859 54.5508 7.36328C54.5326 7.41797 54.5234 7.47721 54.5234 7.54102C54.5234 7.58203 54.5303 7.62533 54.5439 7.6709C54.5576 7.71191 54.5645 7.75293 54.5645 7.79395L54.5234 7.83496C54.5234 7.85319 54.528 7.86914 54.5371 7.88281C54.5462 7.89193 54.5576 7.9056 54.5713 7.92383C54.585 7.9375 54.5964 7.95573 54.6055 7.97852C54.6146 8.0013 54.6191 8.0332 54.6191 8.07422C54.6191 8.19271 54.61 8.3112 54.5918 8.42969C54.5736 8.54818 54.5645 8.66667 54.5645 8.78516C54.5645 8.80794 54.569 8.85807 54.5781 8.93555C54.5872 9.00846 54.5986 9.09505 54.6123 9.19531C54.6305 9.29557 54.6465 9.40039 54.6602 9.50977C54.6784 9.61914 54.6966 9.72168 54.7148 9.81738C54.7331 9.91309 54.749 9.99512 54.7627 10.0635C54.7809 10.1318 54.7946 10.1729 54.8037 10.1865C54.8402 10.2367 54.8835 10.2777 54.9336 10.3096C54.9837 10.3369 55.0293 10.3711 55.0703 10.4121C55.0885 10.4212 55.1159 10.4258 55.1523 10.4258C55.2025 10.4258 55.248 10.4189 55.2891 10.4053C55.3346 10.3916 55.3825 10.3802 55.4326 10.3711C55.4827 10.3574 55.5329 10.3506 55.583 10.3506C55.6377 10.3506 55.6901 10.3438 55.7402 10.3301C55.7949 10.3073 55.8428 10.2777 55.8838 10.2412C55.9248 10.2048 55.9635 10.1706 56 10.1387C56.041 10.1022 56.0843 10.0726 56.1299 10.0498C56.1755 10.0225 56.2279 10.0088 56.2871 10.0088C56.3646 9.86751 56.4489 9.73307 56.54 9.60547C56.6357 9.47786 56.7155 9.34115 56.7793 9.19531C56.7975 9.20443 56.8158 9.20898 56.834 9.20898C56.8704 9.20898 56.9001 9.19987 56.9229 9.18164C56.9502 9.16341 56.9821 9.1543 57.0186 9.1543C57.0231 9.1543 57.0459 9.16113 57.0869 9.1748C57.1279 9.18392 57.1712 9.19759 57.2168 9.21582C57.2624 9.22949 57.3057 9.24544 57.3467 9.26367C57.3877 9.27734 57.4128 9.28646 57.4219 9.29102C57.4492 9.3138 57.4697 9.35482 57.4834 9.41406C57.5016 9.47331 57.5221 9.52116 57.5449 9.55762C57.5677 9.59408 57.5882 9.62142 57.6064 9.63965C57.6247 9.65788 57.6383 9.67839 57.6475 9.70117C57.6611 9.7194 57.6702 9.74219 57.6748 9.76953C57.6839 9.79688 57.6885 9.83789 57.6885 9.89258C57.6885 10.0339 57.6589 10.1683 57.5996 10.2959C57.5449 10.4189 57.4993 10.5465 57.4629 10.6787C57.4036 10.7015 57.3558 10.7357 57.3193 10.7812C57.2829 10.8223 57.2464 10.8656 57.21 10.9111C57.1781 10.9567 57.1393 10.9977 57.0938 11.0342C57.0527 11.0706 56.9935 11.0911 56.916 11.0957C56.8796 11.2005 56.8203 11.2894 56.7383 11.3623C56.6562 11.4352 56.5674 11.4967 56.4717 11.5469C56.4443 11.5742 56.4056 11.5879 56.3555 11.5879C56.3281 11.5879 56.2962 11.5811 56.2598 11.5674C56.2279 11.5537 56.2051 11.5332 56.1914 11.5059C56.1322 11.5286 56.0889 11.5514 56.0615 11.5742C56.0387 11.6016 56.0182 11.6289 56 11.6562C55.9818 11.6882 55.9613 11.7178 55.9385 11.7451C55.9202 11.7725 55.8883 11.7975 55.8428 11.8203C55.8018 11.8431 55.7402 11.8613 55.6582 11.875C55.5807 11.8887 55.4736 11.8955 55.3369 11.8955C55.2731 11.8955 55.2093 11.8978 55.1455 11.9023C55.0863 11.9115 55.0293 11.9274 54.9746 11.9502C54.8698 11.8773 54.7399 11.8317 54.585 11.8135C54.43 11.7998 54.2887 11.7861 54.1611 11.7725C54.1702 11.7269 54.1566 11.7041 54.1201 11.7041C54.0837 11.7041 54.054 11.6927 54.0312 11.6699C53.9811 11.6426 53.9401 11.6016 53.9082 11.5469C53.8763 11.4967 53.8239 11.4648 53.751 11.4512C53.7464 11.3965 53.7282 11.3441 53.6963 11.2939C53.6644 11.2484 53.6279 11.2028 53.5869 11.1572C53.5505 11.1117 53.514 11.0638 53.4775 11.0137C53.4411 10.9681 53.416 10.918 53.4023 10.8633C53.3613 10.7311 53.3112 10.599 53.252 10.4668C53.1973 10.3301 53.154 10.1911 53.1221 10.0498C53.1084 9.986 53.0947 9.90397 53.0811 9.80371C53.0719 9.69889 53.0628 9.58952 53.0537 9.47559C53.0492 9.36165 53.0446 9.25228 53.04 9.14746C53.04 9.04264 53.04 8.95605 53.04 8.8877C53.04 8.77376 53.0537 8.66667 53.0811 8.56641C53.1084 8.46159 53.1221 8.35449 53.1221 8.24512C53.1221 8.09928 53.1107 7.95573 53.0879 7.81445C53.0651 7.67318 53.0492 7.5319 53.04 7.39062C53.0309 7.31315 53.0309 7.23568 53.04 7.1582C53.0492 7.08073 53.0537 7.00326 53.0537 6.92578C53.0537 6.80729 53.0355 6.70475 52.999 6.61816C53.0264 6.59993 53.0492 6.57259 53.0674 6.53613C53.0902 6.49967 53.1084 6.46094 53.1221 6.41992C53.1357 6.37435 53.1449 6.32878 53.1494 6.2832C53.1585 6.23763 53.1631 6.19889 53.1631 6.16699L53.1221 6.12598C53.1312 6.05762 53.138 5.98926 53.1426 5.9209C53.1471 5.84798 53.1494 5.77734 53.1494 5.70898C53.1494 5.63607 53.1403 5.56771 53.1221 5.50391C53.1084 5.43555 53.0811 5.37402 53.04 5.31934C53.0309 5.24642 53.0378 5.17806 53.0605 5.11426C53.0833 5.05046 53.0947 4.98665 53.0947 4.92285L53.0811 4.81348C52.9762 4.7998 52.8669 4.79753 52.7529 4.80664C52.639 4.8112 52.5296 4.81348 52.4248 4.81348C52.3519 4.81348 52.279 4.81348 52.2061 4.81348C52.1331 4.80892 52.0648 4.79525 52.001 4.77246C51.9326 4.6722 51.862 4.57422 51.7891 4.47852C51.7161 4.37826 51.6797 4.26432 51.6797 4.13672C51.6797 3.99089 51.7161 3.86328 51.7891 3.75391C51.862 3.64453 51.9326 3.5306 52.001 3.41211C52.0557 3.40755 52.1104 3.39388 52.165 3.37109C52.2197 3.34831 52.2721 3.32324 52.3223 3.2959C52.377 3.26855 52.4294 3.24349 52.4795 3.2207C52.5296 3.19792 52.582 3.18652 52.6367 3.18652C52.7324 3.18652 52.8236 3.21159 52.9102 3.26172C52.9967 3.30729 53.0924 3.33008 53.1973 3.33008H53.2656C53.2884 3.27995 53.3089 3.22754 53.3271 3.17285C53.3499 3.11816 53.3568 3.06348 53.3477 3.00879C53.3249 2.99056 53.3044 2.97233 53.2861 2.9541C53.2725 2.93132 53.2656 2.90625 53.2656 2.87891C53.2656 2.85612 53.2725 2.83789 53.2861 2.82422C53.2998 2.80599 53.3066 2.77865 53.3066 2.74219C53.3066 2.63737 53.293 2.53255 53.2656 2.42773C53.2383 2.31836 53.2246 2.20671 53.2246 2.09277C53.2246 2.00163 53.2383 1.88997 53.2656 1.75781C53.2975 1.62565 53.3363 1.49349 53.3818 1.36133C53.432 1.22461 53.4889 1.09701 53.5527 0.978516C53.6165 0.860026 53.6826 0.771159 53.751 0.711914C53.8102 0.702799 53.8672 0.698242 53.9219 0.698242C53.9766 0.698242 54.0335 0.698242 54.0928 0.698242C54.2295 0.698242 54.3457 0.727865 54.4414 0.787109C54.5371 0.846354 54.6146 0.923828 54.6738 1.01953C54.7331 1.11523 54.7764 1.22461 54.8037 1.34766C54.8311 1.46615 54.8447 1.58464 54.8447 1.70312C54.8447 1.7806 54.8242 1.8763 54.7832 1.99023C54.7422 2.10417 54.7217 2.22721 54.7217 2.35938C54.7217 2.46419 54.7262 2.57357 54.7354 2.6875C54.7445 2.79688 54.749 2.90397 54.749 3.00879C54.7718 3.00879 54.7946 3.00651 54.8174 3.00195C54.8402 2.9974 54.863 2.99512 54.8857 2.99512C54.9769 2.99512 55.0635 3.01107 55.1455 3.04297C55.2275 3.07487 55.3141 3.09082 55.4053 3.09082C55.4691 3.09082 55.5215 3.07715 55.5625 3.0498C55.599 3.0498 55.6286 3.05892 55.6514 3.07715C55.6742 3.09082 55.6924 3.10905 55.7061 3.13184C55.7243 3.15007 55.7425 3.17057 55.7607 3.19336C55.7835 3.21159 55.8109 3.22298 55.8428 3.22754C55.9111 3.2002 55.9749 3.16374 56.0342 3.11816C56.098 3.07259 56.1686 3.03613 56.2461 3.00879H57.4219C57.4583 3.03613 57.4902 3.06576 57.5176 3.09766C57.5449 3.12956 57.5882 3.14551 57.6475 3.14551C57.652 3.2002 57.6657 3.2526 57.6885 3.30273C57.7158 3.35286 57.7432 3.40299 57.7705 3.45312C57.7979 3.50326 57.8206 3.55566 57.8389 3.61035C57.8617 3.66048 57.873 3.71517 57.873 3.77441ZM64.5518 8.78516C64.5518 8.85807 64.5609 8.92643 64.5791 8.99023C64.5973 9.05404 64.6064 9.1224 64.6064 9.19531C64.6064 9.25 64.5928 9.29557 64.5654 9.33203C64.5426 9.36849 64.5244 9.41634 64.5107 9.47559C64.4834 9.56673 64.4515 9.66243 64.415 9.7627C64.3786 9.8584 64.3444 9.95638 64.3125 10.0566C64.2852 10.1569 64.2624 10.2572 64.2441 10.3574C64.2305 10.4577 64.2305 10.5557 64.2441 10.6514C64.1758 10.7243 64.1165 10.8086 64.0664 10.9043C64.0208 10.9954 63.9798 11.0911 63.9434 11.1914C63.9069 11.2917 63.8727 11.3919 63.8408 11.4922C63.8089 11.597 63.7747 11.695 63.7383 11.7861C63.6016 11.859 63.4648 11.8955 63.3281 11.8955C63.2461 11.8955 63.1572 11.8704 63.0615 11.8203C62.9704 11.7747 62.8838 11.7155 62.8018 11.6426C62.7243 11.5742 62.6582 11.4967 62.6035 11.4102C62.5488 11.3236 62.5215 11.2393 62.5215 11.1572C62.5215 11.0433 62.5374 10.9316 62.5693 10.8223C62.6012 10.7129 62.6172 10.5944 62.6172 10.4668C62.6172 10.4167 62.6423 10.3665 62.6924 10.3164C62.7425 10.2617 62.7744 10.2093 62.7881 10.1592C62.7926 10.141 62.8018 10.0931 62.8154 10.0156C62.8291 9.93359 62.8405 9.84701 62.8496 9.75586C62.8633 9.66471 62.8724 9.57812 62.877 9.49609C62.8861 9.41406 62.8883 9.36393 62.8838 9.3457C62.9521 9.27734 63.0068 9.19987 63.0479 9.11328C63.0934 9.02669 63.1322 8.93783 63.1641 8.84668C63.2005 8.75098 63.2347 8.65755 63.2666 8.56641C63.2985 8.4707 63.335 8.38184 63.376 8.2998C63.3669 8.27702 63.3623 8.25195 63.3623 8.22461C63.3623 8.19727 63.3623 8.16992 63.3623 8.14258C63.3623 8.02409 63.3805 7.91016 63.417 7.80078C63.4535 7.69141 63.4717 7.57747 63.4717 7.45898C63.4717 7.38607 63.4648 7.31543 63.4512 7.24707C63.4375 7.17871 63.4307 7.10807 63.4307 7.03516C63.4307 6.93945 63.4443 6.84375 63.4717 6.74805C63.499 6.64779 63.5127 6.54753 63.5127 6.44727C63.5127 6.36523 63.5013 6.26042 63.4785 6.13281C63.4557 6.00065 63.4238 5.86621 63.3828 5.72949C63.3464 5.59277 63.3008 5.46517 63.2461 5.34668C63.1914 5.22819 63.1322 5.14388 63.0684 5.09375C63.0091 4.88867 62.8678 4.78613 62.6445 4.78613C62.5443 4.78613 62.4372 4.80664 62.3232 4.84766C62.2139 4.88867 62.1068 4.94336 62.002 5.01172C61.8971 5.07552 61.8014 5.15072 61.7148 5.2373C61.6328 5.31934 61.569 5.40592 61.5234 5.49707C61.5143 5.52441 61.5075 5.54948 61.5029 5.57227C61.5029 5.59505 61.4961 5.61784 61.4824 5.64062C61.4414 5.7181 61.3867 5.78646 61.3184 5.8457C61.2546 5.90039 61.2021 5.96647 61.1611 6.04395C61.1201 6.13509 61.0951 6.23079 61.0859 6.33105C61.0768 6.43132 61.0609 6.53158 61.0381 6.63184C60.9652 6.69564 60.9014 6.76855 60.8467 6.85059C60.792 6.93262 60.7327 7.01009 60.6689 7.08301C60.6689 7.08757 60.6576 7.1263 60.6348 7.19922C60.612 7.27214 60.5824 7.36328 60.5459 7.47266C60.514 7.58203 60.4775 7.70052 60.4365 7.82812C60.4001 7.95573 60.3636 8.0765 60.3271 8.19043C60.2952 8.2998 60.2679 8.39323 60.2451 8.4707C60.2223 8.54818 60.2109 8.58919 60.2109 8.59375C60.2109 8.67122 60.2201 8.75098 60.2383 8.83301C60.2565 8.91048 60.2656 8.98796 60.2656 9.06543C60.2656 9.15202 60.2588 9.23861 60.2451 9.3252C60.2314 9.40723 60.2246 9.48926 60.2246 9.57129C60.2246 9.77637 60.2451 9.97917 60.2861 10.1797C60.3271 10.3757 60.3477 10.5785 60.3477 10.7881C60.3477 10.9202 60.3294 11.0205 60.293 11.0889C60.2565 11.1618 60.2132 11.221 60.1631 11.2666C60.1175 11.3122 60.0719 11.3555 60.0264 11.3965C59.9854 11.4375 59.958 11.4922 59.9443 11.5605L59.9033 11.5469C59.8623 11.5423 59.819 11.5469 59.7734 11.5605C59.7279 11.5788 59.6823 11.597 59.6367 11.6152C59.5911 11.638 59.5433 11.6562 59.4932 11.6699C59.4476 11.6882 59.3975 11.6973 59.3428 11.6973C59.2471 11.6973 59.1605 11.6676 59.083 11.6084C59.0055 11.5492 58.9372 11.474 58.8779 11.3828C58.8232 11.2962 58.7799 11.2028 58.748 11.1025C58.7161 11.0023 58.7002 10.9111 58.7002 10.8291C58.7002 10.5648 58.7139 10.3005 58.7412 10.0361C58.7686 9.77181 58.7822 9.50521 58.7822 9.23633C58.7822 8.89453 58.7822 8.55273 58.7822 8.21094C58.7822 7.86458 58.7777 7.52051 58.7686 7.17871C58.7686 7.1377 58.7617 7.09896 58.748 7.0625C58.7344 7.02604 58.7275 6.98958 58.7275 6.95312C58.7275 6.91211 58.7344 6.87337 58.748 6.83691C58.7617 6.80046 58.7686 6.75944 58.7686 6.71387C58.7686 6.63639 58.7549 6.55664 58.7275 6.47461C58.7002 6.39258 58.6865 6.31055 58.6865 6.22852C58.6865 6.16471 58.6979 6.10319 58.7207 6.04395C58.7435 5.9847 58.7594 5.92318 58.7686 5.85938C58.7959 5.69531 58.8096 5.52897 58.8096 5.36035C58.8096 5.12793 58.805 4.89779 58.7959 4.66992C58.7868 4.4375 58.7822 4.20508 58.7822 3.97266C58.7822 3.91797 58.7799 3.86328 58.7754 3.80859C58.7708 3.75391 58.7549 3.7015 58.7275 3.65137C58.7412 3.58757 58.7594 3.52832 58.7822 3.47363C58.8096 3.41895 58.8232 3.35742 58.8232 3.28906C58.8232 3.18424 58.8005 3.08398 58.7549 2.98828C58.7093 2.88802 58.6865 2.78548 58.6865 2.68066C58.6865 2.52116 58.7002 2.36165 58.7275 2.20215C58.7549 2.03809 58.7686 1.8763 58.7686 1.7168C58.7686 1.58464 58.7594 1.45475 58.7412 1.32715C58.723 1.19499 58.7139 1.06283 58.7139 0.930664C58.7139 0.698242 58.7822 0.527344 58.9189 0.417969C59.0557 0.304036 59.2288 0.24707 59.4385 0.24707C59.5114 0.24707 59.582 0.233398 59.6504 0.206055C59.7233 0.178711 59.7894 0.165039 59.8486 0.165039C59.8805 0.165039 59.9079 0.176432 59.9307 0.199219C59.9535 0.217448 59.9717 0.242513 59.9854 0.274414C59.999 0.306315 60.0127 0.338216 60.0264 0.370117C60.04 0.402018 60.0583 0.427083 60.0811 0.445312L60.1699 0.486328C60.1882 0.518229 60.2087 0.597982 60.2314 0.725586C60.2588 0.848633 60.2839 0.983073 60.3066 1.12891C60.334 1.27018 60.3568 1.4069 60.375 1.53906C60.3932 1.66667 60.4023 1.7487 60.4023 1.78516C60.4023 1.85352 60.3932 1.9196 60.375 1.9834C60.3568 2.04264 60.3363 2.10189 60.3135 2.16113C60.2907 2.22038 60.2702 2.27962 60.252 2.33887C60.2337 2.39811 60.2246 2.46191 60.2246 2.53027C60.2246 2.71257 60.2383 2.89486 60.2656 3.07715C60.293 3.25488 60.3066 3.43717 60.3066 3.62402C60.3066 3.76986 60.2884 3.91797 60.252 4.06836C60.2155 4.21419 60.1973 4.36003 60.1973 4.50586C60.1973 4.60612 60.2201 4.71322 60.2656 4.82715C60.3294 4.81803 60.3796 4.79525 60.416 4.75879C60.457 4.72233 60.4912 4.68132 60.5186 4.63574C60.5459 4.58561 60.5687 4.5332 60.5869 4.47852C60.6097 4.42383 60.637 4.37598 60.6689 4.33496C60.6917 4.30762 60.7236 4.27572 60.7646 4.23926C60.8057 4.19824 60.8467 4.15951 60.8877 4.12305C60.9333 4.08659 60.9743 4.05241 61.0107 4.02051C61.0472 3.98405 61.07 3.95443 61.0791 3.93164C61.1019 3.88607 61.1201 3.84961 61.1338 3.82227C61.1475 3.79492 61.1748 3.76986 61.2158 3.74707C61.2751 3.70605 61.3343 3.67188 61.3936 3.64453C61.4574 3.61263 61.5007 3.55339 61.5234 3.4668C61.6829 3.41667 61.8447 3.36654 62.0088 3.31641C62.1729 3.26628 62.3438 3.24121 62.5215 3.24121C62.6582 3.24121 62.7949 3.264 62.9316 3.30957C63.0729 3.35059 63.2074 3.39616 63.335 3.44629C63.4626 3.49642 63.5811 3.54427 63.6904 3.58984C63.7998 3.63086 63.8955 3.65137 63.9775 3.65137C64.014 3.65137 64.055 3.67871 64.1006 3.7334C64.1462 3.78353 64.194 3.81543 64.2441 3.8291C64.2806 3.93392 64.3011 4.04102 64.3057 4.15039C64.3102 4.25977 64.3307 4.36458 64.3672 4.46484C64.4082 4.56055 64.4606 4.65169 64.5244 4.73828C64.5928 4.82031 64.6475 4.90918 64.6885 5.00488C64.6794 5.05501 64.6702 5.10286 64.6611 5.14844C64.652 5.18945 64.6475 5.23503 64.6475 5.28516C64.6475 5.38542 64.6725 5.47656 64.7227 5.55859C64.7728 5.64062 64.8092 5.72721 64.832 5.81836C64.8457 5.90495 64.8525 5.99154 64.8525 6.07812C64.8571 6.16016 64.8594 6.24674 64.8594 6.33789C64.8594 6.5931 64.8548 6.86198 64.8457 7.14453C64.8411 7.42708 64.8161 7.69596 64.7705 7.95117C64.7614 8.01497 64.7432 8.08105 64.7158 8.14941C64.693 8.21777 64.668 8.28613 64.6406 8.35449C64.6178 8.42285 64.5973 8.49349 64.5791 8.56641C64.5609 8.63932 64.5518 8.71224 64.5518 8.78516ZM68.0107 1.07422C68.0107 1.12435 67.9993 1.15397 67.9766 1.16309C67.9583 1.16764 67.9424 1.18359 67.9287 1.21094C67.8877 1.29753 67.8672 1.39551 67.8672 1.50488C67.8717 1.61426 67.8604 1.7168 67.833 1.8125C67.8057 1.9082 67.7419 1.99023 67.6416 2.05859C67.5459 2.1224 67.3796 2.1543 67.1426 2.1543C67.0378 2.1543 66.9261 2.14062 66.8076 2.11328C66.6891 2.08594 66.5957 2.02897 66.5273 1.94238H66.459C66.3542 1.94238 66.2607 1.92415 66.1787 1.8877C66.0967 1.84668 66.0169 1.78971 65.9395 1.7168C65.9622 1.52083 65.9873 1.33398 66.0146 1.15625C66.0465 0.973958 66.0488 0.782552 66.0215 0.582031C66.0671 0.513672 66.1195 0.454427 66.1787 0.404297C66.238 0.354167 66.2995 0.308594 66.3633 0.267578C66.4316 0.222005 66.4977 0.178711 66.5615 0.137695C66.6299 0.0921224 66.6937 0.0442708 66.7529 -0.00585938C66.7894 0.00325521 66.8258 0.0100911 66.8623 0.0146484C66.8988 0.0192057 66.9352 0.0214844 66.9717 0.0214844C67.0446 0.0214844 67.113 0.0169271 67.1768 0.0078125C67.2406 -0.00130208 67.3089 -0.00585938 67.3818 -0.00585938C67.4229 0.0442708 67.4593 0.0852865 67.4912 0.117188C67.5231 0.144531 67.5322 0.192383 67.5186 0.260742C67.5687 0.278971 67.6097 0.306315 67.6416 0.342773C67.6735 0.374674 67.7031 0.411133 67.7305 0.452148C67.7624 0.493164 67.792 0.53418 67.8193 0.575195C67.8512 0.611654 67.8877 0.643555 67.9287 0.670898V0.698242C67.9287 0.766602 67.9424 0.830404 67.9697 0.889648C67.9971 0.948893 68.0107 1.01042 68.0107 1.07422ZM67.9834 4.41699C67.9834 4.49447 67.9697 4.56966 67.9424 4.64258C67.915 4.71549 67.8968 4.79069 67.8877 4.86816C67.8558 5.02767 67.8376 5.18717 67.833 5.34668C67.8285 5.50618 67.7988 5.66341 67.7441 5.81836C67.735 5.84115 67.7282 5.86393 67.7236 5.88672C67.7191 5.90495 67.7168 5.92546 67.7168 5.94824C67.7168 5.99837 67.7214 6.04622 67.7305 6.0918C67.7396 6.13281 67.7441 6.17839 67.7441 6.22852C67.7441 6.26953 67.7373 6.30827 67.7236 6.34473C67.71 6.37663 67.7031 6.41081 67.7031 6.44727C67.7031 6.4974 67.7168 6.55208 67.7441 6.61133C67.7715 6.66602 67.7852 6.72982 67.7852 6.80273C67.7852 6.87109 67.7783 6.94173 67.7646 7.01465C67.751 7.08301 67.7441 7.15137 67.7441 7.21973C67.7441 7.29264 67.751 7.361 67.7646 7.4248C67.7783 7.48861 67.7852 7.55469 67.7852 7.62305C67.7852 7.85547 67.776 8.08789 67.7578 8.32031C67.7396 8.54818 67.7305 8.77376 67.7305 8.99707C67.7305 9.12923 67.7419 9.26139 67.7646 9.39355C67.7874 9.52116 67.7988 9.65104 67.7988 9.7832C67.7988 9.96549 67.7601 10.1364 67.6826 10.2959C67.6097 10.4554 67.5094 10.6012 67.3818 10.7334C67.3089 10.7607 67.2406 10.7744 67.1768 10.7744C67.113 10.7699 67.0446 10.7744 66.9717 10.7881C66.9215 10.7972 66.8714 10.8177 66.8213 10.8496C66.7757 10.877 66.7279 10.8906 66.6777 10.8906C66.6094 10.8906 66.541 10.8496 66.4727 10.7676C66.4043 10.6855 66.3428 10.5898 66.2881 10.4805C66.238 10.3711 66.1969 10.2617 66.165 10.1523C66.1331 10.043 66.1172 9.96094 66.1172 9.90625C66.1172 9.73307 66.1309 9.56445 66.1582 9.40039C66.1901 9.23177 66.2061 9.06087 66.2061 8.8877C66.2061 8.79655 66.222 8.70768 66.2539 8.62109C66.2858 8.53451 66.3018 8.44108 66.3018 8.34082C66.3018 8.15853 66.279 7.97168 66.2334 7.78027C66.1878 7.58887 66.165 7.40202 66.165 7.21973C66.165 7.11491 66.1878 7.01009 66.2334 6.90527C66.279 6.7959 66.3018 6.68197 66.3018 6.56348C66.3018 6.44499 66.2949 6.32878 66.2812 6.21484C66.2676 6.09635 66.2607 5.97786 66.2607 5.85938C66.2471 5.69076 66.2425 5.52441 66.2471 5.36035C66.2562 5.19173 66.2607 5.02311 66.2607 4.85449C66.2607 4.7679 66.2516 4.68132 66.2334 4.59473C66.2152 4.50814 66.2061 4.42155 66.2061 4.33496C66.2061 4.2985 66.2152 4.2666 66.2334 4.23926C66.2516 4.21191 66.2607 4.18457 66.2607 4.15723C66.2607 4.07975 66.2539 4.00228 66.2402 3.9248C66.2266 3.84733 66.2197 3.77441 66.2197 3.70605C66.2197 3.62858 66.2334 3.54883 66.2607 3.4668L66.3428 3.42578V3.34375C66.3747 3.30273 66.4271 3.26628 66.5 3.23438C66.5729 3.19792 66.6504 3.16829 66.7324 3.14551C66.819 3.11816 66.9033 3.09766 66.9854 3.08398C67.0674 3.07031 67.1335 3.06348 67.1836 3.06348C67.2747 3.06348 67.3613 3.10221 67.4434 3.17969C67.5254 3.2526 67.5983 3.32096 67.6621 3.38477C67.7624 3.48047 67.8353 3.5625 67.8809 3.63086C67.9264 3.69466 67.9561 3.76074 67.9697 3.8291C67.988 3.89746 67.9948 3.97721 67.9902 4.06836C67.9857 4.15951 67.9834 4.27572 67.9834 4.41699ZM76.0088 7.08301C75.986 7.18327 75.9518 7.28125 75.9062 7.37695C75.8652 7.47266 75.8219 7.56836 75.7764 7.66406C75.7354 7.75977 75.6966 7.85775 75.6602 7.95801C75.6283 8.05371 75.61 8.15397 75.6055 8.25879C75.5964 8.31803 75.5827 8.35677 75.5645 8.375C75.5462 8.38867 75.5257 8.40462 75.5029 8.42285C75.4801 8.44108 75.4596 8.46842 75.4414 8.50488C75.4277 8.54134 75.4209 8.60742 75.4209 8.70312C75.4209 8.76237 75.4141 8.84668 75.4004 8.95605C75.3867 9.06543 75.3662 9.18848 75.3389 9.3252C75.3115 9.45736 75.2796 9.59635 75.2432 9.74219C75.2113 9.88346 75.1748 10.0179 75.1338 10.1455C75.0928 10.2686 75.0495 10.3757 75.0039 10.4668C74.9629 10.5579 74.9196 10.6195 74.874 10.6514C74.8604 10.6878 74.8512 10.7266 74.8467 10.7676C74.8467 10.804 74.8421 10.8405 74.833 10.877C74.8239 10.9134 74.8079 10.9453 74.7852 10.9727C74.7669 11 74.751 11.0273 74.7373 11.0547C74.6963 11.1732 74.6689 11.2575 74.6553 11.3076C74.6462 11.3623 74.6325 11.4033 74.6143 11.4307C74.6006 11.4626 74.571 11.4945 74.5254 11.5264C74.4798 11.5583 74.4001 11.6107 74.2861 11.6836C74.2451 11.7201 74.1904 11.7588 74.1221 11.7998C74.0537 11.8454 73.9922 11.8682 73.9375 11.8682C73.8555 11.8682 73.778 11.8522 73.7051 11.8203C73.6322 11.793 73.5615 11.7565 73.4932 11.7109C73.4248 11.6699 73.3542 11.6266 73.2812 11.5811C73.2129 11.5355 73.1423 11.4967 73.0693 11.4648V11.4307C73.0693 11.3942 73.0557 11.3555 73.0283 11.3145C73.001 11.2734 72.9873 11.2347 72.9873 11.1982L73.0283 11.1572C73.0192 11.098 73.0078 11.041 72.9941 10.9863C72.9805 10.9316 72.9736 10.8747 72.9736 10.8154C72.9736 10.7744 72.9987 10.6924 73.0488 10.5693C73.099 10.4417 73.1582 10.3073 73.2266 10.166C73.2949 10.0247 73.361 9.89258 73.4248 9.76953C73.4932 9.64193 73.5433 9.55762 73.5752 9.5166C73.6162 9.46191 73.6641 9.41406 73.7188 9.37305C73.7734 9.32747 73.8145 9.27279 73.8418 9.20898C73.8783 9.11784 73.8942 9.01986 73.8896 8.91504C73.8896 8.81022 73.901 8.71224 73.9238 8.62109C73.9375 8.57096 73.9603 8.52767 73.9922 8.49121C74.0241 8.4502 74.0492 8.40462 74.0674 8.35449C74.0947 8.25423 74.1016 8.15397 74.0879 8.05371C74.0788 7.95345 74.0856 7.85775 74.1084 7.7666C74.1221 7.69368 74.1471 7.61849 74.1836 7.54102C74.2246 7.46354 74.2451 7.38835 74.2451 7.31543C74.2451 7.25163 74.2383 7.19238 74.2246 7.1377C74.2109 7.07845 74.2041 7.01693 74.2041 6.95312C74.2041 6.83919 74.2064 6.72982 74.2109 6.625C74.2155 6.52018 74.2178 6.41536 74.2178 6.31055C74.2178 6.10547 74.1904 5.91862 74.1357 5.75C74.0856 5.57682 73.974 5.43783 73.8008 5.33301L73.7393 5.23047C73.7256 5.22135 73.7119 5.22135 73.6982 5.23047C73.6846 5.23958 73.6663 5.24414 73.6436 5.24414C73.6162 5.24414 73.5911 5.23047 73.5684 5.20312C73.5501 5.17122 73.5205 5.13932 73.4795 5.10742C73.443 5.07096 73.3906 5.03906 73.3223 5.01172C73.2585 4.97982 73.1696 4.96387 73.0557 4.96387C72.9053 4.96387 72.7754 4.99577 72.666 5.05957C72.5612 5.11882 72.4632 5.19401 72.3721 5.28516C72.2809 5.37174 72.1921 5.46517 72.1055 5.56543C72.0189 5.66113 71.9209 5.74544 71.8115 5.81836C71.8161 5.88672 71.807 5.94368 71.7842 5.98926C71.7614 6.03483 71.7318 6.07812 71.6953 6.11914C71.6634 6.1556 71.627 6.19434 71.5859 6.23535C71.5495 6.27181 71.5176 6.3151 71.4902 6.36523C71.4766 6.39258 71.4697 6.42448 71.4697 6.46094C71.4697 6.49284 71.4629 6.52246 71.4492 6.5498C71.4128 6.60449 71.3649 6.65234 71.3057 6.69336C71.251 6.72982 71.21 6.78451 71.1826 6.85742C71.1507 6.92578 71.1348 7.00098 71.1348 7.08301C71.1348 7.16048 71.1302 7.2334 71.1211 7.30176C71.1211 7.33822 71.1143 7.36784 71.1006 7.39062C71.0915 7.41341 71.0801 7.4362 71.0664 7.45898C71.0527 7.47721 71.0391 7.49544 71.0254 7.51367C71.0117 7.5319 71.0026 7.55469 70.998 7.58203C70.9844 7.68685 70.9775 7.79167 70.9775 7.89648C70.9775 8.0013 70.9525 8.10612 70.9023 8.21094C70.9388 8.31576 70.9775 8.42057 71.0186 8.52539C71.0596 8.62565 71.0801 8.73275 71.0801 8.84668C71.0801 8.97884 71.0596 9.10872 71.0186 9.23633C70.9775 9.36393 70.957 9.49382 70.957 9.62598C70.957 9.73991 70.9844 9.83789 71.0391 9.91992C70.9753 10.0977 70.9274 10.2799 70.8955 10.4668C70.8636 10.6491 70.8226 10.8314 70.7725 11.0137C70.7178 11.0638 70.654 11.1003 70.5811 11.123C70.5081 11.1458 70.4375 11.1572 70.3691 11.1572C70.237 11.1572 70.1071 11.1413 69.9795 11.1094C69.8519 11.082 69.7243 11.0638 69.5967 11.0547C69.583 11 69.5557 10.9544 69.5146 10.918C69.4782 10.877 69.4372 10.8382 69.3916 10.8018C69.3506 10.7653 69.3141 10.7243 69.2822 10.6787C69.2503 10.6286 69.2344 10.5671 69.2344 10.4941C69.2344 10.4303 69.2526 10.3597 69.2891 10.2822C69.3301 10.2048 69.3574 10.1318 69.3711 10.0635C69.3802 9.99967 69.3802 9.93359 69.3711 9.86523C69.362 9.79688 69.3574 9.72624 69.3574 9.65332C69.3574 9.53027 69.3779 9.40495 69.4189 9.27734C69.4645 9.14974 69.4919 9.01986 69.501 8.8877C69.5055 8.81934 69.5078 8.7487 69.5078 8.67578C69.5078 8.59831 69.5101 8.52311 69.5146 8.4502C69.5192 8.37272 69.5283 8.29753 69.542 8.22461C69.5602 8.15169 69.5921 8.08789 69.6377 8.0332C69.624 7.98307 69.6104 7.93294 69.5967 7.88281C69.5876 7.82812 69.583 7.77572 69.583 7.72559C69.583 7.67546 69.5921 7.62988 69.6104 7.58887C69.6286 7.54329 69.6377 7.5 69.6377 7.45898C69.6377 7.41797 69.624 7.38607 69.5967 7.36328C69.5693 7.33594 69.5557 7.30176 69.5557 7.26074L69.5967 7.21973C69.5876 7.16504 69.5785 7.11263 69.5693 7.0625C69.5602 7.00781 69.5557 6.95312 69.5557 6.89844C69.5557 6.77083 69.5762 6.65007 69.6172 6.53613C69.6628 6.41764 69.6855 6.2946 69.6855 6.16699C69.6855 6.06217 69.6764 5.96191 69.6582 5.86621C69.6445 5.76595 69.6377 5.66569 69.6377 5.56543C69.6377 5.49707 69.6445 5.43099 69.6582 5.36719C69.6764 5.29883 69.6924 5.23275 69.7061 5.16895C69.7243 5.10514 69.7402 5.04134 69.7539 4.97754C69.7721 4.90918 69.7812 4.84082 69.7812 4.77246C69.7812 4.71777 69.7721 4.66536 69.7539 4.61523C69.7402 4.5651 69.722 4.51497 69.6992 4.46484C69.681 4.41471 69.6628 4.36458 69.6445 4.31445C69.6309 4.26432 69.624 4.21191 69.624 4.15723C69.624 3.93848 69.6787 3.73112 69.7881 3.53516C69.8975 3.33919 70.0296 3.16829 70.1846 3.02246C70.1937 3.02246 70.2028 3.02474 70.2119 3.0293C70.221 3.03385 70.2301 3.03613 70.2393 3.03613C70.2894 3.03613 70.3327 3.02702 70.3691 3.00879C70.4102 2.986 70.4512 2.97461 70.4922 2.97461C70.6107 2.97461 70.7132 3.00423 70.7998 3.06348C70.891 3.11816 70.9844 3.16374 71.0801 3.2002C71.1439 3.37337 71.1963 3.54883 71.2373 3.72656C71.2829 3.9043 71.3057 4.08887 71.3057 4.28027C71.3558 4.2666 71.4014 4.24837 71.4424 4.22559C71.488 4.19824 71.5312 4.1709 71.5723 4.14355C71.6178 4.11621 71.6611 4.09115 71.7021 4.06836C71.7477 4.04102 71.7979 4.02279 71.8525 4.01367C71.8981 3.98177 71.9368 3.94531 71.9688 3.9043C72.0007 3.85872 72.0303 3.81315 72.0576 3.76758C72.0895 3.72201 72.1191 3.67871 72.1465 3.6377C72.1784 3.59212 72.2148 3.55339 72.2559 3.52148C72.3105 3.48047 72.3971 3.43717 72.5156 3.3916C72.6387 3.34603 72.7663 3.30501 72.8984 3.26855C73.0352 3.22754 73.1673 3.19564 73.2949 3.17285C73.4225 3.14551 73.5205 3.13184 73.5889 3.13184C73.6709 3.13184 73.7438 3.14095 73.8076 3.15918C73.876 3.17285 73.9398 3.19336 73.999 3.2207C74.0628 3.24349 74.1243 3.27083 74.1836 3.30273C74.2474 3.33008 74.3158 3.35742 74.3887 3.38477C74.416 3.39388 74.4434 3.40072 74.4707 3.40527C74.498 3.40527 74.5299 3.41211 74.5664 3.42578C74.6211 3.44857 74.6689 3.48047 74.71 3.52148C74.7555 3.55794 74.8011 3.59668 74.8467 3.6377C74.8923 3.67871 74.9378 3.71745 74.9834 3.75391C75.0335 3.78581 75.0859 3.81087 75.1406 3.8291C75.168 3.90658 75.2044 3.97493 75.25 4.03418C75.3001 4.09342 75.3571 4.14811 75.4209 4.19824C75.4346 4.29395 75.4596 4.38509 75.4961 4.47168C75.5371 4.55371 75.5758 4.63802 75.6123 4.72461C75.6533 4.80664 75.6898 4.89095 75.7217 4.97754C75.7536 5.05957 75.7695 5.14844 75.7695 5.24414C75.7695 5.30339 75.7627 5.35579 75.749 5.40137C75.7354 5.44238 75.7285 5.48796 75.7285 5.53809C75.7285 5.5791 75.7354 5.611 75.749 5.63379C75.7673 5.65658 75.7832 5.67936 75.7969 5.70215C75.8151 5.72038 75.8311 5.74316 75.8447 5.77051C75.863 5.79329 75.8721 5.82292 75.8721 5.85938C75.8721 5.96419 75.8675 6.06673 75.8584 6.16699C75.8493 6.26725 75.8447 6.36979 75.8447 6.47461C75.8447 6.57943 75.8561 6.68424 75.8789 6.78906C75.9017 6.89388 75.945 6.99186 76.0088 7.08301ZM83.2139 10.5078C83.2367 10.5306 83.2503 10.5557 83.2549 10.583C83.264 10.6104 83.2686 10.6377 83.2686 10.665C83.2686 10.7152 83.2594 10.7653 83.2412 10.8154C83.223 10.8656 83.2139 10.918 83.2139 10.9727C83.2139 11.0273 83.223 11.0798 83.2412 11.1299C83.2594 11.1846 83.2686 11.2393 83.2686 11.2939C83.2686 11.376 83.2526 11.4557 83.2207 11.5332C83.1888 11.6107 83.1523 11.6859 83.1113 11.7588C83.0749 11.8317 83.0407 11.9046 83.0088 11.9775C82.9769 12.0505 82.9609 12.1257 82.9609 12.2031C82.9609 12.2214 82.9359 12.2783 82.8857 12.374C82.8356 12.4697 82.7786 12.5745 82.7148 12.6885C82.651 12.807 82.5872 12.9186 82.5234 13.0234C82.4642 13.1283 82.4232 13.1966 82.4004 13.2285C82.3411 13.2513 82.2887 13.2809 82.2432 13.3174C82.1976 13.3538 82.1497 13.3903 82.0996 13.4268C82.054 13.4678 82.0039 13.502 81.9492 13.5293C81.8991 13.5612 81.8398 13.5817 81.7715 13.5908C81.7533 13.6501 81.7191 13.6934 81.6689 13.7207C81.6234 13.7526 81.5732 13.7799 81.5186 13.8027C81.4639 13.8301 81.4115 13.8597 81.3613 13.8916C81.3112 13.9235 81.2793 13.9714 81.2656 14.0352H81.2109C81.1517 14.0306 81.0924 14.0352 81.0332 14.0488C80.9785 14.0671 80.9215 14.0876 80.8623 14.1104C80.8031 14.1331 80.7438 14.1559 80.6846 14.1787C80.6299 14.2015 80.5729 14.2152 80.5137 14.2197C80.4089 14.2288 80.304 14.2357 80.1992 14.2402C80.0944 14.2448 79.9896 14.2471 79.8848 14.2471C79.8164 14.2471 79.7412 14.2448 79.6592 14.2402C79.5817 14.2402 79.502 14.2334 79.4199 14.2197C79.3424 14.2061 79.2673 14.1855 79.1943 14.1582C79.1214 14.1309 79.0622 14.0898 79.0166 14.0352C78.9574 14.0124 78.8958 13.9964 78.832 13.9873C78.7728 13.9827 78.7113 13.9668 78.6475 13.9395L78.5654 13.8574C78.4059 13.8073 78.2601 13.7594 78.1279 13.7139C77.9958 13.6683 77.8773 13.609 77.7725 13.5361C77.6676 13.4678 77.5719 13.3789 77.4854 13.2695C77.3988 13.1647 77.3213 13.028 77.2529 12.8594C77.2393 12.8092 77.2074 12.7751 77.1572 12.7568C77.1071 12.7432 77.0638 12.7181 77.0273 12.6816C77.0228 12.6178 77.0068 12.5586 76.9795 12.5039C76.9521 12.4492 76.9225 12.3945 76.8906 12.3398C76.8587 12.2852 76.8291 12.2305 76.8018 12.1758C76.7744 12.1211 76.7607 12.0596 76.7607 11.9912C76.7607 11.9411 76.7676 11.891 76.7812 11.8408C76.7949 11.7952 76.8018 11.7428 76.8018 11.6836C76.8018 11.6335 76.7995 11.5811 76.7949 11.5264C76.7904 11.4762 76.7881 11.4261 76.7881 11.376C76.7881 11.2939 76.804 11.2233 76.8359 11.1641C76.8678 11.1094 76.9066 11.057 76.9521 11.0068C76.9977 10.9613 77.0479 10.918 77.1025 10.877C77.1572 10.8314 77.2074 10.7835 77.2529 10.7334C77.2939 10.7334 77.3327 10.7311 77.3691 10.7266C77.4056 10.722 77.4466 10.7197 77.4922 10.7197C77.7064 10.7197 77.8841 10.763 78.0254 10.8496C78.1712 10.9316 78.2897 11.041 78.3809 11.1777C78.472 11.319 78.5426 11.4762 78.5928 11.6494C78.6429 11.8271 78.6816 12.0072 78.709 12.1895C78.7181 12.2396 78.7386 12.2669 78.7705 12.2715C78.807 12.2806 78.8457 12.2965 78.8867 12.3193C78.9141 12.3421 78.9391 12.3672 78.9619 12.3945C78.9893 12.4219 79.0212 12.4424 79.0576 12.4561C79.1761 12.4971 79.2969 12.513 79.4199 12.5039C79.543 12.4993 79.6637 12.5107 79.7822 12.5381C79.8688 12.5654 79.9508 12.6019 80.0283 12.6475C80.1058 12.6976 80.1878 12.7227 80.2744 12.7227C80.3382 12.7227 80.4157 12.6976 80.5068 12.6475C80.6025 12.5973 80.696 12.5381 80.7871 12.4697C80.8783 12.4014 80.9603 12.3285 81.0332 12.251C81.1107 12.1735 81.1608 12.1074 81.1836 12.0527C81.1973 12.0208 81.2041 11.9889 81.2041 11.957C81.2041 11.9251 81.2109 11.8955 81.2246 11.8682L81.3271 11.8271V11.7246L81.4092 11.6836C81.4639 11.5742 81.5277 11.4694 81.6006 11.3691C81.6735 11.2734 81.7578 11.1823 81.8535 11.0957V10.9727C81.8535 10.8952 81.8672 10.8245 81.8945 10.7607C81.9219 10.6969 81.9561 10.6331 81.9971 10.5693C81.9743 10.5146 81.9538 10.4736 81.9355 10.4463C81.9219 10.4144 81.9082 10.3848 81.8945 10.3574C81.8854 10.3255 81.8809 10.2913 81.8809 10.2549C81.8854 10.2184 81.8968 10.1683 81.915 10.1045C81.7829 10.1546 81.6758 10.2048 81.5938 10.2549C81.5117 10.3005 81.432 10.3438 81.3545 10.3848C81.277 10.4212 81.1882 10.4508 81.0879 10.4736C80.9922 10.4964 80.86 10.5078 80.6914 10.5078C80.6641 10.5078 80.6436 10.5169 80.6299 10.5352C80.6162 10.5488 80.6025 10.5648 80.5889 10.583C80.5752 10.6012 80.5592 10.6195 80.541 10.6377C80.5228 10.6514 80.4954 10.6559 80.459 10.6514C80.3542 10.6423 80.2493 10.6423 80.1445 10.6514C80.0397 10.6605 79.9349 10.665 79.8301 10.665C79.7663 10.665 79.7161 10.6628 79.6797 10.6582C79.6478 10.6491 79.6182 10.6377 79.5908 10.624C79.5635 10.6104 79.5339 10.5944 79.502 10.5762C79.4746 10.5579 79.4336 10.5352 79.3789 10.5078C79.2604 10.4531 79.1374 10.403 79.0098 10.3574C78.8867 10.3118 78.766 10.2594 78.6475 10.2002C78.5381 10.1455 78.431 10.0749 78.3262 9.98828C78.2259 9.89714 78.1279 9.80143 78.0322 9.70117C77.9365 9.60091 77.8431 9.50065 77.752 9.40039C77.6654 9.29557 77.5788 9.19987 77.4922 9.11328V9.01074C77.5013 8.86491 77.4717 8.74642 77.4033 8.65527C77.335 8.55957 77.2552 8.45931 77.1641 8.35449C77.1549 8.18132 77.1367 8.0013 77.1094 7.81445C77.082 7.6276 77.0684 7.44759 77.0684 7.27441C77.0684 7.15592 77.0775 7.03516 77.0957 6.91211C77.1139 6.78906 77.123 6.66829 77.123 6.5498C77.123 6.49056 77.1139 6.43359 77.0957 6.37891C77.0775 6.32422 77.0684 6.26953 77.0684 6.21484C77.0684 6.17839 77.0729 6.14421 77.082 6.1123C77.0911 6.0804 77.1003 6.04622 77.1094 6.00977C77.1185 5.96875 77.1276 5.92318 77.1367 5.87305C77.1458 5.81836 77.1504 5.75 77.1504 5.66797C77.1504 5.65885 77.1618 5.62012 77.1846 5.55176C77.2074 5.47884 77.2324 5.39909 77.2598 5.3125C77.2871 5.22591 77.3122 5.1416 77.335 5.05957C77.3623 4.97298 77.3805 4.90918 77.3896 4.86816C77.4808 4.79525 77.5583 4.71777 77.6221 4.63574C77.6859 4.54915 77.7292 4.44889 77.752 4.33496C77.8203 4.31673 77.8796 4.28711 77.9297 4.24609C77.9798 4.20052 78.0254 4.15267 78.0664 4.10254C78.112 4.05241 78.1598 4.00684 78.21 3.96582C78.2601 3.92025 78.3193 3.89062 78.3877 3.87695C78.3786 3.87695 78.374 3.86556 78.374 3.84277C78.374 3.80176 78.3923 3.77897 78.4287 3.77441C78.4652 3.76986 78.4971 3.76074 78.5244 3.74707C78.5791 3.71061 78.6292 3.67188 78.6748 3.63086C78.7249 3.58984 78.7773 3.55339 78.832 3.52148C78.9004 3.48047 78.9824 3.44629 79.0781 3.41895C79.1738 3.38704 79.2741 3.35742 79.3789 3.33008C79.4883 3.30273 79.5977 3.27311 79.707 3.24121C79.8164 3.20475 79.9167 3.15918 80.0078 3.10449C80.0853 3.11816 80.1605 3.125 80.2334 3.125C80.3109 3.12044 80.3861 3.11816 80.459 3.11816C80.5365 3.11361 80.6117 3.11361 80.6846 3.11816C80.762 3.12272 80.8395 3.13639 80.917 3.15918C81.0036 3.27311 81.1061 3.36882 81.2246 3.44629C81.3431 3.51921 81.4661 3.58757 81.5938 3.65137V3.45312C81.5846 3.29818 81.5938 3.14551 81.6211 2.99512C81.653 2.84473 81.7031 2.70345 81.7715 2.57129C81.8626 2.53027 81.9583 2.49837 82.0586 2.47559C82.1634 2.44824 82.2637 2.43457 82.3594 2.43457C82.4277 2.43457 82.4847 2.4528 82.5303 2.48926C82.5804 2.52116 82.626 2.5599 82.667 2.60547C82.708 2.64648 82.749 2.68978 82.79 2.73535C82.8356 2.78092 82.888 2.8151 82.9473 2.83789C82.9518 2.89714 82.9678 2.9541 82.9951 3.00879C83.027 3.06348 83.0589 3.11589 83.0908 3.16602C83.1227 3.21615 83.1501 3.26855 83.1729 3.32324C83.2002 3.37793 83.2139 3.4349 83.2139 3.49414C83.2139 3.60807 83.207 3.72201 83.1934 3.83594C83.1797 3.94531 83.1729 4.05697 83.1729 4.1709C83.1729 4.22559 83.166 4.28027 83.1523 4.33496C83.1387 4.38965 83.1318 4.44661 83.1318 4.50586C83.1318 4.52865 83.141 4.55371 83.1592 4.58105C83.182 4.6084 83.2002 4.62891 83.2139 4.64258C83.2275 4.68815 83.2344 4.73828 83.2344 4.79297C83.2344 4.8431 83.2367 4.89323 83.2412 4.94336C83.2458 4.98893 83.2549 5.03451 83.2686 5.08008C83.2868 5.12109 83.3164 5.15755 83.3574 5.18945C83.3118 5.32161 83.2822 5.45605 83.2686 5.59277C83.2594 5.72493 83.2549 5.86165 83.2549 6.00293C83.2549 6.0804 83.264 6.1556 83.2822 6.22852C83.3005 6.29688 83.3096 6.36979 83.3096 6.44727C83.3096 6.50651 83.2936 6.5612 83.2617 6.61133C83.2298 6.66146 83.2139 6.71615 83.2139 6.77539C83.2139 6.88477 83.2298 6.99642 83.2617 7.11035C83.2936 7.21973 83.3255 7.33138 83.3574 7.44531C83.3939 7.59115 83.4098 7.74154 83.4053 7.89648C83.4007 8.04688 83.3984 8.19954 83.3984 8.35449C83.3984 8.39551 83.4053 8.4388 83.4189 8.48438C83.4326 8.52539 83.4395 8.57096 83.4395 8.62109C83.4395 8.66211 83.4326 8.70085 83.4189 8.7373C83.4053 8.77376 83.3984 8.81478 83.3984 8.86035C83.3984 8.97884 83.4144 9.09733 83.4463 9.21582C83.4782 9.33431 83.4941 9.45736 83.4941 9.58496C83.4941 9.74447 83.4759 9.90853 83.4395 10.0771C83.4076 10.2458 83.3324 10.3893 83.2139 10.5078ZM81.8535 6.84375C81.8535 6.76628 81.8626 6.6888 81.8809 6.61133C81.9036 6.53385 81.915 6.45638 81.915 6.37891C81.915 6.32422 81.9059 6.27181 81.8877 6.22168C81.8695 6.17155 81.8512 6.1237 81.833 6.07812C81.8193 6.02799 81.8079 5.98014 81.7988 5.93457C81.7897 5.88444 81.7943 5.83203 81.8125 5.77734C81.7669 5.75911 81.7259 5.73177 81.6895 5.69531C81.6576 5.65885 81.6257 5.62012 81.5938 5.5791C81.5618 5.53353 81.5299 5.49023 81.498 5.44922C81.4707 5.40365 81.4411 5.36491 81.4092 5.33301C81.3818 5.29655 81.3454 5.27148 81.2998 5.25781C81.2588 5.23958 81.2201 5.2168 81.1836 5.18945C81.1471 5.16211 81.1175 5.13249 81.0947 5.10059C81.0719 5.06868 81.0423 5.03678 81.0059 5.00488C80.8874 4.91374 80.7575 4.8431 80.6162 4.79297C80.4795 4.73828 80.3382 4.71094 80.1924 4.71094C80.0921 4.71094 80.0033 4.72233 79.9258 4.74512C79.8483 4.76335 79.7754 4.78385 79.707 4.80664C79.6432 4.82943 79.5817 4.85221 79.5225 4.875C79.4632 4.89323 79.4017 4.90462 79.3379 4.90918C79.265 5.00944 79.1966 5.1097 79.1328 5.20996C79.069 5.31022 78.987 5.39225 78.8867 5.45605C78.8639 5.60189 78.8343 5.73405 78.7979 5.85254C78.766 5.96647 78.734 6.0804 78.7021 6.19434C78.6702 6.30371 78.6406 6.4222 78.6133 6.5498C78.5905 6.67741 78.5791 6.82552 78.5791 6.99414C78.5791 7.13997 78.5791 7.26074 78.5791 7.35645C78.5837 7.45215 78.5951 7.54102 78.6133 7.62305C78.6361 7.70508 78.668 7.78711 78.709 7.86914C78.75 7.95117 78.8092 8.05143 78.8867 8.16992C78.9232 8.22917 78.9574 8.29297 78.9893 8.36133C79.0212 8.42513 79.0622 8.47982 79.1123 8.52539C79.1533 8.56641 79.2012 8.60059 79.2559 8.62793C79.3151 8.65072 79.3698 8.67578 79.4199 8.70312C79.4609 8.73047 79.5065 8.77148 79.5566 8.82617C79.6113 8.88086 79.6592 8.91504 79.7002 8.92871C79.7048 8.93327 79.7367 8.94238 79.7959 8.95605C79.8551 8.96973 79.9212 8.98568 79.9941 9.00391C80.0671 9.01758 80.1331 9.03125 80.1924 9.04492C80.2562 9.05859 80.2926 9.06543 80.3018 9.06543C80.4294 9.06543 80.5524 9.05176 80.6709 9.02441C80.7939 8.99707 80.9193 8.99707 81.0469 9.02441C81.0879 9.01986 81.1198 9.00618 81.1426 8.9834C81.1654 8.95605 81.1882 8.93099 81.2109 8.9082C81.2337 8.88542 81.2588 8.86719 81.2861 8.85352C81.3135 8.83529 81.3545 8.83301 81.4092 8.84668C81.4274 8.79199 81.4548 8.74414 81.4912 8.70312C81.5322 8.66211 81.5732 8.62337 81.6143 8.58691C81.6598 8.55046 81.7031 8.514 81.7441 8.47754C81.7852 8.44108 81.8216 8.40007 81.8535 8.35449C81.8854 8.31803 81.9036 8.2793 81.9082 8.23828C81.9128 8.19271 81.9287 8.15169 81.9561 8.11523C81.9788 8.09245 82.0062 8.07422 82.0381 8.06055C82.0745 8.04688 82.0928 8.01953 82.0928 7.97852C82.0928 7.85091 82.0791 7.73242 82.0518 7.62305C82.029 7.51367 82.0016 7.41341 81.9697 7.32227C81.9424 7.22656 81.915 7.13997 81.8877 7.0625C81.8649 6.98503 81.8535 6.91211 81.8535 6.84375Z" fill="white"/>
</svg>
