<svg width="87" height="18" viewBox="0 0 87 18" fill="none" xmlns="http://www.w3.org/2000/svg">
<path d="M6.288 10.368C5.968 10.7307 5.64267 11.0187 5.312 11.232C4.98133 11.4347 4.61333 11.536 4.208 11.536C4.12267 11.536 4.00533 11.5253 3.856 11.504L3.536 11.52C2.192 11.5307 1.21067 10.8907 0.592 9.6C0.453333 9.30133 0.384 8.944 0.384 8.528C0.384 8.16533 0.437333 7.81867 0.544 7.488C0.650667 7.15733 0.8 6.88533 0.992 6.672L1.296 6.304C1.44533 6.112 1.56267 5.97867 1.648 5.904C2.02133 5.54133 2.51733 5.36 3.136 5.36C3.456 5.36 3.77067 5.41333 4.08 5.52C4.38933 5.62667 4.66133 5.77067 4.896 5.952C4.93867 5.984 4.98133 6.05333 5.024 6.16C5.06667 6.256 5.088 6.336 5.088 6.4C5.088 6.48533 5.024 6.58133 4.896 6.688C4.768 6.784 4.65067 6.82667 4.544 6.816C3.81867 6.73067 3.23733 6.90667 2.8 7.344C2.36267 7.77067 2.144 8.35733 2.144 9.104C2.144 9.59467 2.24533 9.94133 2.448 10.144C2.66133 10.3467 3.008 10.448 3.488 10.448C3.78667 10.448 4.06933 10.3893 4.336 10.272C4.60267 10.144 4.912 9.968 5.264 9.744L5.568 9.552C5.67467 9.49867 5.81333 9.46667 5.984 9.456C6.16533 9.43467 6.304 9.41867 6.4 9.408C6.38933 9.504 6.384 9.6 6.384 9.696C6.39467 9.78133 6.4 9.85067 6.4 9.904C6.4 10.1387 6.36267 10.2933 6.288 10.368ZM11.3509 10.928C11.0202 11.1307 10.6415 11.232 10.2149 11.232C9.74554 11.232 9.29221 11.1147 8.85488 10.88C8.42821 10.6347 8.08688 10.288 7.83088 9.84C7.57488 9.392 7.46821 8.88 7.51088 8.304L7.59088 7.92C7.65488 7.536 7.70821 7.25333 7.75088 7.072C7.84688 6.67733 8.03888 6.4 8.32688 6.24C8.61488 6.08 8.99888 5.952 9.47888 5.856C9.78821 5.792 10.0922 5.76 10.3909 5.76C11.3295 5.76 12.1189 6.07467 12.7589 6.704C13.1002 7.04533 13.2709 7.46133 13.2709 7.952C13.2709 8.432 13.0949 8.94933 12.7429 9.504C12.3375 10.1333 11.8735 10.608 11.3509 10.928ZM10.0069 6.576C9.83621 6.992 9.65488 7.50933 9.46288 8.128L9.30288 8.608L9.41488 8.656C9.41488 8.73067 9.41488 8.848 9.41488 9.008C9.42554 9.15733 9.44688 9.28533 9.47888 9.392C9.59621 9.72267 9.72954 9.92533 9.87888 10C9.94288 10.032 10.0335 10.016 10.1509 9.952C10.2789 9.888 10.3909 9.81333 10.4869 9.728C10.6362 9.6 10.8762 9.33333 11.2069 8.928C11.4522 8.65067 11.5749 8.32 11.5749 7.936C11.5749 7.60533 11.4789 7.30667 11.2869 7.04C11.1055 6.77333 10.8495 6.592 10.5189 6.496C10.4869 6.48533 10.4282 6.48 10.3429 6.48C10.1402 6.48 10.0282 6.512 10.0069 6.576ZM17.5268 6.736C17.5268 6.75733 17.5374 6.78933 17.5588 6.832C17.5908 6.87467 17.6174 6.912 17.6388 6.944L18.1508 6.208C18.3428 5.93067 18.5828 5.76533 18.8708 5.712C19.1694 5.648 19.4201 5.696 19.6228 5.856C20.1241 6.25067 20.4708 6.69333 20.6628 7.184L20.9668 7.952L21.5108 10.8C21.5641 11.0987 21.6654 11.4293 21.8148 11.792C21.9001 12.0267 21.9588 12.2027 21.9908 12.32L22.1348 12.864C21.8574 12.9493 21.6281 12.992 21.4468 12.992C20.7854 12.992 20.3908 12.6933 20.2628 12.096C20.1454 11.4987 20.0068 10.7893 19.8468 9.968L19.6868 9.136C19.4308 8.35733 19.1534 7.97333 18.8548 7.984C18.5561 7.984 18.3374 8.10133 18.1988 8.336C17.9961 8.66667 17.8788 9.024 17.8468 9.408C17.8254 9.78133 17.8148 10.2773 17.8148 10.896C17.7614 11.1307 17.6814 11.296 17.5748 11.392C17.4681 11.4773 17.3028 11.52 17.0788 11.52C16.5668 11.52 16.2948 11.2693 16.2628 10.768C16.2201 10.1707 16.1988 9.49867 16.1988 8.752C16.1988 8.53867 16.1774 8.352 16.1348 8.192C16.0921 8.032 15.9961 7.952 15.8468 7.952C15.7828 7.952 15.6974 7.95733 15.5908 7.968C15.4948 7.97867 15.4201 7.97867 15.3668 7.968C15.1748 7.92533 15.0094 7.888 14.8708 7.856C14.7321 7.824 14.6041 7.776 14.4868 7.712C14.3801 7.63733 14.3374 7.51467 14.3588 7.344C14.3908 7.16267 14.4494 6.992 14.5348 6.832C14.6094 6.72533 14.6894 6.624 14.7747 6.528C14.8708 6.42133 14.9934 6.304 15.1428 6.176C15.5374 5.83467 15.9641 5.65867 16.4228 5.648C16.7641 5.63733 17.0094 5.744 17.1588 5.968C17.3188 6.192 17.4414 6.448 17.5268 6.736ZM24.9413 12.352C24.0453 12.352 23.4746 11.968 23.2293 11.2C23.3146 11.2 23.4266 11.2053 23.5653 11.216C23.7146 11.216 23.8373 11.2267 23.9333 11.248C24.0826 11.2693 24.1893 11.28 24.2533 11.28C24.7333 11.28 25.1333 11.0667 25.4533 10.64C25.6773 10.3307 25.7893 10.016 25.7893 9.696C25.7893 9.48267 25.7359 9.27467 25.6293 9.072C25.3946 8.656 25.1066 8.19733 24.7653 7.696C24.5413 7.36533 24.3386 7.05067 24.1573 6.752C23.9439 6.41067 23.8372 6.032 23.8372 5.616C23.8372 5.232 23.9439 4.896 24.1573 4.608C24.3813 4.30933 24.7066 4.12267 25.1332 4.048L25.6453 3.952C26.1999 3.84533 26.6159 3.792 26.8932 3.792C27.3519 3.792 27.7573 3.89867 28.1093 4.112C28.1839 4.16533 28.2586 4.26133 28.3333 4.4C28.4186 4.528 28.4826 4.62933 28.5253 4.704C28.4506 4.736 28.3439 4.78933 28.2053 4.864C28.0773 4.928 27.9653 4.96533 27.8693 4.976C27.7199 4.99733 27.4959 5.008 27.1973 5.008C26.9093 5.008 26.6906 5.01333 26.5413 5.024C26.1999 5.056 25.9279 5.17333 25.7253 5.376C25.5333 5.568 25.4373 5.80267 25.4373 6.08C25.4373 6.29333 25.5013 6.512 25.6293 6.736C25.9173 7.216 26.3173 7.76533 26.8293 8.384C27.2133 8.864 27.4053 9.36 27.4053 9.872C27.4053 10.1493 27.3413 10.4427 27.2133 10.752C26.7759 11.8187 26.0186 12.352 24.9413 12.352ZM32.6508 3.984C32.7041 3.96267 32.8214 3.94667 33.0028 3.936C33.1948 3.91467 33.3654 3.904 33.5148 3.904C33.8134 3.904 34.0854 4.09067 34.3308 4.464L34.1228 4.624C33.8774 4.80533 33.5254 4.944 33.0668 5.04C32.6614 5.24267 32.3574 5.41333 32.1548 5.552C31.9628 5.69067 31.8188 5.84533 31.7228 6.016C31.6374 6.18667 31.5948 6.40533 31.5948 6.672C31.5948 6.8 31.6268 7.13067 31.6908 7.664L31.7708 8.336C31.8561 9.15733 31.9308 9.76 31.9948 10.144C32.0161 10.2827 32.0588 10.448 32.1228 10.64C32.1974 10.8213 32.2721 10.928 32.3468 10.96C32.4214 10.992 32.5708 10.9387 32.7948 10.8C33.2214 10.288 33.4988 9.93067 33.6268 9.728C33.6588 9.67467 33.7121 9.584 33.7868 9.456C33.8614 9.328 33.9361 9.232 34.0108 9.168C34.0854 9.09333 34.1761 9.056 34.2828 9.056C34.3041 9.056 34.3574 9.06667 34.4428 9.088C34.6134 9.14133 34.7468 9.22133 34.8428 9.328C34.9494 9.43467 35.0028 9.58933 35.0028 9.792C35.0028 9.888 34.9974 9.95733 34.9868 10C34.9228 10.4267 34.7734 10.8107 34.5388 11.152C34.3041 11.4933 33.9948 11.8293 33.6108 12.16C33.4614 12.2987 33.2161 12.368 32.8748 12.368C32.5014 12.368 32.1334 12.2827 31.7708 12.112C31.4081 11.952 31.1628 11.7387 31.0348 11.472C30.7041 10.7573 30.3948 9.84533 30.1068 8.736C30.0321 8.42667 29.9734 7.936 29.9308 7.264L29.8828 6.672C29.8614 6.42667 29.8614 6.24 29.8828 6.112C29.9041 5.97333 29.6961 5.888 29.2588 5.856C29.0988 5.84533 29.0188 5.73867 29.0188 5.536C29.1254 5.19467 29.2908 4.992 29.5148 4.928C29.7281 4.864 29.8614 4.73067 29.9148 4.528C29.9681 4.31467 30.0108 4.096 30.0428 3.872C30.1388 3.17867 30.1601 2.40533 30.1068 1.552C30.0854 1.14667 30.2081 0.911999 30.4748 0.848L30.6188 0.863999C30.6721 0.874666 30.7948 0.895999 30.9868 0.927999C31.1788 0.949333 31.3494 0.997333 31.4988 1.072C31.8721 1.27467 32.0588 1.632 32.0588 2.144C32.0588 2.35733 32.0161 2.63467 31.9308 2.976C31.9201 3.02933 31.9041 3.07733 31.8828 3.12C31.8614 3.16267 31.8454 3.21067 31.8348 3.264C31.8028 3.424 31.7868 3.55733 31.7868 3.664C31.6908 3.984 31.7654 4.144 32.0108 4.144C32.0961 4.144 32.3094 4.09067 32.6508 3.984ZM40.2449 4.896C40.7355 4.896 41.1355 5.04 41.4449 5.328C41.7649 5.60533 41.9835 5.97867 42.1009 6.448C42.1649 6.704 42.1862 6.992 42.1649 7.312C42.1542 7.49333 42.1435 7.74933 42.1329 8.08C42.1222 8.35733 42.0849 8.768 42.0209 9.312C41.9569 9.84533 41.9195 10.2453 41.9089 10.512C41.8982 10.704 41.8929 10.9867 41.8929 11.36L41.9089 12.656C41.7062 12.7413 41.5249 12.784 41.3649 12.784C41.2049 12.784 41.0395 12.7307 40.8689 12.624C40.7515 12.5387 40.6715 12.4853 40.6289 12.464C40.5969 12.4427 40.5489 12.352 40.4849 12.192L40.3569 11.888L40.2769 11.52C39.6795 11.648 39.3275 11.7227 39.2209 11.744C39.0715 11.7547 38.9542 11.76 38.8689 11.76C38.4742 11.76 38.0902 11.664 37.7169 11.472C37.3542 11.28 37.0609 11.0133 36.8369 10.672C36.6235 10.3307 36.5115 9.96267 36.5009 9.568C36.4902 9.19467 36.6235 8.896 36.9009 8.672C37.4875 8.20267 38.0582 7.968 38.6129 7.968C38.8902 7.968 39.1835 8.032 39.4929 8.16C39.6529 8.224 39.9942 8.368 40.5169 8.592L40.5809 8.144C40.6449 7.76 40.6769 7.45067 40.6769 7.216C40.6769 6.864 40.5969 6.53333 40.4369 6.224C40.2769 6.17067 40.1595 6.15467 40.0849 6.176C39.8075 6.21867 39.5302 6.27733 39.2529 6.352C38.9755 6.416 38.5969 6.448 38.1169 6.448C37.9889 6.448 37.8609 6.4 37.7329 6.304C37.6049 6.19733 37.5462 6.08 37.5569 5.952C37.5889 5.78133 37.6849 5.58933 37.8449 5.376C37.9409 5.25867 38.0742 5.18933 38.2449 5.168C38.4475 5.136 38.6129 5.11467 38.7409 5.104C39.4022 4.96533 39.9035 4.896 40.2449 4.896ZM38.8849 10.448C39.1409 10.3733 39.3542 10.288 39.5249 10.192C39.6955 10.0853 39.8449 9.93067 39.9729 9.728C39.5889 9.42933 39.2955 9.22133 39.0929 9.104C38.8902 8.98667 38.6929 8.928 38.5009 8.928C38.4262 8.928 38.3355 8.944 38.2289 8.976C38.1222 9.008 38.0422 9.056 37.9889 9.12C37.8929 9.23733 37.8449 9.40267 37.8449 9.616C37.8449 9.808 37.8822 9.97333 37.9569 10.112C38.0422 10.2293 38.1489 10.32 38.2769 10.384C38.4049 10.448 38.5382 10.48 38.6769 10.48C38.7195 10.48 38.7889 10.4693 38.8849 10.448ZM46.4225 5.968C46.4225 6.032 46.4118 6.11733 46.3905 6.224C46.3692 6.32 46.3638 6.384 46.3745 6.416C47.1105 6.256 47.7345 6.176 48.2465 6.176C49.0465 6.176 49.6492 6.56 50.0545 7.328C50.3852 7.97867 50.5505 8.69867 50.5505 9.488C50.5505 9.69067 50.5292 9.984 50.4865 10.368C50.4545 10.624 50.3532 10.832 50.1825 10.992C50.0118 11.1413 49.8092 11.216 49.5745 11.216C49.3292 11.216 49.1532 11.1733 49.0465 11.088C48.9505 10.992 48.8918 10.8853 48.8705 10.768C48.8598 10.6507 48.8545 10.464 48.8545 10.208L48.8385 9.872C48.8172 9.232 48.7745 8.67733 48.7105 8.208C48.6785 8.016 48.6038 7.88267 48.4865 7.808C48.3798 7.72267 48.2358 7.68 48.0545 7.68C47.8838 7.68 47.6812 7.70667 47.4465 7.76C47.0838 7.856 46.8385 7.93067 46.7105 7.984C46.5932 8.03733 46.4172 8.14933 46.1825 8.32C46.1078 8.37333 46.0545 8.48 46.0225 8.64C45.9905 8.8 45.9745 8.89067 45.9745 8.912C45.8358 9.59467 45.6865 10.4107 45.5265 11.36C45.5158 11.4027 45.4945 11.504 45.4625 11.664C45.4305 11.824 45.3665 11.936 45.2705 12C45.1852 12.0747 45.0572 12.1013 44.8865 12.08C44.2145 11.9947 43.8732 11.712 43.8625 11.232C43.8518 10.6133 43.8998 9.88267 44.0065 9.04C44.0812 8.432 44.1505 7.94133 44.2145 7.568C44.2358 7.39733 44.2625 7.18933 44.2945 6.944C44.3372 6.69867 44.3745 6.416 44.4065 6.096C44.4385 5.85067 44.4705 5.66933 44.5025 5.552C44.5345 5.43467 44.6092 5.33867 44.7265 5.264C44.8438 5.17867 45.0252 5.136 45.2705 5.136C45.5798 5.136 45.8358 5.20533 46.0385 5.344C46.2412 5.48267 46.3692 5.68 46.4225 5.936V5.968ZM55.2758 3.984C55.3291 3.96267 55.4464 3.94667 55.6278 3.936C55.8198 3.91467 55.9904 3.904 56.1398 3.904C56.4384 3.904 56.7104 4.09067 56.9558 4.464L56.7478 4.624C56.5024 4.80533 56.1504 4.944 55.6918 5.04C55.2864 5.24267 54.9824 5.41333 54.7798 5.552C54.5878 5.69067 54.4438 5.84533 54.3478 6.016C54.2624 6.18667 54.2198 6.40533 54.2198 6.672C54.2198 6.8 54.2518 7.13067 54.3158 7.664L54.3958 8.336C54.4811 9.15733 54.5558 9.76 54.6198 10.144C54.6411 10.2827 54.6838 10.448 54.7478 10.64C54.8224 10.8213 54.8971 10.928 54.9718 10.96C55.0464 10.992 55.1958 10.9387 55.4198 10.8C55.8464 10.288 56.1238 9.93067 56.2518 9.728C56.2838 9.67467 56.3371 9.584 56.4118 9.456C56.4864 9.328 56.5611 9.232 56.6358 9.168C56.7104 9.09333 56.8011 9.056 56.9078 9.056C56.9291 9.056 56.9824 9.06667 57.0678 9.088C57.2384 9.14133 57.3718 9.22133 57.4678 9.328C57.5744 9.43467 57.6278 9.58933 57.6278 9.792C57.6278 9.888 57.6224 9.95733 57.6118 10C57.5478 10.4267 57.3984 10.8107 57.1638 11.152C56.9291 11.4933 56.6198 11.8293 56.2358 12.16C56.0864 12.2987 55.8411 12.368 55.4998 12.368C55.1264 12.368 54.7584 12.2827 54.3958 12.112C54.0331 11.952 53.7878 11.7387 53.6598 11.472C53.3291 10.7573 53.0198 9.84533 52.7318 8.736C52.6571 8.42667 52.5984 7.936 52.5558 7.264L52.5078 6.672C52.4864 6.42667 52.4864 6.24 52.5078 6.112C52.5291 5.97333 52.3211 5.888 51.8838 5.856C51.7238 5.84533 51.6438 5.73867 51.6438 5.536C51.7504 5.19467 51.9158 4.992 52.1398 4.928C52.3531 4.864 52.4864 4.73067 52.5398 4.528C52.5931 4.31467 52.6358 4.096 52.6678 3.872C52.7638 3.17867 52.7851 2.40533 52.7318 1.552C52.7104 1.14667 52.8331 0.911999 53.0998 0.848L53.2438 0.863999C53.2971 0.874666 53.4198 0.895999 53.6118 0.927999C53.8038 0.949333 53.9744 0.997333 54.1238 1.072C54.4971 1.27467 54.6838 1.632 54.6838 2.144C54.6838 2.35733 54.6411 2.63467 54.5558 2.976C54.5451 3.02933 54.5291 3.07733 54.5078 3.12C54.4864 3.16267 54.4704 3.21067 54.4598 3.264C54.4278 3.424 54.4118 3.55733 54.4118 3.664C54.3158 3.984 54.3904 4.144 54.6358 4.144C54.7211 4.144 54.9344 4.09067 55.2758 3.984ZM61.0299 3.456C61.0405 4.49067 61.0672 5.344 61.1099 6.016C61.1632 6.67733 61.2805 7.38133 61.4619 8.128C61.9099 7.968 62.3205 7.888 62.6939 7.888C63.3232 7.888 63.8672 8.07467 64.3259 8.448C64.7845 8.82133 65.0939 9.28533 65.2539 9.84C65.3819 10.2453 65.4459 10.7893 65.4459 11.472L65.4299 12.72C65.4299 12.7947 65.3872 12.88 65.3019 12.976C65.2165 13.072 65.1312 13.1307 65.0459 13.152C65.0139 13.1627 64.9659 13.168 64.9019 13.168C64.6565 13.168 64.4005 13.0453 64.1339 12.8C63.8672 12.5653 63.7285 12.3307 63.7179 12.096L63.6859 11.264C63.6859 11.072 63.6752 10.7947 63.6539 10.432C63.6325 10.0587 63.5899 9.792 63.5259 9.632C63.4619 9.45067 63.3819 9.312 63.2859 9.216C63.1899 9.12 63.0832 9.072 62.9659 9.072C62.8805 9.072 62.7845 9.10933 62.6779 9.184C62.5819 9.25867 62.4965 9.36 62.4219 9.488C62.1979 9.84 61.9045 10.5333 61.5419 11.568C61.4245 11.9413 61.2165 12.128 60.9179 12.128C60.8859 12.128 60.8165 12.1173 60.7099 12.096C60.6459 12.0747 60.5232 12.0427 60.3419 12C60.1605 11.9467 60.0165 11.8667 59.9099 11.76C59.8139 11.6533 59.7659 11.4987 59.7659 11.296C59.7659 9.28 59.6432 7.61067 59.3979 6.288C59.2805 5.62667 59.2219 4.864 59.2219 4V2.928V2.368C59.2219 2.21867 59.3019 2.09067 59.4619 1.984C59.6219 1.87733 59.8032 1.824 60.0059 1.824C60.1765 1.824 60.3205 1.86133 60.4379 1.936C60.6512 2.064 60.8005 2.224 60.8859 2.416C60.9819 2.608 61.0299 2.848 61.0299 3.136V3.456ZM68.5384 4.544C68.517 4.608 68.437 4.67733 68.2984 4.752C68.1704 4.82667 68.0637 4.896 67.9784 4.96L67.5304 4.72C67.093 4.48533 66.7944 4.29867 66.6344 4.16C66.549 4.096 66.5064 4.016 66.5064 3.92C66.5064 3.856 66.5277 3.80267 66.5704 3.76C66.6237 3.70667 66.6984 3.68 66.7944 3.68C67.2104 3.68 67.717 3.78667 68.3144 4C68.3784 4.01067 68.437 4.08533 68.4904 4.224C68.5437 4.352 68.5597 4.45867 68.5384 4.544ZM67.0984 7.52C67.1304 7.38133 67.1517 7.28 67.1624 7.216C67.173 7.152 67.1784 7.08267 67.1784 7.008C67.1784 6.85867 67.221 6.74133 67.3064 6.656C67.4024 6.57067 67.5784 6.528 67.8344 6.528C68.133 6.528 68.3944 6.624 68.6184 6.816C68.853 6.99733 68.997 7.23733 69.0504 7.536C69.0824 7.68533 69.1037 7.85067 69.1144 8.032C69.125 8.21333 69.1304 8.33067 69.1304 8.384L69.3544 11.12C69.3864 11.408 69.3437 11.632 69.2264 11.792C69.1197 11.9413 68.9117 12.016 68.6024 12.016C68.3357 12.016 68.1064 11.9413 67.9144 11.792C67.733 11.6427 67.621 11.4507 67.5784 11.216L67.1624 7.824L67.0984 7.52ZM73.7299 6.736C73.7299 6.75733 73.7405 6.78933 73.7619 6.832C73.7939 6.87467 73.8205 6.912 73.8419 6.944L74.3539 6.208C74.5459 5.93067 74.7859 5.76533 75.0739 5.712C75.3725 5.648 75.6232 5.696 75.8259 5.856C76.3272 6.25067 76.6739 6.69333 76.8659 7.184L77.1699 7.952L77.7139 10.8C77.7672 11.0987 77.8685 11.4293 78.0179 11.792C78.1032 12.0267 78.1619 12.2027 78.1939 12.32L78.3379 12.864C78.0605 12.9493 77.8312 12.992 77.6499 12.992C76.9885 12.992 76.5939 12.6933 76.4659 12.096C76.3485 11.4987 76.2099 10.7893 76.0499 9.968L75.8899 9.136C75.6339 8.35733 75.3565 7.97333 75.0579 7.984C74.7592 7.984 74.5405 8.10133 74.4019 8.336C74.1992 8.66667 74.0819 9.024 74.0499 9.408C74.0285 9.78133 74.0179 10.2773 74.0179 10.896C73.9645 11.1307 73.8845 11.296 73.7779 11.392C73.6712 11.4773 73.5059 11.52 73.2819 11.52C72.7699 11.52 72.4979 11.2693 72.4659 10.768C72.4232 10.1707 72.4019 9.49867 72.4019 8.752C72.4019 8.53867 72.3805 8.352 72.3379 8.192C72.2952 8.032 72.1992 7.952 72.0499 7.952C71.9859 7.952 71.9005 7.95733 71.7939 7.968C71.6979 7.97867 71.6232 7.97867 71.5699 7.968C71.3779 7.92533 71.2125 7.888 71.0739 7.856C70.9352 7.824 70.8072 7.776 70.6899 7.712C70.5832 7.63733 70.5405 7.51467 70.5619 7.344C70.5939 7.16267 70.6525 6.992 70.7379 6.832C70.8125 6.72533 70.8925 6.624 70.9779 6.528C71.0739 6.42133 71.1965 6.304 71.3459 6.176C71.7405 5.83467 72.1672 5.65867 72.6259 5.648C72.9672 5.63733 73.2125 5.744 73.3619 5.968C73.5219 6.192 73.6445 6.448 73.7299 6.736ZM85.0004 7.968C84.9684 8.736 84.915 9.31733 84.8404 9.712C84.7657 10.1067 84.6164 10.4853 84.3924 10.848C84.179 11.2 83.827 11.6107 83.3364 12.08L83.8964 12.384C84.2377 12.576 84.4884 12.7093 84.6484 12.784C85.1284 13.008 85.491 13.2907 85.7364 13.632C85.9817 13.984 86.1044 14.368 86.1044 14.784C86.1044 15.296 85.9337 15.8027 85.5924 16.304C85.2297 16.8373 84.7764 17.232 84.2324 17.488C83.6884 17.7547 83.107 17.8933 82.4884 17.904C82.0297 17.9147 81.5604 17.84 81.0804 17.68C80.8564 17.6053 80.6324 17.44 80.4084 17.184C80.1844 16.9387 80.003 16.6613 79.8644 16.352C79.7364 16.0427 79.6777 15.7707 79.6884 15.536C79.699 15.4827 79.7204 15.424 79.7524 15.36C79.7844 15.3067 79.8217 15.2747 79.8644 15.264C79.875 15.2533 79.8964 15.248 79.9284 15.248C79.9604 15.248 80.003 15.2587 80.0564 15.28C80.1204 15.312 80.163 15.3333 80.1844 15.344C80.2377 15.3653 80.275 15.4133 80.2964 15.488C80.4457 15.8187 80.611 16.08 80.7924 16.272C80.9737 16.464 81.2137 16.5493 81.5124 16.528C82.611 16.4533 83.363 16.1493 83.7684 15.616C83.907 15.4453 84.019 15.248 84.1044 15.024C84.2004 14.8107 84.2484 14.608 84.2484 14.416C84.2484 14.1387 84.179 13.936 84.0404 13.808C83.9124 13.68 83.7097 13.5893 83.4324 13.536C83.1337 13.4827 82.8457 13.408 82.5684 13.312C82.3017 13.216 81.9764 13.072 81.5924 12.88C81.4004 12.784 81.267 12.6987 81.1924 12.624C81.1177 12.5493 81.0804 12.4587 81.0804 12.352C81.0804 12.2453 81.1444 11.9733 81.2724 11.536C81.2937 11.472 81.1924 11.3653 80.9684 11.216C80.755 11.0667 80.5684 10.944 80.4084 10.848C79.8324 10.5067 79.5444 9.952 79.5444 9.184C79.5444 8.97067 79.5604 8.768 79.5924 8.576C79.7844 7.40267 80.355 6.57067 81.3044 6.08C81.5284 5.96267 81.763 5.904 82.0084 5.904C82.1897 5.904 82.3764 5.93067 82.5684 5.984C82.7604 6.03733 82.8724 6.06933 82.9044 6.08L83.2404 6.176C83.4004 6.21867 83.555 6.24 83.7044 6.24C83.907 6.24 84.0884 6.20267 84.2484 6.128C84.419 6.05333 84.5897 5.936 84.7604 5.776C85.0057 5.57333 85.267 5.472 85.5444 5.472C85.747 5.472 85.9284 5.53067 86.0884 5.648C86.2484 5.75467 86.3657 5.91467 86.4404 6.128C86.4617 6.21333 86.4724 6.28267 86.4724 6.336C86.4724 6.432 86.4564 6.50667 86.4244 6.56C86.3924 6.60267 86.3017 6.74133 86.1524 6.976C86.0777 7.11467 86.0084 7.232 85.9444 7.328C85.8804 7.424 85.779 7.53067 85.6404 7.648C85.5444 7.70133 85.443 7.744 85.3364 7.776C85.2297 7.79733 85.1444 7.81867 85.0804 7.84C85.027 7.86133 85.0004 7.904 85.0004 7.968ZM81.6404 7.728C81.3097 8.112 81.1444 8.50133 81.1444 8.896C81.1444 9.17333 81.2297 9.44 81.4004 9.696C81.5817 9.94133 81.8537 10.1547 82.2164 10.336C82.6217 10.176 82.9364 9.89867 83.1604 9.504C83.3844 9.10933 83.4964 8.67733 83.4964 8.208C83.4964 7.92 83.4537 7.65867 83.3684 7.424C83.283 7.18933 83.1124 7.008 82.8564 6.88C82.3657 7.072 81.9604 7.35467 81.6404 7.728Z" fill="white"/>
</svg>
