<svg width="92" height="15" viewBox="0 0 92 15" fill="none" xmlns="http://www.w3.org/2000/svg">
<path d="M6.67871 5.69531C6.67871 5.80013 6.6696 5.90267 6.65137 6.00293C6.63314 6.10319 6.62402 6.20573 6.62402 6.31055C6.53743 6.34701 6.47135 6.40397 6.42578 6.48145C6.38477 6.55892 6.3278 6.62272 6.25488 6.67285H6.13184C5.986 6.67285 5.84017 6.66602 5.69434 6.65234C5.5485 6.63867 5.40495 6.61361 5.26367 6.57715C5.19076 6.5179 5.13835 6.42676 5.10645 6.30371C5.07454 6.17611 5.05176 6.03483 5.03809 5.87988C5.02441 5.72038 5.01302 5.55404 5.00391 5.38086C4.99935 5.20768 4.98112 5.04362 4.94922 4.88867C4.92188 4.73372 4.8763 4.59701 4.8125 4.47852C4.75326 4.36003 4.66211 4.27572 4.53906 4.22559C4.46159 4.25293 4.38184 4.2666 4.2998 4.2666C4.18587 4.2666 4.07194 4.25065 3.95801 4.21875C3.84863 4.18685 3.73698 4.1709 3.62305 4.1709C3.49544 4.1709 3.35872 4.2347 3.21289 4.3623C3.06706 4.48991 2.92806 4.64258 2.7959 4.82031C2.66829 4.99349 2.55664 5.1735 2.46094 5.36035C2.36523 5.54264 2.30599 5.69076 2.2832 5.80469C2.26953 5.86393 2.26497 5.9209 2.26953 5.97559C2.27865 6.03027 2.2832 6.08496 2.2832 6.13965C2.2832 6.19434 2.27409 6.24902 2.25586 6.30371C2.24219 6.35384 2.22624 6.40397 2.20801 6.4541C2.19434 6.49967 2.17839 6.54753 2.16016 6.59766C2.14648 6.64323 2.13965 6.69108 2.13965 6.74121C2.13965 6.8278 2.14876 6.91439 2.16699 7.00098C2.18978 7.08301 2.20117 7.1696 2.20117 7.26074C2.20117 7.33822 2.18978 7.41341 2.16699 7.48633C2.14876 7.55924 2.13965 7.639 2.13965 7.72559C2.13965 7.80306 2.15332 7.88281 2.18066 7.96484C2.20801 8.04232 2.22852 8.11979 2.24219 8.19727C2.25586 8.27474 2.26725 8.35449 2.27637 8.43652C2.29004 8.51855 2.31055 8.59831 2.33789 8.67578C2.36523 8.7487 2.40169 8.81478 2.44727 8.87402C2.4974 8.93327 2.56348 8.97884 2.64551 9.01074L2.63184 9.05176C2.63184 9.12012 2.68424 9.19531 2.78906 9.27734C2.89844 9.35938 3.02376 9.43685 3.16504 9.50977C3.31087 9.57812 3.45215 9.63737 3.58887 9.6875C3.73014 9.73307 3.83496 9.75586 3.90332 9.75586C3.98079 9.75586 4.05143 9.74902 4.11523 9.73535C4.18359 9.71712 4.24967 9.68522 4.31348 9.63965L4.35449 9.55762H4.49121C4.53678 9.5166 4.57096 9.46875 4.59375 9.41406C4.61654 9.35938 4.64388 9.30241 4.67578 9.24316C4.70768 9.17936 4.7487 9.11328 4.79883 9.04492C4.85352 8.97656 4.93327 8.90592 5.03809 8.83301C5.0472 8.76465 5.06543 8.70085 5.09277 8.6416C5.12467 8.58236 5.15658 8.52539 5.18848 8.4707C5.22038 8.41146 5.25 8.35449 5.27734 8.2998C5.30924 8.24056 5.33203 8.17904 5.3457 8.11523C5.44596 8.08789 5.54167 8.05827 5.63281 8.02637C5.72852 7.99447 5.8151 7.94889 5.89258 7.88965C5.9974 7.92155 6.10221 7.95801 6.20703 7.99902C6.31185 8.04004 6.41667 8.07878 6.52148 8.11523C6.63542 8.28385 6.69238 8.47982 6.69238 8.70312C6.69238 8.78971 6.68555 8.87402 6.67188 8.95605C6.66276 9.03809 6.64681 9.11784 6.62402 9.19531C6.59668 9.27279 6.55794 9.34342 6.50781 9.40723C6.46224 9.46647 6.42122 9.53027 6.38477 9.59863C6.34375 9.71257 6.30729 9.82422 6.27539 9.93359C6.24805 10.0384 6.19564 10.1364 6.11816 10.2275C6.04525 10.3187 5.96322 10.4007 5.87207 10.4736C5.78092 10.542 5.71257 10.6286 5.66699 10.7334C5.58496 10.7425 5.50977 10.763 5.44141 10.7949C5.37305 10.8268 5.30469 10.8633 5.23633 10.9043C5.17253 10.9408 5.10645 10.9772 5.03809 11.0137C4.96973 11.0501 4.89681 11.0775 4.81934 11.0957C4.75553 11.1094 4.69173 11.1162 4.62793 11.1162C4.56868 11.1162 4.50944 11.123 4.4502 11.1367C4.35905 11.1595 4.2793 11.1914 4.21094 11.2324C4.14258 11.2734 4.06055 11.2939 3.96484 11.2939C3.91016 11.2939 3.86686 11.2871 3.83496 11.2734C3.80762 11.2643 3.78255 11.2529 3.75977 11.2393C3.73698 11.2256 3.71647 11.2119 3.69824 11.1982C3.68457 11.1891 3.66406 11.1846 3.63672 11.1846C3.56836 11.1846 3.50228 11.1982 3.43848 11.2256C3.37467 11.2529 3.30632 11.2712 3.2334 11.2803C3.10579 11.2256 2.98958 11.1732 2.88477 11.123C2.77995 11.0775 2.65462 11.0501 2.50879 11.041C2.44954 10.9635 2.37207 10.9111 2.27637 10.8838C2.18522 10.8519 2.09863 10.8291 2.0166 10.8154C1.99382 10.7835 1.96419 10.7539 1.92773 10.7266C1.89583 10.6992 1.86165 10.6742 1.8252 10.6514C1.79329 10.624 1.76139 10.5944 1.72949 10.5625C1.69759 10.5306 1.67253 10.4941 1.6543 10.4531C1.63151 10.4167 1.61556 10.3802 1.60645 10.3438C1.60189 10.3027 1.58366 10.264 1.55176 10.2275C1.5153 10.1729 1.47428 10.1296 1.42871 10.0977C1.3877 10.0612 1.34896 10.0247 1.3125 9.98828C1.2806 9.95182 1.25326 9.90853 1.23047 9.8584C1.20768 9.80371 1.19857 9.73079 1.20312 9.63965C1.16667 9.60775 1.11882 9.54167 1.05957 9.44141C1.00488 9.34115 0.950195 9.23633 0.895508 9.12695C0.84082 9.01302 0.79069 8.90365 0.745117 8.79883C0.699544 8.69401 0.669922 8.61654 0.65625 8.56641C0.633464 8.5026 0.624349 8.43652 0.628906 8.36816C0.633464 8.2998 0.628906 8.22917 0.615234 8.15625C0.597005 8.09701 0.578776 8.05143 0.560547 8.01953C0.542318 7.98307 0.526367 7.94889 0.512695 7.91699C0.499023 7.88509 0.48763 7.84863 0.478516 7.80762C0.469401 7.7666 0.464844 7.70964 0.464844 7.63672C0.464844 7.51823 0.476237 7.39974 0.499023 7.28125C0.526367 7.1582 0.55599 7.03743 0.587891 6.91895C0.619792 6.80046 0.647135 6.6888 0.669922 6.58398C0.697266 6.47461 0.710938 6.37435 0.710938 6.2832C0.710938 6.22396 0.701823 6.17155 0.683594 6.12598C0.665365 6.07585 0.642578 6.03027 0.615234 5.98926C0.651693 5.92546 0.674479 5.86165 0.683594 5.79785C0.692708 5.73405 0.697266 5.67025 0.697266 5.60645C0.701823 5.53809 0.704102 5.47201 0.704102 5.4082C0.708659 5.3444 0.722331 5.2806 0.745117 5.2168C0.781576 5.13477 0.831706 5.06185 0.895508 4.99805C0.963867 4.92969 1.02083 4.85449 1.06641 4.77246C1.10286 4.69954 1.11882 4.62435 1.11426 4.54688C1.1097 4.4694 1.12109 4.39421 1.14844 4.32129C1.17578 4.25293 1.20996 4.19141 1.25098 4.13672C1.29655 4.08203 1.33984 4.02734 1.38086 3.97266C1.42643 3.91341 1.46517 3.85417 1.49707 3.79492C1.52897 3.73568 1.5472 3.6696 1.55176 3.59668C1.66113 3.56934 1.76139 3.5306 1.85254 3.48047C1.94368 3.43034 2.03027 3.37565 2.1123 3.31641C2.19434 3.2526 2.27409 3.18652 2.35156 3.11816C2.43359 3.0498 2.5179 2.98372 2.60449 2.91992H2.65918C2.70931 2.91992 2.76172 2.91081 2.81641 2.89258C2.87109 2.87435 2.92578 2.85384 2.98047 2.83105C3.03516 2.80827 3.08984 2.78776 3.14453 2.76953C3.19922 2.7513 3.25163 2.74219 3.30176 2.74219C3.38835 2.74219 3.47266 2.75358 3.55469 2.77637C3.64128 2.79915 3.73014 2.8151 3.82129 2.82422C3.92611 2.83789 4.03092 2.84245 4.13574 2.83789C4.24512 2.82878 4.35449 2.82422 4.46387 2.82422C4.57324 2.82422 4.67122 2.84017 4.75781 2.87207C4.84896 2.90397 4.93327 2.93815 5.01074 2.97461C5.09277 3.01107 5.17253 3.04525 5.25 3.07715C5.32747 3.10449 5.40723 3.11361 5.48926 3.10449C5.52116 3.15918 5.56217 3.20703 5.6123 3.24805C5.66243 3.28906 5.71484 3.33008 5.76953 3.37109C5.82422 3.40755 5.87891 3.44857 5.93359 3.49414C5.98828 3.53971 6.03613 3.59212 6.07715 3.65137C6.11816 3.71517 6.14779 3.79264 6.16602 3.88379C6.18424 3.97493 6.21387 4.05924 6.25488 4.13672C6.31868 4.18685 6.37565 4.28255 6.42578 4.42383C6.48047 4.56055 6.52604 4.71094 6.5625 4.875C6.59896 5.03906 6.6263 5.19857 6.64453 5.35352C6.66732 5.50391 6.67871 5.61784 6.67871 5.69531ZM15.199 6.87109C15.199 7.03971 15.1854 7.19466 15.158 7.33594C15.1352 7.47266 15.1124 7.62077 15.0896 7.78027C15.076 7.88053 15.0691 7.97852 15.0691 8.07422C15.0737 8.16992 15.0646 8.2679 15.0418 8.36816C15.019 8.44564 14.9871 8.52083 14.9461 8.59375C14.9051 8.66211 14.8618 8.73047 14.8162 8.79883C14.7706 8.86719 14.7251 8.93783 14.6795 9.01074C14.6385 9.0791 14.6066 9.14974 14.5838 9.22266C14.5656 9.2819 14.5519 9.34342 14.5428 9.40723C14.5382 9.47103 14.5291 9.53483 14.5154 9.59863C14.5018 9.66243 14.4835 9.72396 14.4607 9.7832C14.438 9.84245 14.4038 9.89714 14.3582 9.94727C14.3309 9.98372 14.2944 10.0133 14.2488 10.0361C14.2078 10.0544 14.1691 10.0817 14.1326 10.1182C14.0962 10.1592 14.0734 10.207 14.0643 10.2617C14.0551 10.3118 14.0369 10.3574 14.0096 10.3984H13.9139C13.8911 10.4212 13.8774 10.4486 13.8729 10.4805C13.8683 10.5124 13.8523 10.5465 13.825 10.583C13.7703 10.6377 13.6883 10.6992 13.5789 10.7676C13.4695 10.8359 13.3465 10.9043 13.2098 10.9727C13.073 11.041 12.9272 11.1071 12.7723 11.1709C12.6173 11.2347 12.4669 11.2917 12.3211 11.3418C12.1798 11.3919 12.0454 11.4307 11.9178 11.458C11.7947 11.4899 11.6945 11.5059 11.617 11.5059C11.5577 11.5059 11.5145 11.499 11.4871 11.4854C11.4643 11.4762 11.4461 11.4626 11.4324 11.4443C11.4187 11.4307 11.4051 11.417 11.3914 11.4033C11.3777 11.3942 11.3504 11.3896 11.3094 11.3896C11.2501 11.3896 11.1932 11.3965 11.1385 11.4102C11.0838 11.4238 11.0291 11.4307 10.9744 11.4307C10.9015 11.4307 10.8331 11.4079 10.7693 11.3623C10.7101 11.3213 10.6463 11.2757 10.5779 11.2256C10.5096 11.1755 10.4321 11.1276 10.3455 11.082C10.2589 11.041 10.1541 11.0228 10.0311 11.0273C10.0128 11.0046 9.98776 10.9727 9.95586 10.9316C9.92852 10.8861 9.89889 10.8405 9.86699 10.7949C9.83965 10.7493 9.81003 10.7083 9.77812 10.6719C9.75078 10.6309 9.72799 10.6012 9.70977 10.583C9.67331 10.5465 9.63001 10.5238 9.57988 10.5146C9.53431 10.501 9.48874 10.4759 9.44316 10.4395C9.42038 10.4258 9.40443 10.4053 9.39531 10.3779C9.39076 10.3506 9.3748 10.3255 9.34746 10.3027C9.32467 10.2891 9.30189 10.2845 9.2791 10.2891C9.25631 10.2891 9.23809 10.2777 9.22441 10.2549C9.20618 10.2412 9.19023 10.2184 9.17656 10.1865C9.16745 10.1546 9.15605 10.1227 9.14238 10.0908C9.12871 10.0544 9.11048 10.0225 9.0877 9.99512C9.06947 9.96777 9.03984 9.95182 8.99883 9.94727C8.99883 9.87891 8.9806 9.81738 8.94414 9.7627C8.90768 9.70345 8.87806 9.64421 8.85527 9.58496C8.83249 9.52116 8.81654 9.45964 8.80742 9.40039C8.80286 9.33659 8.78691 9.27734 8.75957 9.22266C8.73678 9.16797 8.70944 9.12012 8.67754 9.0791C8.64564 9.03809 8.61374 8.99935 8.58184 8.96289C8.55449 8.92643 8.52943 8.88542 8.50664 8.83984C8.48841 8.78971 8.4793 8.73047 8.4793 8.66211C8.4793 8.56185 8.48841 8.46387 8.50664 8.36816C8.52487 8.27246 8.53398 8.17448 8.53398 8.07422C8.53398 7.9694 8.51803 7.86458 8.48613 7.75977C8.45423 7.65495 8.43828 7.54557 8.43828 7.43164C8.43828 7.21745 8.46335 7.00781 8.51348 6.80273C8.56361 6.5931 8.58867 6.38118 8.58867 6.16699C8.58867 6.07585 8.57728 5.98926 8.55449 5.90723C8.53171 5.82064 8.52031 5.73177 8.52031 5.64062C8.52031 5.57682 8.53171 5.51302 8.55449 5.44922C8.57728 5.38542 8.61829 5.33073 8.67754 5.28516C8.68665 5.27148 8.68893 5.25553 8.68437 5.2373C8.67982 5.21908 8.67754 5.20312 8.67754 5.18945C8.67754 5.17578 8.68437 5.14844 8.69805 5.10742C8.71172 5.06641 8.72539 5.02311 8.73906 4.97754C8.75729 4.92741 8.77324 4.87728 8.78691 4.82715C8.80059 4.77702 8.8097 4.73828 8.81426 4.71094C8.81881 4.66536 8.82793 4.62891 8.8416 4.60156C8.85983 4.57422 8.88034 4.55143 8.90312 4.5332C8.93047 4.51042 8.95553 4.48991 8.97832 4.47168C9.00111 4.44889 9.02161 4.42155 9.03984 4.38965C9.0763 4.32585 9.08997 4.25977 9.08086 4.19141C9.07174 4.11849 9.08542 4.05013 9.12187 3.98633L9.22441 3.94531C9.25631 3.8724 9.28138 3.82227 9.29961 3.79492C9.31784 3.76758 9.33379 3.74935 9.34746 3.74023C9.36113 3.72656 9.3748 3.71745 9.38848 3.71289C9.40215 3.70833 9.42038 3.69238 9.44316 3.66504C9.45684 3.65137 9.46367 3.63314 9.46367 3.61035C9.46367 3.58301 9.47051 3.55794 9.48418 3.53516C9.50697 3.4987 9.54342 3.46908 9.59355 3.44629C9.64368 3.4235 9.68242 3.39388 9.70977 3.35742C9.73711 3.32096 9.75762 3.28223 9.77129 3.24121C9.78952 3.19564 9.81686 3.15918 9.85332 3.13184C9.89434 3.09082 9.9513 3.05892 10.0242 3.03613C10.0971 3.01335 10.1609 2.98372 10.2156 2.94727C10.2658 2.91081 10.3068 2.87207 10.3387 2.83105C10.3751 2.78548 10.423 2.7513 10.4822 2.72852C10.5141 2.71484 10.5597 2.69889 10.6189 2.68066C10.6782 2.66243 10.7397 2.64648 10.8035 2.63281C10.8719 2.61914 10.9357 2.60775 10.9949 2.59863C11.0542 2.58952 11.102 2.58496 11.1385 2.58496C11.2433 2.58496 11.3436 2.59863 11.4393 2.62598C11.5395 2.65332 11.6398 2.66699 11.74 2.66699C11.8266 2.66699 11.9087 2.66016 11.9861 2.64648C12.0636 2.63281 12.1411 2.62598 12.2186 2.62598C12.4145 2.62598 12.5831 2.64648 12.7244 2.6875C12.8702 2.72396 12.9956 2.77409 13.1004 2.83789C13.2098 2.89714 13.3055 2.96322 13.3875 3.03613C13.4741 3.10905 13.5538 3.17969 13.6268 3.24805C13.6997 3.31185 13.7726 3.37109 13.8455 3.42578C13.9184 3.48047 14.0005 3.51693 14.0916 3.53516C14.1189 3.62174 14.1691 3.68783 14.242 3.7334C14.3195 3.77897 14.3901 3.83138 14.4539 3.89062C14.463 3.96354 14.4812 4.0319 14.5086 4.0957C14.5359 4.15951 14.5656 4.22331 14.5975 4.28711C14.6294 4.34635 14.6613 4.4056 14.6932 4.46484C14.7251 4.52409 14.7501 4.58789 14.7684 4.65625C14.7911 4.72917 14.8003 4.7998 14.7957 4.86816C14.7911 4.93652 14.8003 5.0026 14.823 5.06641C14.8504 5.17578 14.8868 5.28288 14.9324 5.3877C14.978 5.48796 15.0145 5.59049 15.0418 5.69531C15.06 5.76367 15.0691 5.83203 15.0691 5.90039C15.0691 5.96875 15.076 6.03483 15.0896 6.09863C15.117 6.23991 15.1421 6.36751 15.1648 6.48145C15.1876 6.59538 15.199 6.72526 15.199 6.87109ZM13.7703 6.78906C13.7703 6.72526 13.7544 6.67057 13.7225 6.625C13.6951 6.57487 13.6701 6.52018 13.6473 6.46094C13.5971 6.32878 13.5698 6.18978 13.5652 6.04395C13.5652 5.89355 13.5447 5.75 13.5037 5.61328C13.4764 5.51758 13.4217 5.4082 13.3396 5.28516C13.2576 5.16211 13.1642 5.04134 13.0594 4.92285C12.9546 4.80436 12.8452 4.69727 12.7312 4.60156C12.6219 4.5013 12.5216 4.43066 12.4305 4.38965L12.3689 4.29395C12.3416 4.28027 12.3074 4.27344 12.2664 4.27344C12.2254 4.27344 12.1867 4.2666 12.1502 4.25293C12.0454 4.21647 11.9451 4.18001 11.8494 4.14355C11.7537 4.10254 11.6466 4.08203 11.5281 4.08203C11.3732 4.08203 11.2524 4.1071 11.1658 4.15723C11.0792 4.2028 11.004 4.25521 10.9402 4.31445C10.8764 4.36914 10.8149 4.42155 10.7557 4.47168C10.6964 4.51725 10.6189 4.53776 10.5232 4.5332C10.5232 4.60612 10.5073 4.66992 10.4754 4.72461C10.448 4.77474 10.4139 4.82259 10.3729 4.86816C10.3318 4.91374 10.2908 4.95931 10.2498 5.00488C10.2088 5.05046 10.1792 5.10286 10.1609 5.16211C10.1518 5.19857 10.1404 5.26693 10.1268 5.36719C10.1176 5.46745 10.1085 5.5791 10.0994 5.70215C10.0903 5.82064 10.0835 5.93457 10.0789 6.04395C10.0743 6.15332 10.0721 6.23307 10.0721 6.2832C10.0721 6.30599 10.0675 6.32878 10.0584 6.35156C10.0493 6.37435 10.0402 6.39714 10.0311 6.41992C10.0219 6.55208 10.0151 6.68652 10.0105 6.82324C10.006 6.9554 10.0037 7.08757 10.0037 7.21973C10.0037 7.26986 10.0105 7.34733 10.0242 7.45215C10.0379 7.55241 10.0561 7.66862 10.0789 7.80078C10.1017 7.92839 10.1268 8.0651 10.1541 8.21094C10.1814 8.35221 10.2088 8.48665 10.2361 8.61426C10.268 8.74186 10.2977 8.85807 10.325 8.96289C10.3523 9.06315 10.3774 9.13607 10.4002 9.18164C10.423 9.23177 10.4503 9.27051 10.4822 9.29785C10.5141 9.3252 10.5415 9.36165 10.5643 9.40723C10.5779 9.43001 10.5848 9.4528 10.5848 9.47559C10.5848 9.49837 10.5962 9.52116 10.6189 9.54395C10.6645 9.59408 10.7192 9.63281 10.783 9.66016C10.8514 9.6875 10.9152 9.72396 10.9744 9.76953C11.0473 9.78776 11.0997 9.81283 11.1316 9.84473C11.1635 9.87207 11.1977 9.90169 11.2342 9.93359C11.2752 9.96094 11.3276 9.986 11.3914 10.0088C11.4598 10.027 11.5669 10.0361 11.7127 10.0361C11.7856 10.0361 11.8312 10.027 11.8494 10.0088C11.8722 9.99056 11.9109 9.97005 11.9656 9.94727C12.0158 9.92448 12.0659 9.91309 12.116 9.91309C12.1661 9.91309 12.2094 9.90625 12.2459 9.89258C12.3234 9.81055 12.4145 9.73307 12.5193 9.66016C12.6287 9.58724 12.7153 9.50293 12.7791 9.40723C12.8019 9.37533 12.811 9.34342 12.8064 9.31152C12.8019 9.27962 12.811 9.25 12.8338 9.22266C12.8475 9.19987 12.868 9.1862 12.8953 9.18164C12.9227 9.17708 12.9432 9.16341 12.9568 9.14062C13.0206 9.04948 13.0662 8.94466 13.0936 8.82617C13.1255 8.70312 13.1733 8.59147 13.2371 8.49121C13.2645 8.44108 13.3032 8.40007 13.3533 8.36816C13.4035 8.33171 13.4399 8.28385 13.4627 8.22461C13.4809 8.17448 13.4946 8.11751 13.5037 8.05371C13.5128 7.98991 13.5174 7.92383 13.5174 7.85547C13.5219 7.78711 13.5242 7.71875 13.5242 7.65039C13.5288 7.58203 13.5356 7.51823 13.5447 7.45898C13.5538 7.40885 13.5698 7.35417 13.5926 7.29492C13.6199 7.23112 13.645 7.1696 13.6678 7.11035C13.6951 7.04655 13.7179 6.9873 13.7361 6.93262C13.7589 6.87337 13.7703 6.82552 13.7703 6.78906ZM23.6783 7.08301C23.6555 7.18327 23.6214 7.28125 23.5758 7.37695C23.5348 7.47266 23.4915 7.56836 23.4459 7.66406C23.4049 7.75977 23.3661 7.85775 23.3297 7.95801C23.2978 8.05371 23.2796 8.15397 23.275 8.25879C23.2659 8.31803 23.2522 8.35677 23.234 8.375C23.2158 8.38867 23.1952 8.40462 23.1725 8.42285C23.1497 8.44108 23.1292 8.46842 23.1109 8.50488C23.0973 8.54134 23.0904 8.60742 23.0904 8.70312C23.0904 8.76237 23.0836 8.84668 23.0699 8.95605C23.0562 9.06543 23.0357 9.18848 23.0084 9.3252C22.9811 9.45736 22.9492 9.59635 22.9127 9.74219C22.8808 9.88346 22.8443 10.0179 22.8033 10.1455C22.7623 10.2686 22.719 10.3757 22.6734 10.4668C22.6324 10.5579 22.5891 10.6195 22.5436 10.6514C22.5299 10.6878 22.5208 10.7266 22.5162 10.7676C22.5162 10.804 22.5117 10.8405 22.5025 10.877C22.4934 10.9134 22.4775 10.9453 22.4547 10.9727C22.4365 11 22.4205 11.0273 22.4068 11.0547C22.3658 11.1732 22.3385 11.2575 22.3248 11.3076C22.3157 11.3623 22.302 11.4033 22.2838 11.4307C22.2701 11.4626 22.2405 11.4945 22.1949 11.5264C22.1493 11.5583 22.0696 11.6107 21.9557 11.6836C21.9146 11.7201 21.86 11.7588 21.7916 11.7998C21.7232 11.8454 21.6617 11.8682 21.607 11.8682C21.525 11.8682 21.4475 11.8522 21.3746 11.8203C21.3017 11.793 21.2311 11.7565 21.1627 11.7109C21.0943 11.6699 21.0237 11.6266 20.9508 11.5811C20.8824 11.5355 20.8118 11.4967 20.7389 11.4648V11.4307C20.7389 11.3942 20.7252 11.3555 20.6979 11.3145C20.6705 11.2734 20.6568 11.2347 20.6568 11.1982L20.6979 11.1572C20.6887 11.098 20.6773 11.041 20.6637 10.9863C20.65 10.9316 20.6432 10.8747 20.6432 10.8154C20.6432 10.7744 20.6682 10.6924 20.7184 10.5693C20.7685 10.4417 20.8277 10.3073 20.8961 10.166C20.9645 10.0247 21.0305 9.89258 21.0943 9.76953C21.1627 9.64193 21.2128 9.55762 21.2447 9.5166C21.2857 9.46191 21.3336 9.41406 21.3883 9.37305C21.443 9.32747 21.484 9.27279 21.5113 9.20898C21.5478 9.11784 21.5637 9.01986 21.5592 8.91504C21.5592 8.81022 21.5706 8.71224 21.5934 8.62109C21.607 8.57096 21.6298 8.52767 21.6617 8.49121C21.6936 8.4502 21.7187 8.40462 21.7369 8.35449C21.7643 8.25423 21.7711 8.15397 21.7574 8.05371C21.7483 7.95345 21.7551 7.85775 21.7779 7.7666C21.7916 7.69368 21.8167 7.61849 21.8531 7.54102C21.8941 7.46354 21.9146 7.38835 21.9146 7.31543C21.9146 7.25163 21.9078 7.19238 21.8941 7.1377C21.8805 7.07845 21.8736 7.01693 21.8736 6.95312C21.8736 6.83919 21.8759 6.72982 21.8805 6.625C21.885 6.52018 21.8873 6.41536 21.8873 6.31055C21.8873 6.10547 21.86 5.91862 21.8053 5.75C21.7551 5.57682 21.6435 5.43783 21.4703 5.33301L21.4088 5.23047C21.3951 5.22135 21.3814 5.22135 21.3678 5.23047C21.3541 5.23958 21.3359 5.24414 21.3131 5.24414C21.2857 5.24414 21.2607 5.23047 21.2379 5.20312C21.2197 5.17122 21.19 5.13932 21.149 5.10742C21.1126 5.07096 21.0602 5.03906 20.9918 5.01172C20.928 4.97982 20.8391 4.96387 20.7252 4.96387C20.5748 4.96387 20.4449 4.99577 20.3355 5.05957C20.2307 5.11882 20.1327 5.19401 20.0416 5.28516C19.9505 5.37174 19.8616 5.46517 19.775 5.56543C19.6884 5.66113 19.5904 5.74544 19.4811 5.81836C19.4856 5.88672 19.4765 5.94368 19.4537 5.98926C19.4309 6.03483 19.4013 6.07812 19.3648 6.11914C19.3329 6.1556 19.2965 6.19434 19.2555 6.23535C19.219 6.27181 19.1871 6.3151 19.1598 6.36523C19.1461 6.39258 19.1393 6.42448 19.1393 6.46094C19.1393 6.49284 19.1324 6.52246 19.1187 6.5498C19.0823 6.60449 19.0344 6.65234 18.9752 6.69336C18.9205 6.72982 18.8795 6.78451 18.8521 6.85742C18.8202 6.92578 18.8043 7.00098 18.8043 7.08301C18.8043 7.16048 18.7997 7.2334 18.7906 7.30176C18.7906 7.33822 18.7838 7.36784 18.7701 7.39062C18.761 7.41341 18.7496 7.4362 18.7359 7.45898C18.7223 7.47721 18.7086 7.49544 18.6949 7.51367C18.6812 7.5319 18.6721 7.55469 18.6676 7.58203C18.6539 7.68685 18.6471 7.79167 18.6471 7.89648C18.6471 8.0013 18.622 8.10612 18.5719 8.21094C18.6083 8.31576 18.6471 8.42057 18.6881 8.52539C18.7291 8.62565 18.7496 8.73275 18.7496 8.84668C18.7496 8.97884 18.7291 9.10872 18.6881 9.23633C18.6471 9.36393 18.6266 9.49382 18.6266 9.62598C18.6266 9.73991 18.6539 9.83789 18.7086 9.91992C18.6448 10.0977 18.5969 10.2799 18.565 10.4668C18.5331 10.6491 18.4921 10.8314 18.442 11.0137C18.3873 11.0638 18.3235 11.1003 18.2506 11.123C18.1777 11.1458 18.107 11.1572 18.0387 11.1572C17.9065 11.1572 17.7766 11.1413 17.649 11.1094C17.5214 11.082 17.3938 11.0638 17.2662 11.0547C17.2525 11 17.2252 10.9544 17.1842 10.918C17.1477 10.877 17.1067 10.8382 17.0611 10.8018C17.0201 10.7653 16.9837 10.7243 16.9518 10.6787C16.9199 10.6286 16.9039 10.5671 16.9039 10.4941C16.9039 10.4303 16.9221 10.3597 16.9586 10.2822C16.9996 10.2048 17.027 10.1318 17.0406 10.0635C17.0497 9.99967 17.0497 9.93359 17.0406 9.86523C17.0315 9.79688 17.027 9.72624 17.027 9.65332C17.027 9.53027 17.0475 9.40495 17.0885 9.27734C17.134 9.14974 17.1614 9.01986 17.1705 8.8877C17.1751 8.81934 17.1773 8.7487 17.1773 8.67578C17.1773 8.59831 17.1796 8.52311 17.1842 8.4502C17.1887 8.37272 17.1979 8.29753 17.2115 8.22461C17.2298 8.15169 17.2617 8.08789 17.3072 8.0332C17.2936 7.98307 17.2799 7.93294 17.2662 7.88281C17.2571 7.82812 17.2525 7.77572 17.2525 7.72559C17.2525 7.67546 17.2617 7.62988 17.2799 7.58887C17.2981 7.54329 17.3072 7.5 17.3072 7.45898C17.3072 7.41797 17.2936 7.38607 17.2662 7.36328C17.2389 7.33594 17.2252 7.30176 17.2252 7.26074L17.2662 7.21973C17.2571 7.16504 17.248 7.11263 17.2389 7.0625C17.2298 7.00781 17.2252 6.95312 17.2252 6.89844C17.2252 6.77083 17.2457 6.65007 17.2867 6.53613C17.3323 6.41764 17.3551 6.2946 17.3551 6.16699C17.3551 6.06217 17.346 5.96191 17.3277 5.86621C17.3141 5.76595 17.3072 5.66569 17.3072 5.56543C17.3072 5.49707 17.3141 5.43099 17.3277 5.36719C17.346 5.29883 17.3619 5.23275 17.3756 5.16895C17.3938 5.10514 17.4098 5.04134 17.4234 4.97754C17.4417 4.90918 17.4508 4.84082 17.4508 4.77246C17.4508 4.71777 17.4417 4.66536 17.4234 4.61523C17.4098 4.5651 17.3915 4.51497 17.3687 4.46484C17.3505 4.41471 17.3323 4.36458 17.3141 4.31445C17.3004 4.26432 17.2936 4.21191 17.2936 4.15723C17.2936 3.93848 17.3482 3.73112 17.4576 3.53516C17.567 3.33919 17.6992 3.16829 17.8541 3.02246C17.8632 3.02246 17.8723 3.02474 17.8814 3.0293C17.8906 3.03385 17.8997 3.03613 17.9088 3.03613C17.9589 3.03613 18.0022 3.02702 18.0387 3.00879C18.0797 2.986 18.1207 2.97461 18.1617 2.97461C18.2802 2.97461 18.3827 3.00423 18.4693 3.06348C18.5605 3.11816 18.6539 3.16374 18.7496 3.2002C18.8134 3.37337 18.8658 3.54883 18.9068 3.72656C18.9524 3.9043 18.9752 4.08887 18.9752 4.28027C19.0253 4.2666 19.0709 4.24837 19.1119 4.22559C19.1575 4.19824 19.2008 4.1709 19.2418 4.14355C19.2874 4.11621 19.3307 4.09115 19.3717 4.06836C19.4173 4.04102 19.4674 4.02279 19.5221 4.01367C19.5676 3.98177 19.6064 3.94531 19.6383 3.9043C19.6702 3.85872 19.6998 3.81315 19.7271 3.76758C19.759 3.72201 19.7887 3.67871 19.816 3.6377C19.8479 3.59212 19.8844 3.55339 19.9254 3.52148C19.9801 3.48047 20.0667 3.43717 20.1852 3.3916C20.3082 3.34603 20.4358 3.30501 20.568 3.26855C20.7047 3.22754 20.8368 3.19564 20.9645 3.17285C21.0921 3.14551 21.19 3.13184 21.2584 3.13184C21.3404 3.13184 21.4133 3.14095 21.4771 3.15918C21.5455 3.17285 21.6093 3.19336 21.6686 3.2207C21.7324 3.24349 21.7939 3.27083 21.8531 3.30273C21.9169 3.33008 21.9853 3.35742 22.0582 3.38477C22.0855 3.39388 22.1129 3.40072 22.1402 3.40527C22.1676 3.40527 22.1995 3.41211 22.2359 3.42578C22.2906 3.44857 22.3385 3.48047 22.3795 3.52148C22.4251 3.55794 22.4706 3.59668 22.5162 3.6377C22.5618 3.67871 22.6074 3.71745 22.6529 3.75391C22.7031 3.78581 22.7555 3.81087 22.8102 3.8291C22.8375 3.90658 22.874 3.97493 22.9195 4.03418C22.9697 4.09342 23.0266 4.14811 23.0904 4.19824C23.1041 4.29395 23.1292 4.38509 23.1656 4.47168C23.2066 4.55371 23.2454 4.63802 23.2818 4.72461C23.3229 4.80664 23.3593 4.89095 23.3912 4.97754C23.4231 5.05957 23.4391 5.14844 23.4391 5.24414C23.4391 5.30339 23.4322 5.35579 23.4186 5.40137C23.4049 5.44238 23.398 5.48796 23.398 5.53809C23.398 5.5791 23.4049 5.611 23.4186 5.63379C23.4368 5.65658 23.4527 5.67936 23.4664 5.70215C23.4846 5.72038 23.5006 5.74316 23.5143 5.77051C23.5325 5.79329 23.5416 5.82292 23.5416 5.85938C23.5416 5.96419 23.537 6.06673 23.5279 6.16699C23.5188 6.26725 23.5143 6.36979 23.5143 6.47461C23.5143 6.57943 23.5257 6.68424 23.5484 6.78906C23.5712 6.89388 23.6145 6.99186 23.6783 7.08301ZM31.7406 5.8457C31.7406 5.95964 31.7247 6.08724 31.6928 6.22852C31.6609 6.36979 31.6107 6.50423 31.5424 6.63184C31.4786 6.75488 31.3965 6.8597 31.2963 6.94629C31.196 7.02832 31.0775 7.06934 30.9408 7.06934C30.8223 7.06934 30.7084 7.03971 30.599 6.98047C30.4896 6.91667 30.3939 6.84147 30.3119 6.75488C30.2663 6.65918 30.239 6.5612 30.2299 6.46094C30.2208 6.35612 30.1866 6.25814 30.1273 6.16699C30.1182 6.15788 30.1137 6.13509 30.1137 6.09863C30.1137 6.0485 30.1228 6.00065 30.141 5.95508C30.1592 5.90951 30.1684 5.85482 30.1684 5.79102C30.1684 5.72266 30.1775 5.65658 30.1957 5.59277C30.2139 5.52441 30.223 5.4515 30.223 5.37402C30.223 5.33757 30.1957 5.27148 30.141 5.17578C30.0909 5.08008 30.0316 4.9821 29.9633 4.88184C29.8949 4.77702 29.8266 4.68359 29.7582 4.60156C29.6944 4.51497 29.6488 4.46484 29.6215 4.45117C29.6078 4.44206 29.5919 4.44206 29.5736 4.45117C29.5554 4.46029 29.5349 4.46484 29.5121 4.46484L29.4984 4.45117L29.4574 4.3623C29.3435 4.31673 29.2387 4.28483 29.143 4.2666C29.0518 4.24382 28.9607 4.22786 28.8695 4.21875C28.7784 4.20964 28.685 4.20508 28.5893 4.20508C28.4936 4.20052 28.391 4.19368 28.2816 4.18457C28.2178 4.17546 28.154 4.16634 28.0902 4.15723C28.0264 4.14355 27.9581 4.13672 27.8852 4.13672C27.8396 4.13672 27.7758 4.15267 27.6938 4.18457C27.6117 4.21647 27.5274 4.25749 27.4408 4.30762C27.3588 4.35319 27.2813 4.40104 27.2084 4.45117C27.1355 4.5013 27.0876 4.54688 27.0648 4.58789C27.0375 4.61979 27.0079 4.68587 26.976 4.78613C26.9486 4.88639 26.9213 4.99577 26.8939 5.11426C26.8666 5.22819 26.8415 5.33984 26.8188 5.44922C26.8005 5.55859 26.7891 5.63607 26.7846 5.68164C26.8074 5.73633 26.8393 5.78646 26.8803 5.83203C26.9213 5.87305 26.9623 5.91406 27.0033 5.95508C27.0489 5.99609 27.0876 6.03939 27.1195 6.08496C27.156 6.13053 27.1788 6.1875 27.1879 6.25586C27.279 6.27865 27.3542 6.31055 27.4135 6.35156C27.4773 6.38802 27.5388 6.42448 27.598 6.46094C27.6618 6.49284 27.7302 6.52018 27.8031 6.54297C27.8806 6.5612 27.9786 6.55892 28.0971 6.53613C28.1563 6.58626 28.2178 6.63411 28.2816 6.67969C28.35 6.72526 28.4092 6.77995 28.4594 6.84375C28.4822 6.82096 28.5095 6.80957 28.5414 6.80957C28.5733 6.80501 28.6075 6.80273 28.6439 6.80273H28.8148C28.8741 6.83919 28.9379 6.86882 29.0063 6.8916C29.0792 6.90983 29.1498 6.92806 29.2182 6.94629C29.2911 6.95996 29.3617 6.97591 29.4301 6.99414C29.4984 7.01237 29.5622 7.04199 29.6215 7.08301C29.7126 7.13314 29.7855 7.20378 29.8402 7.29492C29.8949 7.38151 29.9587 7.45898 30.0316 7.52734C30.059 7.51823 30.0818 7.51139 30.1 7.50684C30.1228 7.50228 30.1456 7.5 30.1684 7.5C30.2367 7.5 30.296 7.51823 30.3461 7.55469C30.3962 7.59115 30.4441 7.63216 30.4896 7.67773C30.5352 7.71875 30.5808 7.76204 30.6264 7.80762C30.6765 7.84863 30.7335 7.87598 30.7973 7.88965C30.8155 7.95345 30.8383 8.01725 30.8656 8.08105C30.893 8.14486 30.9317 8.19954 30.9818 8.24512C30.9727 8.34082 30.9727 8.4388 30.9818 8.53906C30.991 8.63477 30.9955 8.72819 30.9955 8.81934C30.9955 8.8877 30.9864 8.95378 30.9682 9.01758C30.9499 9.07682 30.9408 9.13607 30.9408 9.19531C30.9408 9.24544 30.9499 9.29557 30.9682 9.3457C30.9864 9.39583 31.0069 9.44824 31.0297 9.50293C31.0525 9.55762 31.073 9.6123 31.0912 9.66699C31.1094 9.71712 31.1208 9.76953 31.1254 9.82422C31.1072 9.88802 31.0867 9.94271 31.0639 9.98828C31.0456 10.0339 31.0274 10.0794 31.0092 10.125C30.9955 10.1706 30.9841 10.2184 30.975 10.2686C30.9704 10.3187 30.9727 10.3802 30.9818 10.4531C30.8952 10.5579 30.8269 10.6719 30.7768 10.7949C30.7266 10.918 30.6605 11.0319 30.5785 11.1367L30.4896 11.1846V11.2666L30.3939 11.3213C30.3712 11.376 30.3552 11.4124 30.3461 11.4307C30.337 11.4489 30.3256 11.4603 30.3119 11.4648C30.3028 11.474 30.2868 11.4831 30.2641 11.4922C30.2413 11.5013 30.2094 11.5195 30.1684 11.5469C30.1273 11.5742 30.0932 11.6107 30.0658 11.6562C30.0385 11.7018 29.9997 11.7406 29.9496 11.7725C29.8767 11.8135 29.7947 11.8363 29.7035 11.8408C29.6169 11.8499 29.5349 11.8727 29.4574 11.9092C29.3845 11.9365 29.3161 11.9775 29.2523 12.0322C29.1885 12.0869 29.1202 12.1211 29.0473 12.1348C28.9652 12.1484 28.8764 12.1507 28.7807 12.1416C28.6895 12.137 28.6029 12.1348 28.5209 12.1348C28.4434 12.1348 28.3682 12.1416 28.2953 12.1553C28.2224 12.1689 28.1472 12.1758 28.0697 12.1758C27.974 12.1758 27.876 12.1667 27.7758 12.1484C27.6755 12.1302 27.5753 12.1097 27.475 12.0869C27.3793 12.0641 27.2813 12.0436 27.1811 12.0254C27.0808 12.0072 26.9805 11.9958 26.8803 11.9912C26.8484 11.9456 26.8119 11.9115 26.7709 11.8887C26.7299 11.8704 26.6866 11.8568 26.641 11.8477C26.5954 11.8431 26.5499 11.8363 26.5043 11.8271C26.4587 11.818 26.4154 11.7998 26.3744 11.7725C26.3197 11.7314 26.2673 11.6859 26.2172 11.6357C26.1716 11.5856 26.1238 11.5355 26.0736 11.4854C26.0235 11.4352 25.9711 11.3874 25.9164 11.3418C25.8663 11.2962 25.8093 11.2575 25.7455 11.2256C25.741 11.1846 25.7204 11.1139 25.684 11.0137C25.6521 10.918 25.6156 10.8177 25.5746 10.7129C25.5382 10.6081 25.504 10.5078 25.4721 10.4121C25.4402 10.3118 25.4242 10.2412 25.4242 10.2002C25.4242 10.1045 25.4311 10.0065 25.4447 9.90625C25.4584 9.80599 25.4652 9.70345 25.4652 9.59863C25.4652 9.53027 25.4903 9.46191 25.5404 9.39355C25.5906 9.32064 25.6521 9.25684 25.725 9.20215C25.7979 9.1429 25.8754 9.09733 25.9574 9.06543C26.0395 9.02897 26.1101 9.01074 26.1693 9.01074C26.2924 9.01074 26.4086 9.04036 26.518 9.09961C26.6319 9.15885 26.739 9.22266 26.8393 9.29102C26.8438 9.36849 26.8529 9.46191 26.8666 9.57129C26.8803 9.68066 26.9031 9.79004 26.935 9.89941C26.9669 10.0088 27.0079 10.1113 27.058 10.207C27.1081 10.2982 27.1697 10.3665 27.2426 10.4121C27.2654 10.4258 27.2859 10.4326 27.3041 10.4326C27.3269 10.4326 27.3497 10.4395 27.3725 10.4531L27.4135 10.5488C27.4408 10.5579 27.4773 10.5579 27.5229 10.5488C27.5684 10.5397 27.6026 10.5352 27.6254 10.5352C27.6573 10.5352 27.6801 10.5397 27.6938 10.5488C27.712 10.5579 27.7257 10.5693 27.7348 10.583C27.7484 10.5921 27.7598 10.6035 27.7689 10.6172C27.7781 10.6263 27.794 10.6331 27.8168 10.6377C27.876 10.6514 27.9376 10.6582 28.0014 10.6582C28.0652 10.6536 28.1244 10.6514 28.1791 10.6514C28.2429 10.6514 28.3044 10.6559 28.3637 10.665C28.4275 10.6742 28.489 10.6969 28.5482 10.7334C28.5847 10.7061 28.6326 10.6855 28.6918 10.6719C28.7556 10.6536 28.8194 10.6377 28.8832 10.624C28.947 10.6104 29.0063 10.5944 29.0609 10.5762C29.1156 10.5579 29.1544 10.5352 29.1771 10.5078C29.2546 10.4121 29.3321 10.3073 29.4096 10.1934C29.487 10.0794 29.5577 9.97005 29.6215 9.86523C29.6124 9.76497 29.6124 9.66699 29.6215 9.57129C29.6306 9.47103 29.6352 9.36849 29.6352 9.26367C29.6352 9.15885 29.6215 9.07454 29.5941 9.01074C29.5668 8.94238 29.5349 8.88086 29.4984 8.82617C29.4665 8.77148 29.4324 8.7168 29.3959 8.66211C29.3594 8.60742 29.3321 8.54134 29.3139 8.46387C29.2729 8.44564 29.2273 8.42969 29.1771 8.41602C29.127 8.40234 29.0746 8.38639 29.0199 8.36816C28.9698 8.34993 28.9219 8.32943 28.8764 8.30664C28.8308 8.2793 28.7943 8.24284 28.767 8.19727C28.6576 8.19727 28.5574 8.18132 28.4662 8.14941C28.3751 8.11296 28.2794 8.06966 28.1791 8.01953C28.1244 8.0332 28.072 8.04232 28.0219 8.04688C27.9717 8.04688 27.9171 8.04688 27.8578 8.04688C27.7348 8.04688 27.6163 8.03092 27.5023 7.99902C27.393 7.96257 27.2859 7.92611 27.1811 7.88965C27.0762 7.85319 26.9714 7.82129 26.8666 7.79395C26.7663 7.76204 26.6638 7.74837 26.559 7.75293C26.5089 7.68913 26.4382 7.61393 26.3471 7.52734C26.2559 7.44076 26.1625 7.35417 26.0668 7.26758C25.9757 7.18099 25.8913 7.10124 25.8139 7.02832C25.7364 6.95085 25.6863 6.88932 25.6635 6.84375C25.627 6.78906 25.5974 6.72982 25.5746 6.66602C25.5564 6.59766 25.5359 6.53158 25.5131 6.46777C25.4949 6.40397 25.4721 6.34245 25.4447 6.2832C25.4219 6.22396 25.3878 6.17155 25.3422 6.12598C25.3786 6.05306 25.3969 5.96875 25.3969 5.87305C25.3969 5.79102 25.3878 5.71126 25.3695 5.63379C25.3513 5.55176 25.3422 5.46973 25.3422 5.3877C25.3422 5.31934 25.3513 5.25781 25.3695 5.20312C25.3878 5.14388 25.406 5.08464 25.4242 5.02539C25.447 4.96615 25.4652 4.90462 25.4789 4.84082C25.4926 4.77702 25.4926 4.70638 25.4789 4.62891C25.7432 4.30078 25.9825 3.94076 26.1967 3.54883C26.2605 3.4987 26.3288 3.4554 26.4018 3.41895C26.4792 3.38249 26.5453 3.33919 26.6 3.28906C26.7595 3.1569 26.9167 3.05664 27.0717 2.98828C27.2266 2.91536 27.4112 2.87891 27.6254 2.87891C27.6938 2.87891 27.7576 2.86296 27.8168 2.83105C27.876 2.7946 27.9376 2.76497 28.0014 2.74219C28.0469 2.72852 28.1016 2.71712 28.1654 2.70801C28.2338 2.69889 28.3044 2.69206 28.3773 2.6875C28.4503 2.68294 28.5186 2.68066 28.5824 2.68066C28.6508 2.68066 28.7077 2.68066 28.7533 2.68066C28.8855 2.68066 29.004 2.69889 29.1088 2.73535C29.2136 2.76725 29.3253 2.7832 29.4438 2.7832C29.4984 2.7832 29.5531 2.80599 29.6078 2.85156C29.6625 2.89714 29.7149 2.93359 29.765 2.96094C29.9109 3.03841 30.059 3.11133 30.2094 3.17969C30.3643 3.24805 30.5193 3.31185 30.6742 3.37109C30.7152 3.4349 30.7608 3.49186 30.8109 3.54199C30.8656 3.58757 30.9203 3.63314 30.975 3.67871C31.0342 3.71973 31.0912 3.76302 31.1459 3.80859C31.2006 3.85417 31.253 3.9043 31.3031 3.95898C31.3441 4.10938 31.3897 4.26432 31.4398 4.42383C31.49 4.57878 31.5355 4.736 31.5766 4.89551C31.6221 5.05046 31.6609 5.20996 31.6928 5.37402C31.7247 5.53353 31.7406 5.69076 31.7406 5.8457ZM39.0715 3.77441C39.0715 3.87467 39.0419 3.96354 38.9826 4.04102C38.9279 4.11393 38.8824 4.19368 38.8459 4.28027C38.7639 4.29395 38.6909 4.31901 38.6271 4.35547C38.5679 4.38737 38.5064 4.42383 38.4426 4.46484C38.3833 4.5013 38.3173 4.5332 38.2443 4.56055C38.1714 4.58789 38.0871 4.60156 37.9914 4.60156C37.9003 4.60156 37.8114 4.59245 37.7248 4.57422C37.6428 4.55599 37.5585 4.54688 37.4719 4.54688C37.3579 4.54688 37.2486 4.56966 37.1437 4.61523C37.0435 4.66081 36.9341 4.68359 36.8156 4.68359C36.7017 4.68359 36.5855 4.6722 36.467 4.64941C36.3531 4.62663 36.2414 4.61523 36.132 4.61523C36.0956 4.61523 36.0614 4.61751 36.0295 4.62207C36.0021 4.62663 35.9748 4.62891 35.9475 4.62891C35.9064 4.71549 35.8882 4.80436 35.8928 4.89551C35.9019 4.98665 35.9064 5.07552 35.9064 5.16211C35.9064 5.31706 35.8905 5.47201 35.8586 5.62695C35.8312 5.7819 35.8176 5.93913 35.8176 6.09863C35.8176 6.22624 35.8312 6.35156 35.8586 6.47461C35.8905 6.5931 35.9064 6.71615 35.9064 6.84375C35.9064 6.91211 35.8973 6.97591 35.8791 7.03516C35.8609 7.08984 35.8381 7.14453 35.8107 7.19922C35.788 7.25391 35.7674 7.30859 35.7492 7.36328C35.731 7.41797 35.7219 7.47721 35.7219 7.54102C35.7219 7.58203 35.7287 7.62533 35.7424 7.6709C35.7561 7.71191 35.7629 7.75293 35.7629 7.79395L35.7219 7.83496C35.7219 7.85319 35.7264 7.86914 35.7355 7.88281C35.7447 7.89193 35.7561 7.9056 35.7697 7.92383C35.7834 7.9375 35.7948 7.95573 35.8039 7.97852C35.813 8.0013 35.8176 8.0332 35.8176 8.07422C35.8176 8.19271 35.8085 8.3112 35.7902 8.42969C35.772 8.54818 35.7629 8.66667 35.7629 8.78516C35.7629 8.80794 35.7674 8.85807 35.7766 8.93555C35.7857 9.00846 35.7971 9.09505 35.8107 9.19531C35.829 9.29557 35.8449 9.40039 35.8586 9.50977C35.8768 9.61914 35.8951 9.72168 35.9133 9.81738C35.9315 9.91309 35.9475 9.99512 35.9611 10.0635C35.9794 10.1318 35.993 10.1729 36.0021 10.1865C36.0386 10.2367 36.0819 10.2777 36.132 10.3096C36.1822 10.3369 36.2277 10.3711 36.2687 10.4121C36.287 10.4212 36.3143 10.4258 36.3508 10.4258C36.4009 10.4258 36.4465 10.4189 36.4875 10.4053C36.5331 10.3916 36.5809 10.3802 36.6311 10.3711C36.6812 10.3574 36.7313 10.3506 36.7814 10.3506C36.8361 10.3506 36.8885 10.3438 36.9387 10.3301C36.9934 10.3073 37.0412 10.2777 37.0822 10.2412C37.1232 10.2048 37.162 10.1706 37.1984 10.1387C37.2395 10.1022 37.2827 10.0726 37.3283 10.0498C37.3739 10.0225 37.4263 10.0088 37.4855 10.0088C37.563 9.86751 37.6473 9.73307 37.7385 9.60547C37.8342 9.47786 37.9139 9.34115 37.9777 9.19531C37.996 9.20443 38.0142 9.20898 38.0324 9.20898C38.0689 9.20898 38.0985 9.19987 38.1213 9.18164C38.1486 9.16341 38.1805 9.1543 38.217 9.1543C38.2215 9.1543 38.2443 9.16113 38.2854 9.1748C38.3264 9.18392 38.3697 9.19759 38.4152 9.21582C38.4608 9.22949 38.5041 9.24544 38.5451 9.26367C38.5861 9.27734 38.6112 9.28646 38.6203 9.29102C38.6477 9.3138 38.6682 9.35482 38.6818 9.41406C38.7001 9.47331 38.7206 9.52116 38.7434 9.55762C38.7661 9.59408 38.7867 9.62142 38.8049 9.63965C38.8231 9.65788 38.8368 9.67839 38.8459 9.70117C38.8596 9.7194 38.8687 9.74219 38.8732 9.76953C38.8824 9.79688 38.8869 9.83789 38.8869 9.89258C38.8869 10.0339 38.8573 10.1683 38.798 10.2959C38.7434 10.4189 38.6978 10.5465 38.6613 10.6787C38.6021 10.7015 38.5542 10.7357 38.5178 10.7812C38.4813 10.8223 38.4449 10.8656 38.4084 10.9111C38.3765 10.9567 38.3378 10.9977 38.2922 11.0342C38.2512 11.0706 38.1919 11.0911 38.1145 11.0957C38.078 11.2005 38.0187 11.2894 37.9367 11.3623C37.8547 11.4352 37.7658 11.4967 37.6701 11.5469C37.6428 11.5742 37.604 11.5879 37.5539 11.5879C37.5266 11.5879 37.4947 11.5811 37.4582 11.5674C37.4263 11.5537 37.4035 11.5332 37.3898 11.5059C37.3306 11.5286 37.2873 11.5514 37.26 11.5742C37.2372 11.6016 37.2167 11.6289 37.1984 11.6562C37.1802 11.6882 37.1597 11.7178 37.1369 11.7451C37.1187 11.7725 37.0868 11.7975 37.0412 11.8203C37.0002 11.8431 36.9387 11.8613 36.8566 11.875C36.7792 11.8887 36.6721 11.8955 36.5354 11.8955C36.4715 11.8955 36.4077 11.8978 36.3439 11.9023C36.2847 11.9115 36.2277 11.9274 36.173 11.9502C36.0682 11.8773 35.9383 11.8317 35.7834 11.8135C35.6284 11.7998 35.4872 11.7861 35.3596 11.7725C35.3687 11.7269 35.355 11.7041 35.3186 11.7041C35.2821 11.7041 35.2525 11.6927 35.2297 11.6699C35.1796 11.6426 35.1385 11.6016 35.1066 11.5469C35.0747 11.4967 35.0223 11.4648 34.9494 11.4512C34.9449 11.3965 34.9266 11.3441 34.8947 11.2939C34.8628 11.2484 34.8264 11.2028 34.7854 11.1572C34.7489 11.1117 34.7124 11.0638 34.676 11.0137C34.6395 10.9681 34.6145 10.918 34.6008 10.8633C34.5598 10.7311 34.5096 10.599 34.4504 10.4668C34.3957 10.3301 34.3524 10.1911 34.3205 10.0498C34.3068 9.986 34.2932 9.90397 34.2795 9.80371C34.2704 9.69889 34.2613 9.58952 34.2521 9.47559C34.2476 9.36165 34.243 9.25228 34.2385 9.14746C34.2385 9.04264 34.2385 8.95605 34.2385 8.8877C34.2385 8.77376 34.2521 8.66667 34.2795 8.56641C34.3068 8.46159 34.3205 8.35449 34.3205 8.24512C34.3205 8.09928 34.3091 7.95573 34.2863 7.81445C34.2635 7.67318 34.2476 7.5319 34.2385 7.39062C34.2294 7.31315 34.2294 7.23568 34.2385 7.1582C34.2476 7.08073 34.2521 7.00326 34.2521 6.92578C34.2521 6.80729 34.2339 6.70475 34.1975 6.61816C34.2248 6.59993 34.2476 6.57259 34.2658 6.53613C34.2886 6.49967 34.3068 6.46094 34.3205 6.41992C34.3342 6.37435 34.3433 6.32878 34.3479 6.2832C34.357 6.23763 34.3615 6.19889 34.3615 6.16699L34.3205 6.12598C34.3296 6.05762 34.3365 5.98926 34.341 5.9209C34.3456 5.84798 34.3479 5.77734 34.3479 5.70898C34.3479 5.63607 34.3387 5.56771 34.3205 5.50391C34.3068 5.43555 34.2795 5.37402 34.2385 5.31934C34.2294 5.24642 34.2362 5.17806 34.259 5.11426C34.2818 5.05046 34.2932 4.98665 34.2932 4.92285L34.2795 4.81348C34.1747 4.7998 34.0653 4.79753 33.9514 4.80664C33.8374 4.8112 33.7281 4.81348 33.6232 4.81348C33.5503 4.81348 33.4774 4.81348 33.4045 4.81348C33.3316 4.80892 33.2632 4.79525 33.1994 4.77246C33.1311 4.6722 33.0604 4.57422 32.9875 4.47852C32.9146 4.37826 32.8781 4.26432 32.8781 4.13672C32.8781 3.99089 32.9146 3.86328 32.9875 3.75391C33.0604 3.64453 33.1311 3.5306 33.1994 3.41211C33.2541 3.40755 33.3088 3.39388 33.3635 3.37109C33.4182 3.34831 33.4706 3.32324 33.5207 3.2959C33.5754 3.26855 33.6278 3.24349 33.6779 3.2207C33.7281 3.19792 33.7805 3.18652 33.8352 3.18652C33.9309 3.18652 34.022 3.21159 34.1086 3.26172C34.1952 3.30729 34.2909 3.33008 34.3957 3.33008H34.4641C34.4868 3.27995 34.5074 3.22754 34.5256 3.17285C34.5484 3.11816 34.5552 3.06348 34.5461 3.00879C34.5233 2.99056 34.5028 2.97233 34.4846 2.9541C34.4709 2.93132 34.4641 2.90625 34.4641 2.87891C34.4641 2.85612 34.4709 2.83789 34.4846 2.82422C34.4982 2.80599 34.5051 2.77865 34.5051 2.74219C34.5051 2.63737 34.4914 2.53255 34.4641 2.42773C34.4367 2.31836 34.423 2.20671 34.423 2.09277C34.423 2.00163 34.4367 1.88997 34.4641 1.75781C34.496 1.62565 34.5347 1.49349 34.5803 1.36133C34.6304 1.22461 34.6874 1.09701 34.7512 0.978516C34.815 0.860026 34.8811 0.771159 34.9494 0.711914C35.0087 0.702799 35.0656 0.698242 35.1203 0.698242C35.175 0.698242 35.232 0.698242 35.2912 0.698242C35.4279 0.698242 35.5441 0.727865 35.6398 0.787109C35.7355 0.846354 35.813 0.923828 35.8723 1.01953C35.9315 1.11523 35.9748 1.22461 36.0021 1.34766C36.0295 1.46615 36.0432 1.58464 36.0432 1.70312C36.0432 1.7806 36.0227 1.8763 35.9816 1.99023C35.9406 2.10417 35.9201 2.22721 35.9201 2.35938C35.9201 2.46419 35.9247 2.57357 35.9338 2.6875C35.9429 2.79688 35.9475 2.90397 35.9475 3.00879C35.9702 3.00879 35.993 3.00651 36.0158 3.00195C36.0386 2.9974 36.0614 2.99512 36.0842 2.99512C36.1753 2.99512 36.2619 3.01107 36.3439 3.04297C36.426 3.07487 36.5126 3.09082 36.6037 3.09082C36.6675 3.09082 36.7199 3.07715 36.7609 3.0498C36.7974 3.0498 36.827 3.05892 36.8498 3.07715C36.8726 3.09082 36.8908 3.10905 36.9045 3.13184C36.9227 3.15007 36.9409 3.17057 36.9592 3.19336C36.982 3.21159 37.0093 3.22298 37.0412 3.22754C37.1096 3.2002 37.1734 3.16374 37.2326 3.11816C37.2964 3.07259 37.3671 3.03613 37.4445 3.00879H38.6203C38.6568 3.03613 38.6887 3.06576 38.716 3.09766C38.7434 3.12956 38.7867 3.14551 38.8459 3.14551C38.8505 3.2002 38.8641 3.2526 38.8869 3.30273C38.9143 3.35286 38.9416 3.40299 38.9689 3.45312C38.9963 3.50326 39.0191 3.55566 39.0373 3.61035C39.0601 3.66048 39.0715 3.71517 39.0715 3.77441ZM46.6279 10.0225C46.6143 10.0908 46.596 10.1501 46.5732 10.2002C46.555 10.2458 46.5368 10.2936 46.5186 10.3438C46.5049 10.3893 46.4935 10.4395 46.4844 10.4941C46.4798 10.5488 46.4821 10.6149 46.4912 10.6924C46.4502 10.7152 46.4206 10.7471 46.4023 10.7881C46.3841 10.8245 46.3682 10.8656 46.3545 10.9111C46.3454 10.9521 46.334 10.9954 46.3203 11.041C46.3112 11.0866 46.293 11.1253 46.2656 11.1572C46.1654 11.1253 46.0651 11.1117 45.9648 11.1162C45.8646 11.1208 45.7643 11.123 45.6641 11.123C45.5592 11.123 45.4795 11.1139 45.4248 11.0957C45.3701 11.082 45.304 11.041 45.2266 10.9727C45.1719 10.918 45.1172 10.8952 45.0625 10.9043C45.0124 10.9134 44.9645 10.9157 44.9189 10.9111C44.8779 10.9066 44.8438 10.877 44.8164 10.8223C44.7936 10.763 44.7822 10.6445 44.7822 10.4668C44.7822 10.4395 44.7799 10.4098 44.7754 10.3779C44.7708 10.346 44.7549 10.3164 44.7275 10.2891C44.609 10.3164 44.4997 10.3665 44.3994 10.4395C44.2992 10.5078 44.2035 10.5807 44.1123 10.6582C44.0212 10.7311 43.93 10.7949 43.8389 10.8496C43.7477 10.9043 43.652 10.9271 43.5518 10.918C43.5016 10.9681 43.4538 11.0182 43.4082 11.0684C43.3626 11.1185 43.3079 11.1618 43.2441 11.1982C43.2122 11.2119 43.1576 11.2279 43.0801 11.2461C43.0072 11.2643 42.9297 11.2803 42.8477 11.2939C42.7656 11.3076 42.6859 11.319 42.6084 11.3281C42.5309 11.3418 42.4762 11.3486 42.4443 11.3486C42.3486 11.3486 42.237 11.3167 42.1094 11.2529C41.9818 11.1937 41.8542 11.1299 41.7266 11.0615C41.6035 10.9932 41.4873 10.9339 41.3779 10.8838C41.2686 10.8291 41.1797 10.8109 41.1113 10.8291C41.0612 10.7881 41.0247 10.738 41.002 10.6787C40.9792 10.6149 40.9427 10.5579 40.8926 10.5078C40.8333 10.4577 40.7695 10.4167 40.7012 10.3848C40.6328 10.3529 40.5736 10.305 40.5234 10.2412C40.4915 10.1956 40.4665 10.1478 40.4482 10.0977C40.4346 10.043 40.4186 9.98828 40.4004 9.93359C40.3867 9.87435 40.3685 9.81738 40.3457 9.7627C40.3275 9.70801 40.2979 9.65788 40.2568 9.6123C40.2751 9.53483 40.2865 9.43913 40.291 9.3252C40.2956 9.21126 40.3024 9.09733 40.3115 8.9834C40.3252 8.86491 40.3457 8.75553 40.373 8.65527C40.4049 8.55501 40.4551 8.4821 40.5234 8.43652V8.38184C40.5234 8.24056 40.5462 8.12663 40.5918 8.04004C40.6374 7.94889 40.6943 7.86914 40.7627 7.80078C40.8311 7.72786 40.9062 7.65951 40.9883 7.5957C41.0703 7.5319 41.1455 7.45443 41.2139 7.36328C41.2549 7.33138 41.2982 7.31999 41.3438 7.3291C41.3893 7.33366 41.4349 7.32454 41.4805 7.30176L41.5215 7.21973C41.5443 7.21061 41.5648 7.20833 41.583 7.21289C41.6012 7.21745 41.6172 7.21973 41.6309 7.21973C41.6536 7.21973 41.6764 7.21061 41.6992 7.19238C41.722 7.17415 41.7448 7.15592 41.7676 7.1377C41.7904 7.11491 41.8132 7.0944 41.8359 7.07617C41.8633 7.05794 41.8929 7.04883 41.9248 7.04883C41.9385 7.04883 41.9544 7.05339 41.9727 7.0625C41.9909 7.06706 42.0068 7.07389 42.0205 7.08301C42.0524 7.03288 42.0889 6.98958 42.1299 6.95312C42.1755 6.91211 42.221 6.87337 42.2666 6.83691C42.3122 6.80046 42.3555 6.764 42.3965 6.72754C42.4421 6.68652 42.4808 6.64095 42.5127 6.59082C42.5309 6.59993 42.5583 6.60449 42.5947 6.60449C42.6357 6.60449 42.6676 6.59538 42.6904 6.57715C42.7132 6.55436 42.736 6.53158 42.7588 6.50879C42.7861 6.48145 42.8158 6.45866 42.8477 6.44043C42.8796 6.41764 42.9274 6.40625 42.9912 6.40625C43.0049 6.40625 43.0322 6.39714 43.0732 6.37891C43.1143 6.36068 43.1576 6.34017 43.2031 6.31738C43.2487 6.29004 43.292 6.26497 43.333 6.24219C43.374 6.21484 43.4036 6.19434 43.4219 6.18066L43.4971 6.16699C43.5381 6.16699 43.5768 6.17611 43.6133 6.19434C43.6497 6.20801 43.6885 6.2194 43.7295 6.22852C43.7887 6.16927 43.848 6.1123 43.9072 6.05762C43.9665 6.00293 44.0143 5.93685 44.0508 5.85938C44.11 5.84115 44.1784 5.80697 44.2559 5.75684C44.3333 5.70671 44.4062 5.64974 44.4746 5.58594C44.5475 5.52214 44.6068 5.45378 44.6523 5.38086C44.7025 5.30339 44.7275 5.23047 44.7275 5.16211C44.7275 5.08919 44.707 5.01855 44.666 4.9502C44.6296 4.88184 44.5863 4.81576 44.5361 4.75195C44.486 4.68359 44.4359 4.61523 44.3857 4.54688C44.3356 4.47852 44.2992 4.40788 44.2764 4.33496H44.249C44.1943 4.33496 44.1442 4.3099 44.0986 4.25977C44.0576 4.20508 44.0098 4.1709 43.9551 4.15723C43.9095 4.139 43.8617 4.12988 43.8115 4.12988C43.7614 4.12988 43.7113 4.12988 43.6611 4.12988C43.611 4.12988 43.5609 4.12533 43.5107 4.11621C43.4652 4.1071 43.4219 4.08659 43.3809 4.05469C43.2897 4.07292 43.2168 4.1071 43.1621 4.15723C43.1074 4.2028 43.0527 4.25065 42.998 4.30078C42.9434 4.35091 42.8796 4.39421 42.8066 4.43066C42.7337 4.46257 42.6357 4.47396 42.5127 4.46484C42.4307 4.63346 42.3555 4.80892 42.2871 4.99121C42.2233 5.1735 42.1344 5.34212 42.0205 5.49707C41.9932 5.59733 41.9658 5.69759 41.9385 5.79785C41.9157 5.89355 41.8701 5.97559 41.8018 6.04395C41.7106 6.07129 41.6172 6.08496 41.5215 6.08496C41.4212 6.08496 41.3096 6.06673 41.1865 6.03027C41.068 5.98926 40.9564 5.93457 40.8516 5.86621C40.7467 5.79785 40.6579 5.7181 40.585 5.62695C40.5166 5.53125 40.4824 5.42871 40.4824 5.31934C40.4824 5.20085 40.5052 5.08464 40.5508 4.9707C40.6009 4.85221 40.626 4.72917 40.626 4.60156C40.6898 4.57878 40.7399 4.54232 40.7764 4.49219C40.8128 4.44206 40.8447 4.38965 40.8721 4.33496C40.904 4.27572 40.9359 4.22103 40.9678 4.1709C41.0042 4.12077 41.0521 4.08203 41.1113 4.05469V4C41.1113 3.95898 41.1227 3.92936 41.1455 3.91113C41.1683 3.88835 41.1729 3.84733 41.1592 3.78809C41.3688 3.66504 41.5352 3.4987 41.6582 3.28906C41.7357 3.2526 41.8177 3.22298 41.9043 3.2002C41.9909 3.17741 42.0729 3.14551 42.1504 3.10449C42.2188 3.07715 42.2826 3.03841 42.3418 2.98828C42.4056 2.93815 42.4762 2.90169 42.5537 2.87891C42.6676 2.85612 42.7793 2.85384 42.8887 2.87207C43.0026 2.88574 43.112 2.89258 43.2168 2.89258C43.3079 2.89258 43.3854 2.87435 43.4492 2.83789C43.5176 2.80143 43.5973 2.7832 43.6885 2.7832C43.7796 2.7832 43.8708 2.79004 43.9619 2.80371C44.0531 2.81283 44.1442 2.82422 44.2354 2.83789C44.2764 2.84701 44.3128 2.86296 44.3447 2.88574C44.3812 2.90397 44.4199 2.91992 44.4609 2.93359C44.6022 2.96094 44.7048 2.97689 44.7686 2.98145C44.8324 2.98145 44.887 2.99056 44.9326 3.00879C44.9782 3.02702 45.026 3.06348 45.0762 3.11816C45.1263 3.16829 45.2061 3.25716 45.3154 3.38477H45.3428C45.402 3.38477 45.4635 3.40755 45.5273 3.45312C45.5911 3.49414 45.6504 3.54655 45.7051 3.61035C45.7643 3.6696 45.8145 3.7334 45.8555 3.80176C45.8965 3.86556 45.9261 3.92253 45.9443 3.97266C45.9717 4.04102 45.9876 4.11621 45.9922 4.19824C45.9967 4.27572 46.0127 4.34863 46.04 4.41699C46.0674 4.48079 46.1016 4.54004 46.1426 4.59473C46.1836 4.64941 46.2223 4.7041 46.2588 4.75879C46.2998 4.81348 46.334 4.87044 46.3613 4.92969C46.3932 4.98893 46.4092 5.05273 46.4092 5.12109C46.4092 5.21224 46.3978 5.30111 46.375 5.3877C46.3568 5.46973 46.3477 5.55404 46.3477 5.64062C46.3477 5.7181 46.3636 5.79329 46.3955 5.86621C46.432 5.93457 46.4502 6.00749 46.4502 6.08496C46.4502 6.18522 46.432 6.28092 46.3955 6.37207C46.3636 6.46322 46.3477 6.55892 46.3477 6.65918C46.3477 6.79134 46.3636 6.9235 46.3955 7.05566C46.432 7.18783 46.4775 7.31771 46.5322 7.44531C46.5049 7.52734 46.4912 7.61621 46.4912 7.71191C46.4912 7.84408 46.5049 7.97396 46.5322 8.10156C46.5596 8.22461 46.5732 8.34993 46.5732 8.47754C46.5732 8.54134 46.5664 8.60059 46.5527 8.65527C46.5391 8.70996 46.5231 8.76465 46.5049 8.81934C46.4867 8.87402 46.4707 8.92871 46.457 8.9834C46.4434 9.03809 46.4365 9.09961 46.4365 9.16797C46.4365 9.3138 46.4548 9.45736 46.4912 9.59863C46.5277 9.73991 46.5732 9.88118 46.6279 10.0225ZM45.0078 7.79395C45.0078 7.70736 45.001 7.62533 44.9873 7.54785C44.9736 7.47038 44.9668 7.38835 44.9668 7.30176C44.9668 7.20605 44.9508 7.13542 44.9189 7.08984C44.887 7.04427 44.8232 7.02604 44.7275 7.03516H44.6387C44.5749 7.0944 44.5156 7.1582 44.4609 7.22656C44.4108 7.29492 44.3493 7.35417 44.2764 7.4043C44.2126 7.44531 44.1419 7.47493 44.0645 7.49316C43.987 7.51139 43.9232 7.55469 43.873 7.62305H43.8457C43.7819 7.62305 43.7272 7.63444 43.6816 7.65723C43.6361 7.67546 43.5905 7.69596 43.5449 7.71875C43.4993 7.73698 43.4492 7.75293 43.3945 7.7666C43.3444 7.78027 43.2806 7.78027 43.2031 7.7666C43.1302 7.88053 43.0596 7.99902 42.9912 8.12207C42.9229 8.24056 42.8249 8.33171 42.6973 8.39551L42.5811 8.38184C42.499 8.37728 42.4147 8.38639 42.3281 8.40918C42.2461 8.43197 42.1709 8.46615 42.1025 8.51172C42.0387 8.55729 41.9863 8.61426 41.9453 8.68262C41.9043 8.75098 41.8838 8.83301 41.8838 8.92871C41.8838 9.05176 41.902 9.14518 41.9385 9.20898C41.9749 9.26823 42.0205 9.31836 42.0752 9.35938C42.1299 9.39583 42.1891 9.43001 42.2529 9.46191C42.3167 9.49382 42.376 9.54395 42.4307 9.6123C42.4808 9.62142 42.5332 9.6237 42.5879 9.61914C42.6426 9.61458 42.6973 9.6123 42.752 9.6123C42.7884 9.6123 42.8249 9.61458 42.8613 9.61914C42.9023 9.61914 42.9365 9.63053 42.9639 9.65332C43.0186 9.60319 43.0641 9.56673 43.1006 9.54395C43.137 9.5166 43.1986 9.50749 43.2852 9.5166C43.39 9.38444 43.5199 9.2819 43.6748 9.20898C43.8298 9.13607 43.9847 9.07454 44.1396 9.02441C44.1488 8.97428 44.1693 8.93099 44.2012 8.89453C44.2376 8.85807 44.2764 8.82617 44.3174 8.79883C44.3584 8.76693 44.3994 8.73958 44.4404 8.7168C44.4814 8.68945 44.5156 8.65755 44.543 8.62109C44.5703 8.59375 44.609 8.54134 44.6592 8.46387C44.7139 8.38639 44.7663 8.30436 44.8164 8.21777C44.8711 8.12663 44.9167 8.04232 44.9531 7.96484C44.9896 7.88737 45.0078 7.8304 45.0078 7.79395ZM55.3123 7.08301C55.2895 7.18327 55.2553 7.28125 55.2098 7.37695C55.1688 7.47266 55.1255 7.56836 55.0799 7.66406C55.0389 7.75977 55.0001 7.85775 54.9637 7.95801C54.9318 8.05371 54.9135 8.15397 54.909 8.25879C54.8999 8.31803 54.8862 8.35677 54.868 8.375C54.8497 8.38867 54.8292 8.40462 54.8064 8.42285C54.7837 8.44108 54.7632 8.46842 54.7449 8.50488C54.7313 8.54134 54.7244 8.60742 54.7244 8.70312C54.7244 8.76237 54.7176 8.84668 54.7039 8.95605C54.6902 9.06543 54.6697 9.18848 54.6424 9.3252C54.615 9.45736 54.5831 9.59635 54.5467 9.74219C54.5148 9.88346 54.4783 10.0179 54.4373 10.1455C54.3963 10.2686 54.353 10.3757 54.3074 10.4668C54.2664 10.5579 54.2231 10.6195 54.1775 10.6514C54.1639 10.6878 54.1548 10.7266 54.1502 10.7676C54.1502 10.804 54.1456 10.8405 54.1365 10.877C54.1274 10.9134 54.1115 10.9453 54.0887 10.9727C54.0704 11 54.0545 11.0273 54.0408 11.0547C53.9998 11.1732 53.9725 11.2575 53.9588 11.3076C53.9497 11.3623 53.936 11.4033 53.9178 11.4307C53.9041 11.4626 53.8745 11.4945 53.8289 11.5264C53.7833 11.5583 53.7036 11.6107 53.5896 11.6836C53.5486 11.7201 53.4939 11.7588 53.4256 11.7998C53.3572 11.8454 53.2957 11.8682 53.241 11.8682C53.159 11.8682 53.0815 11.8522 53.0086 11.8203C52.9357 11.793 52.865 11.7565 52.7967 11.7109C52.7283 11.6699 52.6577 11.6266 52.5848 11.5811C52.5164 11.5355 52.4458 11.4967 52.3729 11.4648V11.4307C52.3729 11.3942 52.3592 11.3555 52.3318 11.3145C52.3045 11.2734 52.2908 11.2347 52.2908 11.1982L52.3318 11.1572C52.3227 11.098 52.3113 11.041 52.2977 10.9863C52.284 10.9316 52.2771 10.8747 52.2771 10.8154C52.2771 10.7744 52.3022 10.6924 52.3523 10.5693C52.4025 10.4417 52.4617 10.3073 52.5301 10.166C52.5984 10.0247 52.6645 9.89258 52.7283 9.76953C52.7967 9.64193 52.8468 9.55762 52.8787 9.5166C52.9197 9.46191 52.9676 9.41406 53.0223 9.37305C53.077 9.32747 53.118 9.27279 53.1453 9.20898C53.1818 9.11784 53.1977 9.01986 53.1932 8.91504C53.1932 8.81022 53.2046 8.71224 53.2273 8.62109C53.241 8.57096 53.2638 8.52767 53.2957 8.49121C53.3276 8.4502 53.3527 8.40462 53.3709 8.35449C53.3982 8.25423 53.4051 8.15397 53.3914 8.05371C53.3823 7.95345 53.3891 7.85775 53.4119 7.7666C53.4256 7.69368 53.4507 7.61849 53.4871 7.54102C53.5281 7.46354 53.5486 7.38835 53.5486 7.31543C53.5486 7.25163 53.5418 7.19238 53.5281 7.1377C53.5145 7.07845 53.5076 7.01693 53.5076 6.95312C53.5076 6.83919 53.5099 6.72982 53.5145 6.625C53.519 6.52018 53.5213 6.41536 53.5213 6.31055C53.5213 6.10547 53.4939 5.91862 53.4393 5.75C53.3891 5.57682 53.2775 5.43783 53.1043 5.33301L53.0428 5.23047C53.0291 5.22135 53.0154 5.22135 53.0018 5.23047C52.9881 5.23958 52.9699 5.24414 52.9471 5.24414C52.9197 5.24414 52.8947 5.23047 52.8719 5.20312C52.8536 5.17122 52.824 5.13932 52.783 5.10742C52.7466 5.07096 52.6941 5.03906 52.6258 5.01172C52.562 4.97982 52.4731 4.96387 52.3592 4.96387C52.2088 4.96387 52.0789 4.99577 51.9695 5.05957C51.8647 5.11882 51.7667 5.19401 51.6756 5.28516C51.5844 5.37174 51.4956 5.46517 51.409 5.56543C51.3224 5.66113 51.2244 5.74544 51.115 5.81836C51.1196 5.88672 51.1105 5.94368 51.0877 5.98926C51.0649 6.03483 51.0353 6.07812 50.9988 6.11914C50.9669 6.1556 50.9305 6.19434 50.8895 6.23535C50.853 6.27181 50.8211 6.3151 50.7938 6.36523C50.7801 6.39258 50.7732 6.42448 50.7732 6.46094C50.7732 6.49284 50.7664 6.52246 50.7527 6.5498C50.7163 6.60449 50.6684 6.65234 50.6092 6.69336C50.5545 6.72982 50.5135 6.78451 50.4861 6.85742C50.4542 6.92578 50.4383 7.00098 50.4383 7.08301C50.4383 7.16048 50.4337 7.2334 50.4246 7.30176C50.4246 7.33822 50.4178 7.36784 50.4041 7.39062C50.395 7.41341 50.3836 7.4362 50.3699 7.45898C50.3563 7.47721 50.3426 7.49544 50.3289 7.51367C50.3152 7.5319 50.3061 7.55469 50.3016 7.58203C50.2879 7.68685 50.2811 7.79167 50.2811 7.89648C50.2811 8.0013 50.256 8.10612 50.2059 8.21094C50.2423 8.31576 50.2811 8.42057 50.3221 8.52539C50.3631 8.62565 50.3836 8.73275 50.3836 8.84668C50.3836 8.97884 50.3631 9.10872 50.3221 9.23633C50.2811 9.36393 50.2605 9.49382 50.2605 9.62598C50.2605 9.73991 50.2879 9.83789 50.3426 9.91992C50.2788 10.0977 50.2309 10.2799 50.199 10.4668C50.1671 10.6491 50.1261 10.8314 50.076 11.0137C50.0213 11.0638 49.9575 11.1003 49.8846 11.123C49.8117 11.1458 49.741 11.1572 49.6727 11.1572C49.5405 11.1572 49.4106 11.1413 49.283 11.1094C49.1554 11.082 49.0278 11.0638 48.9002 11.0547C48.8865 11 48.8592 10.9544 48.8182 10.918C48.7817 10.877 48.7407 10.8382 48.6951 10.8018C48.6541 10.7653 48.6176 10.7243 48.5857 10.6787C48.5538 10.6286 48.5379 10.5671 48.5379 10.4941C48.5379 10.4303 48.5561 10.3597 48.5926 10.2822C48.6336 10.2048 48.6609 10.1318 48.6746 10.0635C48.6837 9.99967 48.6837 9.93359 48.6746 9.86523C48.6655 9.79688 48.6609 9.72624 48.6609 9.65332C48.6609 9.53027 48.6814 9.40495 48.7225 9.27734C48.768 9.14974 48.7954 9.01986 48.8045 8.8877C48.8091 8.81934 48.8113 8.7487 48.8113 8.67578C48.8113 8.59831 48.8136 8.52311 48.8182 8.4502C48.8227 8.37272 48.8318 8.29753 48.8455 8.22461C48.8637 8.15169 48.8956 8.08789 48.9412 8.0332C48.9275 7.98307 48.9139 7.93294 48.9002 7.88281C48.8911 7.82812 48.8865 7.77572 48.8865 7.72559C48.8865 7.67546 48.8956 7.62988 48.9139 7.58887C48.9321 7.54329 48.9412 7.5 48.9412 7.45898C48.9412 7.41797 48.9275 7.38607 48.9002 7.36328C48.8729 7.33594 48.8592 7.30176 48.8592 7.26074L48.9002 7.21973C48.8911 7.16504 48.882 7.11263 48.8729 7.0625C48.8637 7.00781 48.8592 6.95312 48.8592 6.89844C48.8592 6.77083 48.8797 6.65007 48.9207 6.53613C48.9663 6.41764 48.9891 6.2946 48.9891 6.16699C48.9891 6.06217 48.9799 5.96191 48.9617 5.86621C48.948 5.76595 48.9412 5.66569 48.9412 5.56543C48.9412 5.49707 48.948 5.43099 48.9617 5.36719C48.9799 5.29883 48.9959 5.23275 49.0096 5.16895C49.0278 5.10514 49.0438 5.04134 49.0574 4.97754C49.0757 4.90918 49.0848 4.84082 49.0848 4.77246C49.0848 4.71777 49.0757 4.66536 49.0574 4.61523C49.0438 4.5651 49.0255 4.51497 49.0027 4.46484C48.9845 4.41471 48.9663 4.36458 48.948 4.31445C48.9344 4.26432 48.9275 4.21191 48.9275 4.15723C48.9275 3.93848 48.9822 3.73112 49.0916 3.53516C49.201 3.33919 49.3331 3.16829 49.4881 3.02246C49.4972 3.02246 49.5063 3.02474 49.5154 3.0293C49.5245 3.03385 49.5337 3.03613 49.5428 3.03613C49.5929 3.03613 49.6362 3.02702 49.6727 3.00879C49.7137 2.986 49.7547 2.97461 49.7957 2.97461C49.9142 2.97461 50.0167 3.00423 50.1033 3.06348C50.1945 3.11816 50.2879 3.16374 50.3836 3.2002C50.4474 3.37337 50.4998 3.54883 50.5408 3.72656C50.5864 3.9043 50.6092 4.08887 50.6092 4.28027C50.6593 4.2666 50.7049 4.24837 50.7459 4.22559C50.7915 4.19824 50.8348 4.1709 50.8758 4.14355C50.9214 4.11621 50.9646 4.09115 51.0057 4.06836C51.0512 4.04102 51.1014 4.02279 51.1561 4.01367C51.2016 3.98177 51.2404 3.94531 51.2723 3.9043C51.3042 3.85872 51.3338 3.81315 51.3611 3.76758C51.393 3.72201 51.4227 3.67871 51.45 3.6377C51.4819 3.59212 51.5184 3.55339 51.5594 3.52148C51.6141 3.48047 51.7007 3.43717 51.8191 3.3916C51.9422 3.34603 52.0698 3.30501 52.202 3.26855C52.3387 3.22754 52.4708 3.19564 52.5984 3.17285C52.726 3.14551 52.824 3.13184 52.8924 3.13184C52.9744 3.13184 53.0473 3.14095 53.1111 3.15918C53.1795 3.17285 53.2433 3.19336 53.3025 3.2207C53.3663 3.24349 53.4279 3.27083 53.4871 3.30273C53.5509 3.33008 53.6193 3.35742 53.6922 3.38477C53.7195 3.39388 53.7469 3.40072 53.7742 3.40527C53.8016 3.40527 53.8335 3.41211 53.8699 3.42578C53.9246 3.44857 53.9725 3.48047 54.0135 3.52148C54.0591 3.55794 54.1046 3.59668 54.1502 3.6377C54.1958 3.67871 54.2413 3.71745 54.2869 3.75391C54.337 3.78581 54.3895 3.81087 54.4441 3.8291C54.4715 3.90658 54.5079 3.97493 54.5535 4.03418C54.6036 4.09342 54.6606 4.14811 54.7244 4.19824C54.7381 4.29395 54.7632 4.38509 54.7996 4.47168C54.8406 4.55371 54.8794 4.63802 54.9158 4.72461C54.9568 4.80664 54.9933 4.89095 55.0252 4.97754C55.0571 5.05957 55.073 5.14844 55.073 5.24414C55.073 5.30339 55.0662 5.35579 55.0525 5.40137C55.0389 5.44238 55.032 5.48796 55.032 5.53809C55.032 5.5791 55.0389 5.611 55.0525 5.63379C55.0708 5.65658 55.0867 5.67936 55.1004 5.70215C55.1186 5.72038 55.1346 5.74316 55.1482 5.77051C55.1665 5.79329 55.1756 5.82292 55.1756 5.85938C55.1756 5.96419 55.171 6.06673 55.1619 6.16699C55.1528 6.26725 55.1482 6.36979 55.1482 6.47461C55.1482 6.57943 55.1596 6.68424 55.1824 6.78906C55.2052 6.89388 55.2485 6.99186 55.3123 7.08301ZM62.773 3.77441C62.773 3.87467 62.7434 3.96354 62.6842 4.04102C62.6295 4.11393 62.5839 4.19368 62.5475 4.28027C62.4654 4.29395 62.3925 4.31901 62.3287 4.35547C62.2695 4.38737 62.2079 4.42383 62.1441 4.46484C62.0849 4.5013 62.0188 4.5332 61.9459 4.56055C61.873 4.58789 61.7887 4.60156 61.693 4.60156C61.6018 4.60156 61.513 4.59245 61.4264 4.57422C61.3443 4.55599 61.26 4.54688 61.1734 4.54688C61.0595 4.54688 60.9501 4.56966 60.8453 4.61523C60.7451 4.66081 60.6357 4.68359 60.5172 4.68359C60.4033 4.68359 60.287 4.6722 60.1686 4.64941C60.0546 4.62663 59.943 4.61523 59.8336 4.61523C59.7971 4.61523 59.763 4.61751 59.7311 4.62207C59.7037 4.62663 59.6764 4.62891 59.649 4.62891C59.608 4.71549 59.5898 4.80436 59.5943 4.89551C59.6035 4.98665 59.608 5.07552 59.608 5.16211C59.608 5.31706 59.5921 5.47201 59.5602 5.62695C59.5328 5.7819 59.5191 5.93913 59.5191 6.09863C59.5191 6.22624 59.5328 6.35156 59.5602 6.47461C59.5921 6.5931 59.608 6.71615 59.608 6.84375C59.608 6.91211 59.5989 6.97591 59.5807 7.03516C59.5624 7.08984 59.5396 7.14453 59.5123 7.19922C59.4895 7.25391 59.469 7.30859 59.4508 7.36328C59.4326 7.41797 59.4234 7.47721 59.4234 7.54102C59.4234 7.58203 59.4303 7.62533 59.4439 7.6709C59.4576 7.71191 59.4645 7.75293 59.4645 7.79395L59.4234 7.83496C59.4234 7.85319 59.428 7.86914 59.4371 7.88281C59.4462 7.89193 59.4576 7.9056 59.4713 7.92383C59.485 7.9375 59.4964 7.95573 59.5055 7.97852C59.5146 8.0013 59.5191 8.0332 59.5191 8.07422C59.5191 8.19271 59.51 8.3112 59.4918 8.42969C59.4736 8.54818 59.4645 8.66667 59.4645 8.78516C59.4645 8.80794 59.469 8.85807 59.4781 8.93555C59.4872 9.00846 59.4986 9.09505 59.5123 9.19531C59.5305 9.29557 59.5465 9.40039 59.5602 9.50977C59.5784 9.61914 59.5966 9.72168 59.6148 9.81738C59.6331 9.91309 59.649 9.99512 59.6627 10.0635C59.6809 10.1318 59.6946 10.1729 59.7037 10.1865C59.7402 10.2367 59.7835 10.2777 59.8336 10.3096C59.8837 10.3369 59.9293 10.3711 59.9703 10.4121C59.9885 10.4212 60.0159 10.4258 60.0523 10.4258C60.1025 10.4258 60.148 10.4189 60.1891 10.4053C60.2346 10.3916 60.2825 10.3802 60.3326 10.3711C60.3827 10.3574 60.4329 10.3506 60.483 10.3506C60.5377 10.3506 60.5901 10.3438 60.6402 10.3301C60.6949 10.3073 60.7428 10.2777 60.7838 10.2412C60.8248 10.2048 60.8635 10.1706 60.9 10.1387C60.941 10.1022 60.9843 10.0726 61.0299 10.0498C61.0755 10.0225 61.1279 10.0088 61.1871 10.0088C61.2646 9.86751 61.3489 9.73307 61.44 9.60547C61.5357 9.47786 61.6155 9.34115 61.6793 9.19531C61.6975 9.20443 61.7158 9.20898 61.734 9.20898C61.7704 9.20898 61.8001 9.19987 61.8229 9.18164C61.8502 9.16341 61.8821 9.1543 61.9186 9.1543C61.9231 9.1543 61.9459 9.16113 61.9869 9.1748C62.0279 9.18392 62.0712 9.19759 62.1168 9.21582C62.1624 9.22949 62.2057 9.24544 62.2467 9.26367C62.2877 9.27734 62.3128 9.28646 62.3219 9.29102C62.3492 9.3138 62.3697 9.35482 62.3834 9.41406C62.4016 9.47331 62.4221 9.52116 62.4449 9.55762C62.4677 9.59408 62.4882 9.62142 62.5064 9.63965C62.5247 9.65788 62.5383 9.67839 62.5475 9.70117C62.5611 9.7194 62.5702 9.74219 62.5748 9.76953C62.5839 9.79688 62.5885 9.83789 62.5885 9.89258C62.5885 10.0339 62.5589 10.1683 62.4996 10.2959C62.4449 10.4189 62.3994 10.5465 62.3629 10.6787C62.3036 10.7015 62.2558 10.7357 62.2193 10.7812C62.1829 10.8223 62.1464 10.8656 62.11 10.9111C62.0781 10.9567 62.0393 10.9977 61.9938 11.0342C61.9527 11.0706 61.8935 11.0911 61.816 11.0957C61.7796 11.2005 61.7203 11.2894 61.6383 11.3623C61.5563 11.4352 61.4674 11.4967 61.3717 11.5469C61.3443 11.5742 61.3056 11.5879 61.2555 11.5879C61.2281 11.5879 61.1962 11.5811 61.1598 11.5674C61.1279 11.5537 61.1051 11.5332 61.0914 11.5059C61.0322 11.5286 60.9889 11.5514 60.9615 11.5742C60.9387 11.6016 60.9182 11.6289 60.9 11.6562C60.8818 11.6882 60.8613 11.7178 60.8385 11.7451C60.8202 11.7725 60.7883 11.7975 60.7428 11.8203C60.7018 11.8431 60.6402 11.8613 60.5582 11.875C60.4807 11.8887 60.3736 11.8955 60.2369 11.8955C60.1731 11.8955 60.1093 11.8978 60.0455 11.9023C59.9863 11.9115 59.9293 11.9274 59.8746 11.9502C59.7698 11.8773 59.6399 11.8317 59.485 11.8135C59.33 11.7998 59.1887 11.7861 59.0611 11.7725C59.0702 11.7269 59.0566 11.7041 59.0201 11.7041C58.9837 11.7041 58.954 11.6927 58.9313 11.6699C58.8811 11.6426 58.8401 11.6016 58.8082 11.5469C58.7763 11.4967 58.7239 11.4648 58.651 11.4512C58.6464 11.3965 58.6282 11.3441 58.5963 11.2939C58.5644 11.2484 58.5279 11.2028 58.4869 11.1572C58.4505 11.1117 58.414 11.0638 58.3775 11.0137C58.3411 10.9681 58.316 10.918 58.3023 10.8633C58.2613 10.7311 58.2112 10.599 58.152 10.4668C58.0973 10.3301 58.054 10.1911 58.0221 10.0498C58.0084 9.986 57.9947 9.90397 57.9811 9.80371C57.9719 9.69889 57.9628 9.58952 57.9537 9.47559C57.9492 9.36165 57.9446 9.25228 57.94 9.14746C57.94 9.04264 57.94 8.95605 57.94 8.8877C57.94 8.77376 57.9537 8.66667 57.9811 8.56641C58.0084 8.46159 58.0221 8.35449 58.0221 8.24512C58.0221 8.09928 58.0107 7.95573 57.9879 7.81445C57.9651 7.67318 57.9492 7.5319 57.94 7.39062C57.9309 7.31315 57.9309 7.23568 57.94 7.1582C57.9492 7.08073 57.9537 7.00326 57.9537 6.92578C57.9537 6.80729 57.9355 6.70475 57.899 6.61816C57.9264 6.59993 57.9492 6.57259 57.9674 6.53613C57.9902 6.49967 58.0084 6.46094 58.0221 6.41992C58.0357 6.37435 58.0449 6.32878 58.0494 6.2832C58.0585 6.23763 58.0631 6.19889 58.0631 6.16699L58.0221 6.12598C58.0312 6.05762 58.038 5.98926 58.0426 5.9209C58.0471 5.84798 58.0494 5.77734 58.0494 5.70898C58.0494 5.63607 58.0403 5.56771 58.0221 5.50391C58.0084 5.43555 57.9811 5.37402 57.94 5.31934C57.9309 5.24642 57.9378 5.17806 57.9605 5.11426C57.9833 5.05046 57.9947 4.98665 57.9947 4.92285L57.9811 4.81348C57.8762 4.7998 57.7669 4.79753 57.6529 4.80664C57.539 4.8112 57.4296 4.81348 57.3248 4.81348C57.2519 4.81348 57.179 4.81348 57.1061 4.81348C57.0331 4.80892 56.9648 4.79525 56.901 4.77246C56.8326 4.6722 56.762 4.57422 56.6891 4.47852C56.6161 4.37826 56.5797 4.26432 56.5797 4.13672C56.5797 3.99089 56.6161 3.86328 56.6891 3.75391C56.762 3.64453 56.8326 3.5306 56.901 3.41211C56.9557 3.40755 57.0104 3.39388 57.065 3.37109C57.1197 3.34831 57.1721 3.32324 57.2223 3.2959C57.277 3.26855 57.3294 3.24349 57.3795 3.2207C57.4296 3.19792 57.482 3.18652 57.5367 3.18652C57.6324 3.18652 57.7236 3.21159 57.8102 3.26172C57.8967 3.30729 57.9924 3.33008 58.0973 3.33008H58.1656C58.1884 3.27995 58.2089 3.22754 58.2271 3.17285C58.2499 3.11816 58.2568 3.06348 58.2477 3.00879C58.2249 2.99056 58.2044 2.97233 58.1861 2.9541C58.1725 2.93132 58.1656 2.90625 58.1656 2.87891C58.1656 2.85612 58.1725 2.83789 58.1861 2.82422C58.1998 2.80599 58.2066 2.77865 58.2066 2.74219C58.2066 2.63737 58.193 2.53255 58.1656 2.42773C58.1383 2.31836 58.1246 2.20671 58.1246 2.09277C58.1246 2.00163 58.1383 1.88997 58.1656 1.75781C58.1975 1.62565 58.2363 1.49349 58.2818 1.36133C58.332 1.22461 58.3889 1.09701 58.4527 0.978516C58.5165 0.860026 58.5826 0.771159 58.651 0.711914C58.7102 0.702799 58.7672 0.698242 58.8219 0.698242C58.8766 0.698242 58.9335 0.698242 58.9928 0.698242C59.1295 0.698242 59.2457 0.727865 59.3414 0.787109C59.4371 0.846354 59.5146 0.923828 59.5738 1.01953C59.6331 1.11523 59.6764 1.22461 59.7037 1.34766C59.7311 1.46615 59.7447 1.58464 59.7447 1.70312C59.7447 1.7806 59.7242 1.8763 59.6832 1.99023C59.6422 2.10417 59.6217 2.22721 59.6217 2.35938C59.6217 2.46419 59.6262 2.57357 59.6354 2.6875C59.6445 2.79688 59.649 2.90397 59.649 3.00879C59.6718 3.00879 59.6946 3.00651 59.7174 3.00195C59.7402 2.9974 59.763 2.99512 59.7857 2.99512C59.8769 2.99512 59.9635 3.01107 60.0455 3.04297C60.1275 3.07487 60.2141 3.09082 60.3053 3.09082C60.3691 3.09082 60.4215 3.07715 60.4625 3.0498C60.499 3.0498 60.5286 3.05892 60.5514 3.07715C60.5742 3.09082 60.5924 3.10905 60.6061 3.13184C60.6243 3.15007 60.6425 3.17057 60.6607 3.19336C60.6835 3.21159 60.7109 3.22298 60.7428 3.22754C60.8111 3.2002 60.8749 3.16374 60.9342 3.11816C60.998 3.07259 61.0686 3.03613 61.1461 3.00879H62.3219C62.3583 3.03613 62.3902 3.06576 62.4176 3.09766C62.4449 3.12956 62.4882 3.14551 62.5475 3.14551C62.552 3.2002 62.5657 3.2526 62.5885 3.30273C62.6158 3.35286 62.6432 3.40299 62.6705 3.45312C62.6979 3.50326 62.7206 3.55566 62.7389 3.61035C62.7617 3.66048 62.773 3.71517 62.773 3.77441ZM70.1518 8.78516C70.1518 8.85807 70.1609 8.92643 70.1791 8.99023C70.1973 9.05404 70.2064 9.1224 70.2064 9.19531C70.2064 9.25 70.1928 9.29557 70.1654 9.33203C70.1426 9.36849 70.1244 9.41634 70.1107 9.47559C70.0834 9.56673 70.0515 9.66243 70.015 9.7627C69.9786 9.8584 69.9444 9.95638 69.9125 10.0566C69.8852 10.1569 69.8624 10.2572 69.8441 10.3574C69.8305 10.4577 69.8305 10.5557 69.8441 10.6514C69.7758 10.7243 69.7165 10.8086 69.6664 10.9043C69.6208 10.9954 69.5798 11.0911 69.5434 11.1914C69.5069 11.2917 69.4727 11.3919 69.4408 11.4922C69.4089 11.597 69.3747 11.695 69.3383 11.7861C69.2016 11.859 69.0648 11.8955 68.9281 11.8955C68.8461 11.8955 68.7572 11.8704 68.6615 11.8203C68.5704 11.7747 68.4838 11.7155 68.4018 11.6426C68.3243 11.5742 68.2582 11.4967 68.2035 11.4102C68.1488 11.3236 68.1215 11.2393 68.1215 11.1572C68.1215 11.0433 68.1374 10.9316 68.1693 10.8223C68.2012 10.7129 68.2172 10.5944 68.2172 10.4668C68.2172 10.4167 68.2423 10.3665 68.2924 10.3164C68.3425 10.2617 68.3744 10.2093 68.3881 10.1592C68.3926 10.141 68.4018 10.0931 68.4154 10.0156C68.4291 9.93359 68.4405 9.84701 68.4496 9.75586C68.4633 9.66471 68.4724 9.57812 68.477 9.49609C68.4861 9.41406 68.4883 9.36393 68.4838 9.3457C68.5521 9.27734 68.6068 9.19987 68.6479 9.11328C68.6934 9.02669 68.7322 8.93783 68.7641 8.84668C68.8005 8.75098 68.8347 8.65755 68.8666 8.56641C68.8985 8.4707 68.935 8.38184 68.976 8.2998C68.9669 8.27702 68.9623 8.25195 68.9623 8.22461C68.9623 8.19727 68.9623 8.16992 68.9623 8.14258C68.9623 8.02409 68.9805 7.91016 69.017 7.80078C69.0534 7.69141 69.0717 7.57747 69.0717 7.45898C69.0717 7.38607 69.0648 7.31543 69.0512 7.24707C69.0375 7.17871 69.0307 7.10807 69.0307 7.03516C69.0307 6.93945 69.0443 6.84375 69.0717 6.74805C69.099 6.64779 69.1127 6.54753 69.1127 6.44727C69.1127 6.36523 69.1013 6.26042 69.0785 6.13281C69.0557 6.00065 69.0238 5.86621 68.9828 5.72949C68.9464 5.59277 68.9008 5.46517 68.8461 5.34668C68.7914 5.22819 68.7322 5.14388 68.6684 5.09375C68.6091 4.88867 68.4678 4.78613 68.2445 4.78613C68.1443 4.78613 68.0372 4.80664 67.9232 4.84766C67.8139 4.88867 67.7068 4.94336 67.602 5.01172C67.4971 5.07552 67.4014 5.15072 67.3148 5.2373C67.2328 5.31934 67.169 5.40592 67.1234 5.49707C67.1143 5.52441 67.1075 5.54948 67.1029 5.57227C67.1029 5.59505 67.0961 5.61784 67.0824 5.64062C67.0414 5.7181 66.9867 5.78646 66.9184 5.8457C66.8546 5.90039 66.8021 5.96647 66.7611 6.04395C66.7201 6.13509 66.6951 6.23079 66.6859 6.33105C66.6768 6.43132 66.6609 6.53158 66.6381 6.63184C66.5652 6.69564 66.5014 6.76855 66.4467 6.85059C66.392 6.93262 66.3327 7.01009 66.2689 7.08301C66.2689 7.08757 66.2576 7.1263 66.2348 7.19922C66.212 7.27214 66.1824 7.36328 66.1459 7.47266C66.114 7.58203 66.0775 7.70052 66.0365 7.82812C66.0001 7.95573 65.9636 8.0765 65.9271 8.19043C65.8952 8.2998 65.8679 8.39323 65.8451 8.4707C65.8223 8.54818 65.8109 8.58919 65.8109 8.59375C65.8109 8.67122 65.8201 8.75098 65.8383 8.83301C65.8565 8.91048 65.8656 8.98796 65.8656 9.06543C65.8656 9.15202 65.8588 9.23861 65.8451 9.3252C65.8314 9.40723 65.8246 9.48926 65.8246 9.57129C65.8246 9.77637 65.8451 9.97917 65.8861 10.1797C65.9271 10.3757 65.9477 10.5785 65.9477 10.7881C65.9477 10.9202 65.9294 11.0205 65.893 11.0889C65.8565 11.1618 65.8132 11.221 65.7631 11.2666C65.7175 11.3122 65.6719 11.3555 65.6264 11.3965C65.5854 11.4375 65.558 11.4922 65.5443 11.5605L65.5033 11.5469C65.4623 11.5423 65.419 11.5469 65.3734 11.5605C65.3279 11.5788 65.2823 11.597 65.2367 11.6152C65.1911 11.638 65.1433 11.6562 65.0932 11.6699C65.0476 11.6882 64.9975 11.6973 64.9428 11.6973C64.8471 11.6973 64.7605 11.6676 64.683 11.6084C64.6055 11.5492 64.5372 11.474 64.4779 11.3828C64.4232 11.2962 64.3799 11.2028 64.348 11.1025C64.3161 11.0023 64.3002 10.9111 64.3002 10.8291C64.3002 10.5648 64.3139 10.3005 64.3412 10.0361C64.3686 9.77181 64.3822 9.50521 64.3822 9.23633C64.3822 8.89453 64.3822 8.55273 64.3822 8.21094C64.3822 7.86458 64.3777 7.52051 64.3686 7.17871C64.3686 7.1377 64.3617 7.09896 64.348 7.0625C64.3344 7.02604 64.3275 6.98958 64.3275 6.95312C64.3275 6.91211 64.3344 6.87337 64.348 6.83691C64.3617 6.80046 64.3686 6.75944 64.3686 6.71387C64.3686 6.63639 64.3549 6.55664 64.3275 6.47461C64.3002 6.39258 64.2865 6.31055 64.2865 6.22852C64.2865 6.16471 64.2979 6.10319 64.3207 6.04395C64.3435 5.9847 64.3594 5.92318 64.3686 5.85938C64.3959 5.69531 64.4096 5.52897 64.4096 5.36035C64.4096 5.12793 64.405 4.89779 64.3959 4.66992C64.3868 4.4375 64.3822 4.20508 64.3822 3.97266C64.3822 3.91797 64.3799 3.86328 64.3754 3.80859C64.3708 3.75391 64.3549 3.7015 64.3275 3.65137C64.3412 3.58757 64.3594 3.52832 64.3822 3.47363C64.4096 3.41895 64.4232 3.35742 64.4232 3.28906C64.4232 3.18424 64.4005 3.08398 64.3549 2.98828C64.3093 2.88802 64.2865 2.78548 64.2865 2.68066C64.2865 2.52116 64.3002 2.36165 64.3275 2.20215C64.3549 2.03809 64.3686 1.8763 64.3686 1.7168C64.3686 1.58464 64.3594 1.45475 64.3412 1.32715C64.323 1.19499 64.3139 1.06283 64.3139 0.930664C64.3139 0.698242 64.3822 0.527344 64.5189 0.417969C64.6557 0.304036 64.8288 0.24707 65.0385 0.24707C65.1114 0.24707 65.182 0.233398 65.2504 0.206055C65.3233 0.178711 65.3894 0.165039 65.4486 0.165039C65.4805 0.165039 65.5079 0.176432 65.5307 0.199219C65.5534 0.217448 65.5717 0.242513 65.5854 0.274414C65.599 0.306315 65.6127 0.338216 65.6264 0.370117C65.64 0.402018 65.6583 0.427083 65.6811 0.445312L65.7699 0.486328C65.7881 0.518229 65.8087 0.597982 65.8314 0.725586C65.8588 0.848633 65.8839 0.983073 65.9066 1.12891C65.934 1.27018 65.9568 1.4069 65.975 1.53906C65.9932 1.66667 66.0023 1.7487 66.0023 1.78516C66.0023 1.85352 65.9932 1.9196 65.975 1.9834C65.9568 2.04264 65.9363 2.10189 65.9135 2.16113C65.8907 2.22038 65.8702 2.27962 65.852 2.33887C65.8337 2.39811 65.8246 2.46191 65.8246 2.53027C65.8246 2.71257 65.8383 2.89486 65.8656 3.07715C65.893 3.25488 65.9066 3.43717 65.9066 3.62402C65.9066 3.76986 65.8884 3.91797 65.852 4.06836C65.8155 4.21419 65.7973 4.36003 65.7973 4.50586C65.7973 4.60612 65.8201 4.71322 65.8656 4.82715C65.9294 4.81803 65.9796 4.79525 66.016 4.75879C66.057 4.72233 66.0912 4.68132 66.1186 4.63574C66.1459 4.58561 66.1687 4.5332 66.1869 4.47852C66.2097 4.42383 66.237 4.37598 66.2689 4.33496C66.2917 4.30762 66.3236 4.27572 66.3646 4.23926C66.4057 4.19824 66.4467 4.15951 66.4877 4.12305C66.5333 4.08659 66.5743 4.05241 66.6107 4.02051C66.6472 3.98405 66.67 3.95443 66.6791 3.93164C66.7019 3.88607 66.7201 3.84961 66.7338 3.82227C66.7475 3.79492 66.7748 3.76986 66.8158 3.74707C66.8751 3.70605 66.9343 3.67188 66.9936 3.64453C67.0574 3.61263 67.1006 3.55339 67.1234 3.4668C67.2829 3.41667 67.4447 3.36654 67.6088 3.31641C67.7729 3.26628 67.9437 3.24121 68.1215 3.24121C68.2582 3.24121 68.3949 3.264 68.5316 3.30957C68.6729 3.35059 68.8074 3.39616 68.935 3.44629C69.0626 3.49642 69.1811 3.54427 69.2904 3.58984C69.3998 3.63086 69.4955 3.65137 69.5775 3.65137C69.614 3.65137 69.655 3.67871 69.7006 3.7334C69.7462 3.78353 69.794 3.81543 69.8441 3.8291C69.8806 3.93392 69.9011 4.04102 69.9057 4.15039C69.9102 4.25977 69.9307 4.36458 69.9672 4.46484C70.0082 4.56055 70.0606 4.65169 70.1244 4.73828C70.1928 4.82031 70.2475 4.90918 70.2885 5.00488C70.2794 5.05501 70.2702 5.10286 70.2611 5.14844C70.252 5.18945 70.2475 5.23503 70.2475 5.28516C70.2475 5.38542 70.2725 5.47656 70.3227 5.55859C70.3728 5.64062 70.4092 5.72721 70.432 5.81836C70.4457 5.90495 70.4525 5.99154 70.4525 6.07812C70.4571 6.16016 70.4594 6.24674 70.4594 6.33789C70.4594 6.5931 70.4548 6.86198 70.4457 7.14453C70.4411 7.42708 70.4161 7.69596 70.3705 7.95117C70.3614 8.01497 70.3432 8.08105 70.3158 8.14941C70.293 8.21777 70.268 8.28613 70.2406 8.35449C70.2178 8.42285 70.1973 8.49349 70.1791 8.56641C70.1609 8.63932 70.1518 8.71224 70.1518 8.78516ZM74.3107 1.07422C74.3107 1.12435 74.2994 1.15397 74.2766 1.16309C74.2583 1.16764 74.2424 1.18359 74.2287 1.21094C74.1877 1.29753 74.1672 1.39551 74.1672 1.50488C74.1717 1.61426 74.1604 1.7168 74.133 1.8125C74.1057 1.9082 74.0419 1.99023 73.9416 2.05859C73.8459 2.1224 73.6796 2.1543 73.4426 2.1543C73.3378 2.1543 73.2261 2.14062 73.1076 2.11328C72.9891 2.08594 72.8957 2.02897 72.8273 1.94238H72.759C72.6542 1.94238 72.5607 1.92415 72.4787 1.8877C72.3967 1.84668 72.3169 1.78971 72.2395 1.7168C72.2622 1.52083 72.2873 1.33398 72.3147 1.15625C72.3466 0.973958 72.3488 0.782552 72.3215 0.582031C72.3671 0.513672 72.4195 0.454427 72.4787 0.404297C72.538 0.354167 72.5995 0.308594 72.6633 0.267578C72.7316 0.222005 72.7977 0.178711 72.8615 0.137695C72.9299 0.0921224 72.9937 0.0442708 73.0529 -0.00585938C73.0894 0.00325521 73.1258 0.0100911 73.1623 0.0146484C73.1988 0.0192057 73.2352 0.0214844 73.2717 0.0214844C73.3446 0.0214844 73.413 0.0169271 73.4768 0.0078125C73.5406 -0.00130208 73.6089 -0.00585938 73.6818 -0.00585938C73.7229 0.0442708 73.7593 0.0852865 73.7912 0.117188C73.8231 0.144531 73.8322 0.192383 73.8186 0.260742C73.8687 0.278971 73.9097 0.306315 73.9416 0.342773C73.9735 0.374674 74.0031 0.411133 74.0305 0.452148C74.0624 0.493164 74.092 0.53418 74.1193 0.575195C74.1512 0.611654 74.1877 0.643555 74.2287 0.670898V0.698242C74.2287 0.766602 74.2424 0.830404 74.2697 0.889648C74.2971 0.948893 74.3107 1.01042 74.3107 1.07422ZM74.2834 4.41699C74.2834 4.49447 74.2697 4.56966 74.2424 4.64258C74.215 4.71549 74.1968 4.79069 74.1877 4.86816C74.1558 5.02767 74.1376 5.18717 74.133 5.34668C74.1285 5.50618 74.0988 5.66341 74.0441 5.81836C74.035 5.84115 74.0282 5.86393 74.0236 5.88672C74.0191 5.90495 74.0168 5.92546 74.0168 5.94824C74.0168 5.99837 74.0214 6.04622 74.0305 6.0918C74.0396 6.13281 74.0441 6.17839 74.0441 6.22852C74.0441 6.26953 74.0373 6.30827 74.0236 6.34473C74.01 6.37663 74.0031 6.41081 74.0031 6.44727C74.0031 6.4974 74.0168 6.55208 74.0441 6.61133C74.0715 6.66602 74.0852 6.72982 74.0852 6.80273C74.0852 6.87109 74.0783 6.94173 74.0647 7.01465C74.051 7.08301 74.0441 7.15137 74.0441 7.21973C74.0441 7.29264 74.051 7.361 74.0647 7.4248C74.0783 7.48861 74.0852 7.55469 74.0852 7.62305C74.0852 7.85547 74.076 8.08789 74.0578 8.32031C74.0396 8.54818 74.0305 8.77376 74.0305 8.99707C74.0305 9.12923 74.0419 9.26139 74.0647 9.39355C74.0874 9.52116 74.0988 9.65104 74.0988 9.7832C74.0988 9.96549 74.0601 10.1364 73.9826 10.2959C73.9097 10.4554 73.8094 10.6012 73.6818 10.7334C73.6089 10.7607 73.5406 10.7744 73.4768 10.7744C73.413 10.7699 73.3446 10.7744 73.2717 10.7881C73.2216 10.7972 73.1714 10.8177 73.1213 10.8496C73.0757 10.877 73.0279 10.8906 72.9777 10.8906C72.9094 10.8906 72.841 10.8496 72.7727 10.7676C72.7043 10.6855 72.6428 10.5898 72.5881 10.4805C72.538 10.3711 72.4969 10.2617 72.465 10.1523C72.4331 10.043 72.4172 9.96094 72.4172 9.90625C72.4172 9.73307 72.4309 9.56445 72.4582 9.40039C72.4901 9.23177 72.5061 9.06087 72.5061 8.8877C72.5061 8.79655 72.522 8.70768 72.5539 8.62109C72.5858 8.53451 72.6018 8.44108 72.6018 8.34082C72.6018 8.15853 72.579 7.97168 72.5334 7.78027C72.4878 7.58887 72.465 7.40202 72.465 7.21973C72.465 7.11491 72.4878 7.01009 72.5334 6.90527C72.579 6.7959 72.6018 6.68197 72.6018 6.56348C72.6018 6.44499 72.5949 6.32878 72.5813 6.21484C72.5676 6.09635 72.5607 5.97786 72.5607 5.85938C72.5471 5.69076 72.5425 5.52441 72.5471 5.36035C72.5562 5.19173 72.5607 5.02311 72.5607 4.85449C72.5607 4.7679 72.5516 4.68132 72.5334 4.59473C72.5152 4.50814 72.5061 4.42155 72.5061 4.33496C72.5061 4.2985 72.5152 4.2666 72.5334 4.23926C72.5516 4.21191 72.5607 4.18457 72.5607 4.15723C72.5607 4.07975 72.5539 4.00228 72.5402 3.9248C72.5266 3.84733 72.5197 3.77441 72.5197 3.70605C72.5197 3.62858 72.5334 3.54883 72.5607 3.4668L72.6428 3.42578V3.34375C72.6747 3.30273 72.7271 3.26628 72.8 3.23438C72.8729 3.19792 72.9504 3.16829 73.0324 3.14551C73.119 3.11816 73.2033 3.09766 73.2854 3.08398C73.3674 3.07031 73.4335 3.06348 73.4836 3.06348C73.5747 3.06348 73.6613 3.10221 73.7434 3.17969C73.8254 3.2526 73.8983 3.32096 73.9621 3.38477C74.0624 3.48047 74.1353 3.5625 74.1809 3.63086C74.2264 3.69466 74.2561 3.76074 74.2697 3.8291C74.288 3.89746 74.2948 3.97721 74.2902 4.06836C74.2857 4.15951 74.2834 4.27572 74.2834 4.41699ZM83.0088 7.08301C82.986 7.18327 82.9518 7.28125 82.9062 7.37695C82.8652 7.47266 82.8219 7.56836 82.7764 7.66406C82.7354 7.75977 82.6966 7.85775 82.6602 7.95801C82.6283 8.05371 82.61 8.15397 82.6055 8.25879C82.5964 8.31803 82.5827 8.35677 82.5645 8.375C82.5462 8.38867 82.5257 8.40462 82.5029 8.42285C82.4801 8.44108 82.4596 8.46842 82.4414 8.50488C82.4277 8.54134 82.4209 8.60742 82.4209 8.70312C82.4209 8.76237 82.4141 8.84668 82.4004 8.95605C82.3867 9.06543 82.3662 9.18848 82.3389 9.3252C82.3115 9.45736 82.2796 9.59635 82.2432 9.74219C82.2113 9.88346 82.1748 10.0179 82.1338 10.1455C82.0928 10.2686 82.0495 10.3757 82.0039 10.4668C81.9629 10.5579 81.9196 10.6195 81.874 10.6514C81.8604 10.6878 81.8512 10.7266 81.8467 10.7676C81.8467 10.804 81.8421 10.8405 81.833 10.877C81.8239 10.9134 81.8079 10.9453 81.7852 10.9727C81.7669 11 81.751 11.0273 81.7373 11.0547C81.6963 11.1732 81.6689 11.2575 81.6553 11.3076C81.6462 11.3623 81.6325 11.4033 81.6143 11.4307C81.6006 11.4626 81.571 11.4945 81.5254 11.5264C81.4798 11.5583 81.4001 11.6107 81.2861 11.6836C81.2451 11.7201 81.1904 11.7588 81.1221 11.7998C81.0537 11.8454 80.9922 11.8682 80.9375 11.8682C80.8555 11.8682 80.778 11.8522 80.7051 11.8203C80.6322 11.793 80.5615 11.7565 80.4932 11.7109C80.4248 11.6699 80.3542 11.6266 80.2812 11.5811C80.2129 11.5355 80.1423 11.4967 80.0693 11.4648V11.4307C80.0693 11.3942 80.0557 11.3555 80.0283 11.3145C80.001 11.2734 79.9873 11.2347 79.9873 11.1982L80.0283 11.1572C80.0192 11.098 80.0078 11.041 79.9941 10.9863C79.9805 10.9316 79.9736 10.8747 79.9736 10.8154C79.9736 10.7744 79.9987 10.6924 80.0488 10.5693C80.099 10.4417 80.1582 10.3073 80.2266 10.166C80.2949 10.0247 80.361 9.89258 80.4248 9.76953C80.4932 9.64193 80.5433 9.55762 80.5752 9.5166C80.6162 9.46191 80.6641 9.41406 80.7188 9.37305C80.7734 9.32747 80.8145 9.27279 80.8418 9.20898C80.8783 9.11784 80.8942 9.01986 80.8896 8.91504C80.8896 8.81022 80.901 8.71224 80.9238 8.62109C80.9375 8.57096 80.9603 8.52767 80.9922 8.49121C81.0241 8.4502 81.0492 8.40462 81.0674 8.35449C81.0947 8.25423 81.1016 8.15397 81.0879 8.05371C81.0788 7.95345 81.0856 7.85775 81.1084 7.7666C81.1221 7.69368 81.1471 7.61849 81.1836 7.54102C81.2246 7.46354 81.2451 7.38835 81.2451 7.31543C81.2451 7.25163 81.2383 7.19238 81.2246 7.1377C81.2109 7.07845 81.2041 7.01693 81.2041 6.95312C81.2041 6.83919 81.2064 6.72982 81.2109 6.625C81.2155 6.52018 81.2178 6.41536 81.2178 6.31055C81.2178 6.10547 81.1904 5.91862 81.1357 5.75C81.0856 5.57682 80.974 5.43783 80.8008 5.33301L80.7393 5.23047C80.7256 5.22135 80.7119 5.22135 80.6982 5.23047C80.6846 5.23958 80.6663 5.24414 80.6436 5.24414C80.6162 5.24414 80.5911 5.23047 80.5684 5.20312C80.5501 5.17122 80.5205 5.13932 80.4795 5.10742C80.443 5.07096 80.3906 5.03906 80.3223 5.01172C80.2585 4.97982 80.1696 4.96387 80.0557 4.96387C79.9053 4.96387 79.7754 4.99577 79.666 5.05957C79.5612 5.11882 79.4632 5.19401 79.3721 5.28516C79.2809 5.37174 79.1921 5.46517 79.1055 5.56543C79.0189 5.66113 78.9209 5.74544 78.8115 5.81836C78.8161 5.88672 78.807 5.94368 78.7842 5.98926C78.7614 6.03483 78.7318 6.07812 78.6953 6.11914C78.6634 6.1556 78.627 6.19434 78.5859 6.23535C78.5495 6.27181 78.5176 6.3151 78.4902 6.36523C78.4766 6.39258 78.4697 6.42448 78.4697 6.46094C78.4697 6.49284 78.4629 6.52246 78.4492 6.5498C78.4128 6.60449 78.3649 6.65234 78.3057 6.69336C78.251 6.72982 78.21 6.78451 78.1826 6.85742C78.1507 6.92578 78.1348 7.00098 78.1348 7.08301C78.1348 7.16048 78.1302 7.2334 78.1211 7.30176C78.1211 7.33822 78.1143 7.36784 78.1006 7.39062C78.0915 7.41341 78.0801 7.4362 78.0664 7.45898C78.0527 7.47721 78.0391 7.49544 78.0254 7.51367C78.0117 7.5319 78.0026 7.55469 77.998 7.58203C77.9844 7.68685 77.9775 7.79167 77.9775 7.89648C77.9775 8.0013 77.9525 8.10612 77.9023 8.21094C77.9388 8.31576 77.9775 8.42057 78.0186 8.52539C78.0596 8.62565 78.0801 8.73275 78.0801 8.84668C78.0801 8.97884 78.0596 9.10872 78.0186 9.23633C77.9775 9.36393 77.957 9.49382 77.957 9.62598C77.957 9.73991 77.9844 9.83789 78.0391 9.91992C77.9753 10.0977 77.9274 10.2799 77.8955 10.4668C77.8636 10.6491 77.8226 10.8314 77.7725 11.0137C77.7178 11.0638 77.654 11.1003 77.5811 11.123C77.5081 11.1458 77.4375 11.1572 77.3691 11.1572C77.237 11.1572 77.1071 11.1413 76.9795 11.1094C76.8519 11.082 76.7243 11.0638 76.5967 11.0547C76.583 11 76.5557 10.9544 76.5146 10.918C76.4782 10.877 76.4372 10.8382 76.3916 10.8018C76.3506 10.7653 76.3141 10.7243 76.2822 10.6787C76.2503 10.6286 76.2344 10.5671 76.2344 10.4941C76.2344 10.4303 76.2526 10.3597 76.2891 10.2822C76.3301 10.2048 76.3574 10.1318 76.3711 10.0635C76.3802 9.99967 76.3802 9.93359 76.3711 9.86523C76.362 9.79688 76.3574 9.72624 76.3574 9.65332C76.3574 9.53027 76.3779 9.40495 76.4189 9.27734C76.4645 9.14974 76.4919 9.01986 76.501 8.8877C76.5055 8.81934 76.5078 8.7487 76.5078 8.67578C76.5078 8.59831 76.5101 8.52311 76.5146 8.4502C76.5192 8.37272 76.5283 8.29753 76.542 8.22461C76.5602 8.15169 76.5921 8.08789 76.6377 8.0332C76.624 7.98307 76.6104 7.93294 76.5967 7.88281C76.5876 7.82812 76.583 7.77572 76.583 7.72559C76.583 7.67546 76.5921 7.62988 76.6104 7.58887C76.6286 7.54329 76.6377 7.5 76.6377 7.45898C76.6377 7.41797 76.624 7.38607 76.5967 7.36328C76.5693 7.33594 76.5557 7.30176 76.5557 7.26074L76.5967 7.21973C76.5876 7.16504 76.5785 7.11263 76.5693 7.0625C76.5602 7.00781 76.5557 6.95312 76.5557 6.89844C76.5557 6.77083 76.5762 6.65007 76.6172 6.53613C76.6628 6.41764 76.6855 6.2946 76.6855 6.16699C76.6855 6.06217 76.6764 5.96191 76.6582 5.86621C76.6445 5.76595 76.6377 5.66569 76.6377 5.56543C76.6377 5.49707 76.6445 5.43099 76.6582 5.36719C76.6764 5.29883 76.6924 5.23275 76.7061 5.16895C76.7243 5.10514 76.7402 5.04134 76.7539 4.97754C76.7721 4.90918 76.7812 4.84082 76.7812 4.77246C76.7812 4.71777 76.7721 4.66536 76.7539 4.61523C76.7402 4.5651 76.722 4.51497 76.6992 4.46484C76.681 4.41471 76.6628 4.36458 76.6445 4.31445C76.6309 4.26432 76.624 4.21191 76.624 4.15723C76.624 3.93848 76.6787 3.73112 76.7881 3.53516C76.8975 3.33919 77.0296 3.16829 77.1846 3.02246C77.1937 3.02246 77.2028 3.02474 77.2119 3.0293C77.221 3.03385 77.2301 3.03613 77.2393 3.03613C77.2894 3.03613 77.3327 3.02702 77.3691 3.00879C77.4102 2.986 77.4512 2.97461 77.4922 2.97461C77.6107 2.97461 77.7132 3.00423 77.7998 3.06348C77.891 3.11816 77.9844 3.16374 78.0801 3.2002C78.1439 3.37337 78.1963 3.54883 78.2373 3.72656C78.2829 3.9043 78.3057 4.08887 78.3057 4.28027C78.3558 4.2666 78.4014 4.24837 78.4424 4.22559C78.488 4.19824 78.5312 4.1709 78.5723 4.14355C78.6178 4.11621 78.6611 4.09115 78.7021 4.06836C78.7477 4.04102 78.7979 4.02279 78.8525 4.01367C78.8981 3.98177 78.9368 3.94531 78.9688 3.9043C79.0007 3.85872 79.0303 3.81315 79.0576 3.76758C79.0895 3.72201 79.1191 3.67871 79.1465 3.6377C79.1784 3.59212 79.2148 3.55339 79.2559 3.52148C79.3105 3.48047 79.3971 3.43717 79.5156 3.3916C79.6387 3.34603 79.7663 3.30501 79.8984 3.26855C80.0352 3.22754 80.1673 3.19564 80.2949 3.17285C80.4225 3.14551 80.5205 3.13184 80.5889 3.13184C80.6709 3.13184 80.7438 3.14095 80.8076 3.15918C80.876 3.17285 80.9398 3.19336 80.999 3.2207C81.0628 3.24349 81.1243 3.27083 81.1836 3.30273C81.2474 3.33008 81.3158 3.35742 81.3887 3.38477C81.416 3.39388 81.4434 3.40072 81.4707 3.40527C81.498 3.40527 81.5299 3.41211 81.5664 3.42578C81.6211 3.44857 81.6689 3.48047 81.71 3.52148C81.7555 3.55794 81.8011 3.59668 81.8467 3.6377C81.8923 3.67871 81.9378 3.71745 81.9834 3.75391C82.0335 3.78581 82.0859 3.81087 82.1406 3.8291C82.168 3.90658 82.2044 3.97493 82.25 4.03418C82.3001 4.09342 82.3571 4.14811 82.4209 4.19824C82.4346 4.29395 82.4596 4.38509 82.4961 4.47168C82.5371 4.55371 82.5758 4.63802 82.6123 4.72461C82.6533 4.80664 82.6898 4.89095 82.7217 4.97754C82.7536 5.05957 82.7695 5.14844 82.7695 5.24414C82.7695 5.30339 82.7627 5.35579 82.749 5.40137C82.7354 5.44238 82.7285 5.48796 82.7285 5.53809C82.7285 5.5791 82.7354 5.611 82.749 5.63379C82.7673 5.65658 82.7832 5.67936 82.7969 5.70215C82.8151 5.72038 82.8311 5.74316 82.8447 5.77051C82.863 5.79329 82.8721 5.82292 82.8721 5.85938C82.8721 5.96419 82.8675 6.06673 82.8584 6.16699C82.8493 6.26725 82.8447 6.36979 82.8447 6.47461C82.8447 6.57943 82.8561 6.68424 82.8789 6.78906C82.9017 6.89388 82.945 6.99186 83.0088 7.08301ZM90.9139 10.5078C90.9367 10.5306 90.9503 10.5557 90.9549 10.583C90.964 10.6104 90.9686 10.6377 90.9686 10.665C90.9686 10.7152 90.9594 10.7653 90.9412 10.8154C90.923 10.8656 90.9139 10.918 90.9139 10.9727C90.9139 11.0273 90.923 11.0798 90.9412 11.1299C90.9594 11.1846 90.9686 11.2393 90.9686 11.2939C90.9686 11.376 90.9526 11.4557 90.9207 11.5332C90.8888 11.6107 90.8523 11.6859 90.8113 11.7588C90.7749 11.8317 90.7407 11.9046 90.7088 11.9775C90.6769 12.0505 90.6609 12.1257 90.6609 12.2031C90.6609 12.2214 90.6359 12.2783 90.5857 12.374C90.5356 12.4697 90.4786 12.5745 90.4148 12.6885C90.351 12.807 90.2872 12.9186 90.2234 13.0234C90.1642 13.1283 90.1232 13.1966 90.1004 13.2285C90.0411 13.2513 89.9887 13.2809 89.9432 13.3174C89.8976 13.3538 89.8497 13.3903 89.7996 13.4268C89.754 13.4678 89.7039 13.502 89.6492 13.5293C89.5991 13.5612 89.5398 13.5817 89.4715 13.5908C89.4533 13.6501 89.4191 13.6934 89.3689 13.7207C89.3234 13.7526 89.2732 13.7799 89.2186 13.8027C89.1639 13.8301 89.1115 13.8597 89.0613 13.8916C89.0112 13.9235 88.9793 13.9714 88.9656 14.0352H88.9109C88.8517 14.0306 88.7924 14.0352 88.7332 14.0488C88.6785 14.0671 88.6215 14.0876 88.5623 14.1104C88.5031 14.1331 88.4438 14.1559 88.3846 14.1787C88.3299 14.2015 88.2729 14.2152 88.2137 14.2197C88.1089 14.2288 88.004 14.2357 87.8992 14.2402C87.7944 14.2448 87.6896 14.2471 87.5848 14.2471C87.5164 14.2471 87.4412 14.2448 87.3592 14.2402C87.2817 14.2402 87.202 14.2334 87.1199 14.2197C87.0424 14.2061 86.9672 14.1855 86.8943 14.1582C86.8214 14.1309 86.7622 14.0898 86.7166 14.0352C86.6574 14.0124 86.5958 13.9964 86.532 13.9873C86.4728 13.9827 86.4113 13.9668 86.3475 13.9395L86.2654 13.8574C86.1059 13.8073 85.9601 13.7594 85.8279 13.7139C85.6958 13.6683 85.5773 13.609 85.4725 13.5361C85.3676 13.4678 85.2719 13.3789 85.1853 13.2695C85.0988 13.1647 85.0213 13.028 84.9529 12.8594C84.9393 12.8092 84.9074 12.7751 84.8572 12.7568C84.8071 12.7432 84.7638 12.7181 84.7273 12.6816C84.7228 12.6178 84.7068 12.5586 84.6795 12.5039C84.6521 12.4492 84.6225 12.3945 84.5906 12.3398C84.5587 12.2852 84.5291 12.2305 84.5018 12.1758C84.4744 12.1211 84.4607 12.0596 84.4607 11.9912C84.4607 11.9411 84.4676 11.891 84.4812 11.8408C84.4949 11.7952 84.5018 11.7428 84.5018 11.6836C84.5018 11.6335 84.4995 11.5811 84.4949 11.5264C84.4904 11.4762 84.4881 11.4261 84.4881 11.376C84.4881 11.2939 84.504 11.2233 84.5359 11.1641C84.5678 11.1094 84.6066 11.057 84.6521 11.0068C84.6977 10.9613 84.7478 10.918 84.8025 10.877C84.8572 10.8314 84.9074 10.7835 84.9529 10.7334C84.9939 10.7334 85.0327 10.7311 85.0691 10.7266C85.1056 10.722 85.1466 10.7197 85.1922 10.7197C85.4064 10.7197 85.5841 10.763 85.7254 10.8496C85.8712 10.9316 85.9897 11.041 86.0809 11.1777C86.172 11.319 86.2426 11.4762 86.2928 11.6494C86.3429 11.8271 86.3816 12.0072 86.409 12.1895C86.4181 12.2396 86.4386 12.2669 86.4705 12.2715C86.507 12.2806 86.5457 12.2965 86.5867 12.3193C86.6141 12.3421 86.6391 12.3672 86.6619 12.3945C86.6893 12.4219 86.7212 12.4424 86.7576 12.4561C86.8761 12.4971 86.9969 12.513 87.1199 12.5039C87.243 12.4993 87.3637 12.5107 87.4822 12.5381C87.5688 12.5654 87.6508 12.6019 87.7283 12.6475C87.8058 12.6976 87.8878 12.7227 87.9744 12.7227C88.0382 12.7227 88.1157 12.6976 88.2068 12.6475C88.3025 12.5973 88.396 12.5381 88.4871 12.4697C88.5783 12.4014 88.6603 12.3285 88.7332 12.251C88.8107 12.1735 88.8608 12.1074 88.8836 12.0527C88.8973 12.0208 88.9041 11.9889 88.9041 11.957C88.9041 11.9251 88.9109 11.8955 88.9246 11.8682L89.0271 11.8271V11.7246L89.1092 11.6836C89.1639 11.5742 89.2277 11.4694 89.3006 11.3691C89.3735 11.2734 89.4578 11.1823 89.5535 11.0957V10.9727C89.5535 10.8952 89.5672 10.8245 89.5945 10.7607C89.6219 10.6969 89.6561 10.6331 89.6971 10.5693C89.6743 10.5146 89.6538 10.4736 89.6355 10.4463C89.6219 10.4144 89.6082 10.3848 89.5945 10.3574C89.5854 10.3255 89.5809 10.2913 89.5809 10.2549C89.5854 10.2184 89.5968 10.1683 89.615 10.1045C89.4829 10.1546 89.3758 10.2048 89.2937 10.2549C89.2117 10.3005 89.132 10.3438 89.0545 10.3848C88.977 10.4212 88.8881 10.4508 88.7879 10.4736C88.6922 10.4964 88.56 10.5078 88.3914 10.5078C88.3641 10.5078 88.3436 10.5169 88.3299 10.5352C88.3162 10.5488 88.3025 10.5648 88.2889 10.583C88.2752 10.6012 88.2592 10.6195 88.241 10.6377C88.2228 10.6514 88.1954 10.6559 88.159 10.6514C88.0542 10.6423 87.9493 10.6423 87.8445 10.6514C87.7397 10.6605 87.6349 10.665 87.5301 10.665C87.4663 10.665 87.4161 10.6628 87.3797 10.6582C87.3478 10.6491 87.3182 10.6377 87.2908 10.624C87.2635 10.6104 87.2339 10.5944 87.202 10.5762C87.1746 10.5579 87.1336 10.5352 87.0789 10.5078C86.9604 10.4531 86.8374 10.403 86.7098 10.3574C86.5867 10.3118 86.4659 10.2594 86.3475 10.2002C86.2381 10.1455 86.131 10.0749 86.0262 9.98828C85.9259 9.89714 85.8279 9.80143 85.7322 9.70117C85.6365 9.60091 85.5431 9.50065 85.452 9.40039C85.3654 9.29557 85.2788 9.19987 85.1922 9.11328V9.01074C85.2013 8.86491 85.1717 8.74642 85.1033 8.65527C85.035 8.55957 84.9552 8.45931 84.8641 8.35449C84.8549 8.18132 84.8367 8.0013 84.8094 7.81445C84.782 7.6276 84.7684 7.44759 84.7684 7.27441C84.7684 7.15592 84.7775 7.03516 84.7957 6.91211C84.8139 6.78906 84.823 6.66829 84.823 6.5498C84.823 6.49056 84.8139 6.43359 84.7957 6.37891C84.7775 6.32422 84.7684 6.26953 84.7684 6.21484C84.7684 6.17839 84.7729 6.14421 84.782 6.1123C84.7911 6.0804 84.8003 6.04622 84.8094 6.00977C84.8185 5.96875 84.8276 5.92318 84.8367 5.87305C84.8458 5.81836 84.8504 5.75 84.8504 5.66797C84.8504 5.65885 84.8618 5.62012 84.8846 5.55176C84.9074 5.47884 84.9324 5.39909 84.9598 5.3125C84.9871 5.22591 85.0122 5.1416 85.035 5.05957C85.0623 4.97298 85.0805 4.90918 85.0896 4.86816C85.1808 4.79525 85.2583 4.71777 85.3221 4.63574C85.3859 4.54915 85.4292 4.44889 85.452 4.33496C85.5203 4.31673 85.5796 4.28711 85.6297 4.24609C85.6798 4.20052 85.7254 4.15267 85.7664 4.10254C85.812 4.05241 85.8598 4.00684 85.91 3.96582C85.9601 3.92025 86.0193 3.89062 86.0877 3.87695C86.0786 3.87695 86.074 3.86556 86.074 3.84277C86.074 3.80176 86.0922 3.77897 86.1287 3.77441C86.1652 3.76986 86.1971 3.76074 86.2244 3.74707C86.2791 3.71061 86.3292 3.67188 86.3748 3.63086C86.4249 3.58984 86.4773 3.55339 86.532 3.52148C86.6004 3.48047 86.6824 3.44629 86.7781 3.41895C86.8738 3.38704 86.9741 3.35742 87.0789 3.33008C87.1883 3.30273 87.2977 3.27311 87.407 3.24121C87.5164 3.20475 87.6167 3.15918 87.7078 3.10449C87.7853 3.11816 87.8605 3.125 87.9334 3.125C88.0109 3.12044 88.0861 3.11816 88.159 3.11816C88.2365 3.11361 88.3117 3.11361 88.3846 3.11816C88.462 3.12272 88.5395 3.13639 88.617 3.15918C88.7036 3.27311 88.8061 3.36882 88.9246 3.44629C89.0431 3.51921 89.1661 3.58757 89.2937 3.65137V3.45312C89.2846 3.29818 89.2937 3.14551 89.3211 2.99512C89.353 2.84473 89.4031 2.70345 89.4715 2.57129C89.5626 2.53027 89.6583 2.49837 89.7586 2.47559C89.8634 2.44824 89.9637 2.43457 90.0594 2.43457C90.1277 2.43457 90.1847 2.4528 90.2303 2.48926C90.2804 2.52116 90.326 2.5599 90.367 2.60547C90.408 2.64648 90.449 2.68978 90.49 2.73535C90.5356 2.78092 90.588 2.8151 90.6473 2.83789C90.6518 2.89714 90.6678 2.9541 90.6951 3.00879C90.727 3.06348 90.7589 3.11589 90.7908 3.16602C90.8227 3.21615 90.8501 3.26855 90.8728 3.32324C90.9002 3.37793 90.9139 3.4349 90.9139 3.49414C90.9139 3.60807 90.907 3.72201 90.8934 3.83594C90.8797 3.94531 90.8728 4.05697 90.8728 4.1709C90.8728 4.22559 90.866 4.28027 90.8523 4.33496C90.8387 4.38965 90.8318 4.44661 90.8318 4.50586C90.8318 4.52865 90.8409 4.55371 90.8592 4.58105C90.882 4.6084 90.9002 4.62891 90.9139 4.64258C90.9275 4.68815 90.9344 4.73828 90.9344 4.79297C90.9344 4.8431 90.9367 4.89323 90.9412 4.94336C90.9458 4.98893 90.9549 5.03451 90.9686 5.08008C90.9868 5.12109 91.0164 5.15755 91.0574 5.18945C91.0118 5.32161 90.9822 5.45605 90.9686 5.59277C90.9594 5.72493 90.9549 5.86165 90.9549 6.00293C90.9549 6.0804 90.964 6.1556 90.9822 6.22852C91.0005 6.29688 91.0096 6.36979 91.0096 6.44727C91.0096 6.50651 90.9936 6.5612 90.9617 6.61133C90.9298 6.66146 90.9139 6.71615 90.9139 6.77539C90.9139 6.88477 90.9298 6.99642 90.9617 7.11035C90.9936 7.21973 91.0255 7.33138 91.0574 7.44531C91.0939 7.59115 91.1098 7.74154 91.1053 7.89648C91.1007 8.04688 91.0984 8.19954 91.0984 8.35449C91.0984 8.39551 91.1053 8.4388 91.1189 8.48438C91.1326 8.52539 91.1395 8.57096 91.1395 8.62109C91.1395 8.66211 91.1326 8.70085 91.1189 8.7373C91.1053 8.77376 91.0984 8.81478 91.0984 8.86035C91.0984 8.97884 91.1144 9.09733 91.1463 9.21582C91.1782 9.33431 91.1941 9.45736 91.1941 9.58496C91.1941 9.74447 91.1759 9.90853 91.1395 10.0771C91.1075 10.2458 91.0324 10.3893 90.9139 10.5078ZM89.5535 6.84375C89.5535 6.76628 89.5626 6.6888 89.5809 6.61133C89.6036 6.53385 89.615 6.45638 89.615 6.37891C89.615 6.32422 89.6059 6.27181 89.5877 6.22168C89.5695 6.17155 89.5512 6.1237 89.533 6.07812C89.5193 6.02799 89.5079 5.98014 89.4988 5.93457C89.4897 5.88444 89.4943 5.83203 89.5125 5.77734C89.4669 5.75911 89.4259 5.73177 89.3895 5.69531C89.3575 5.65885 89.3256 5.62012 89.2937 5.5791C89.2618 5.53353 89.2299 5.49023 89.198 5.44922C89.1707 5.40365 89.1411 5.36491 89.1092 5.33301C89.0818 5.29655 89.0454 5.27148 88.9998 5.25781C88.9588 5.23958 88.92 5.2168 88.8836 5.18945C88.8471 5.16211 88.8175 5.13249 88.7947 5.10059C88.7719 5.06868 88.7423 5.03678 88.7059 5.00488C88.5874 4.91374 88.4575 4.8431 88.3162 4.79297C88.1795 4.73828 88.0382 4.71094 87.8924 4.71094C87.7921 4.71094 87.7033 4.72233 87.6258 4.74512C87.5483 4.76335 87.4754 4.78385 87.407 4.80664C87.3432 4.82943 87.2817 4.85221 87.2225 4.875C87.1632 4.89323 87.1017 4.90462 87.0379 4.90918C86.965 5.00944 86.8966 5.1097 86.8328 5.20996C86.769 5.31022 86.687 5.39225 86.5867 5.45605C86.5639 5.60189 86.5343 5.73405 86.4978 5.85254C86.4659 5.96647 86.434 6.0804 86.4021 6.19434C86.3702 6.30371 86.3406 6.4222 86.3133 6.5498C86.2905 6.67741 86.2791 6.82552 86.2791 6.99414C86.2791 7.13997 86.2791 7.26074 86.2791 7.35645C86.2837 7.45215 86.295 7.54102 86.3133 7.62305C86.3361 7.70508 86.368 7.78711 86.409 7.86914C86.45 7.95117 86.5092 8.05143 86.5867 8.16992C86.6232 8.22917 86.6574 8.29297 86.6893 8.36133C86.7212 8.42513 86.7622 8.47982 86.8123 8.52539C86.8533 8.56641 86.9012 8.60059 86.9559 8.62793C87.0151 8.65072 87.0698 8.67578 87.1199 8.70312C87.1609 8.73047 87.2065 8.77148 87.2566 8.82617C87.3113 8.88086 87.3592 8.91504 87.4002 8.92871C87.4047 8.93327 87.4367 8.94238 87.4959 8.95605C87.5551 8.96973 87.6212 8.98568 87.6941 9.00391C87.7671 9.01758 87.8331 9.03125 87.8924 9.04492C87.9562 9.05859 87.9926 9.06543 88.0018 9.06543C88.1294 9.06543 88.2524 9.05176 88.3709 9.02441C88.4939 8.99707 88.6193 8.99707 88.7469 9.02441C88.7879 9.01986 88.8198 9.00618 88.8426 8.9834C88.8654 8.95605 88.8881 8.93099 88.9109 8.9082C88.9337 8.88542 88.9588 8.86719 88.9861 8.85352C89.0135 8.83529 89.0545 8.83301 89.1092 8.84668C89.1274 8.79199 89.1547 8.74414 89.1912 8.70312C89.2322 8.66211 89.2732 8.62337 89.3143 8.58691C89.3598 8.55046 89.4031 8.514 89.4441 8.47754C89.4852 8.44108 89.5216 8.40007 89.5535 8.35449C89.5854 8.31803 89.6036 8.2793 89.6082 8.23828C89.6128 8.19271 89.6287 8.15169 89.6561 8.11523C89.6788 8.09245 89.7062 8.07422 89.7381 8.06055C89.7745 8.04688 89.7928 8.01953 89.7928 7.97852C89.7928 7.85091 89.7791 7.73242 89.7518 7.62305C89.729 7.51367 89.7016 7.41341 89.6697 7.32227C89.6424 7.22656 89.615 7.13997 89.5877 7.0625C89.5649 6.98503 89.5535 6.91211 89.5535 6.84375Z" fill="#808080"/>
</svg>
