<svg width="50" height="50" viewBox="0 0 50 50" fill="none" xmlns="http://www.w3.org/2000/svg">
<path d="M8.33334 29.1667C8.33334 26.9779 8.76445 24.8106 9.60201 22.7885C10.4396 20.7665 11.6673 18.9292 13.2149 17.3815C14.7626 15.8339 16.5999 14.6063 18.6219 13.7687C20.644 12.9311 22.8113 12.5 25 12.5C27.1888 12.5 29.356 12.9311 31.3781 13.7687C33.4002 14.6063 35.2375 15.8339 36.7852 17.3816C38.3327 18.9292 39.5604 20.7665 40.3979 22.7885C41.2356 24.8106 41.6667 26.9779 41.6667 29.1667" stroke="white" stroke-width="4.5" stroke-linejoin="round"/>
<path d="M20.8333 31.25C20.8333 30.7029 20.9411 30.161 21.1504 29.6554C21.36 29.15 21.6669 28.6906 22.0538 28.3038C22.4406 27.9169 22.9 27.61 23.4054 27.4004C23.9111 27.191 24.4529 27.0833 25 27.0833C25.5471 27.0833 26.089 27.191 26.5946 27.4004C27.1 27.61 27.5594 27.9169 27.9463 28.3038C28.3331 28.6906 28.6402 29.15 28.8496 29.6554C29.059 30.161 29.1667 30.7029 29.1667 31.25" stroke="white" stroke-width="4.5" stroke-linejoin="round"/>
<path d="M27.0833 27.0833L31.25 20.8333" stroke="white" stroke-width="4.5" stroke-linecap="round" stroke-linejoin="round"/>
<path d="M41.6667 29.1667V31.25C41.6667 32.4006 40.734 33.3333 39.5833 33.3333H10.4167C9.26609 33.3333 8.33334 32.4006 8.33334 31.25V29.1667" stroke="white" stroke-width="4.5" stroke-linecap="round" stroke-linejoin="round"/>
</svg>
