<svg width="50" height="50" viewBox="0 0 50 50" fill="none" xmlns="http://www.w3.org/2000/svg">
<path d="M25 3.75C20.7972 3.75 16.6887 4.99629 13.1941 7.33127C9.6996 9.66625 6.97593 12.985 5.36757 16.868C3.75921 20.7509 3.33839 25.0236 4.15832 29.1457C4.97826 33.2678 7.00212 37.0542 9.97399 40.026C12.9459 42.9979 16.7322 45.0218 20.8543 45.8417C24.9764 46.6616 29.2491 46.2408 33.132 44.6324C37.015 43.0241 40.3338 40.3004 42.6687 36.8059C45.0037 33.3113 46.25 29.2029 46.25 25C46.2523 22.2088 45.7042 19.4445 44.6371 16.8653C43.57 14.286 42.0049 11.9426 40.0312 9.96885C38.0575 7.99514 35.714 6.42997 33.1348 5.36287C30.5555 4.29578 27.7912 3.7477 25 3.75ZM25 41.25C21.7861 41.25 18.6443 40.297 15.972 38.5114C13.2997 36.7258 11.2169 34.1879 9.98697 31.2186C8.75704 28.2493 8.43524 24.982 9.06225 21.8298C9.68926 18.6776 11.2369 15.7821 13.5095 13.5095C15.7821 11.2369 18.6776 9.68925 21.8298 9.06224C24.982 8.43523 28.2493 8.75703 31.2186 9.98696C34.1879 11.2169 36.7258 13.2997 38.5114 15.972C40.297 18.6443 41.25 21.7861 41.25 25C41.2543 27.1352 40.8369 29.2502 40.0218 31.2237C39.2067 33.1971 38.0099 34.9902 36.5 36.5C34.9902 38.0098 33.1972 39.2066 31.2237 40.0218C29.2502 40.8369 27.1352 41.2543 25 41.25Z" fill="white"/>
<path d="M32.125 18.5C31.8992 18.2631 31.6277 18.0745 31.3269 17.9457C31.0261 17.8168 30.7022 17.7504 30.375 17.7504C30.0477 17.7504 29.7239 17.8168 29.4231 17.9457C29.1223 18.0745 28.8508 18.2631 28.625 18.5L25 22.125L21.5 18.625C21.0343 18.1686 20.4072 17.9144 19.7552 17.9177C19.1031 17.921 18.4787 18.1815 18.0176 18.6426C17.5565 19.1037 17.296 19.7281 17.2927 20.3802C17.2894 21.0323 17.5436 21.6593 18 22.125L21.5 25.625L18 29.125C17.5436 29.5907 17.2894 30.2178 17.2927 30.8698C17.296 31.5219 17.5565 32.1463 18.0176 32.6074C18.4787 33.0685 19.1031 33.329 19.7552 33.3323C20.4072 33.3356 21.0343 33.0814 21.5 32.625L25 29.125L28.5 32.625C28.9657 33.0814 29.5927 33.3356 30.2448 33.3323C30.8969 33.329 31.5213 33.0685 31.9824 32.6074C32.4435 32.1463 32.704 31.5219 32.7073 30.8698C32.7106 30.2178 32.4564 29.5907 32 29.125L28.5 25.625L32 22.125C32.4687 21.645 32.7413 21.0072 32.7645 20.3367C32.7876 19.6662 32.5595 19.0112 32.125 18.5Z" fill="white"/>
</svg>
